STARTFONT 2.1
FONT -FontForge-Cascadia Code-Bold-R-Normal--42-400-75-75-P-243-ISO10646-1
SIZE 40 75 75
FONTBOUNDINGBOX 95 66 -2 -18
COMMENT "Generated by fontforge, http://fontforge.sourceforge.net"
COMMENT "(c) 2020 Microsoft Corporation. All Rights Reserved."
STARTPROPERTIES 40
FOUNDRY "FontForge"
FAMILY_NAME "Cascadia Code"
WEIGHT_NAME "Bold"
SLANT "R"
SETWIDTH_NAME "Normal"
ADD_STYLE_NAME ""
PIXEL_SIZE 42
POINT_SIZE 400
RESOLUTION_X 75
RESOLUTION_Y 75
SPACING "P"
AVERAGE_WIDTH 243
CHARSET_REGISTRY "ISO10646"
CHARSET_ENCODING "1"
FONTNAME_REGISTRY ""
CHARSET_COLLECTIONS "ASCII ISOLatin1Encoding ISO8859-2 ISO8859-5 ISO8859-7 ISO8859-9 ISO8859-4 ISO10646-1"
FONT_NAME "CascadiaCode-Bold"
FACE_NAME "Cascadia Code Bold"
COPYRIGHT "(c) 2020 Microsoft Corporation. All Rights Reserved."
FONT_VERSION "2102.003; ttfautohint (v1.8.3)"
FONT_ASCENT 34
FONT_DESCENT 8
UNDERLINE_POSITION -4
UNDERLINE_THICKNESS 4
X_HEIGHT 21
CAP_HEIGHT 28
RAW_ASCENT 799
RAW_DESCENT 200
NORM_SPACE 25
RELATIVE_WEIGHT 70
RELATIVE_SETWIDTH 50
SUPERSCRIPT_X 0
SUPERSCRIPT_Y 14
SUPERSCRIPT_SIZE 25
SUBSCRIPT_X 0
SUBSCRIPT_Y 3
SUBSCRIPT_SIZE 25
FIGURE_WIDTH 25
AVG_LOWERCASE_WIDTH 250
AVG_UPPERCASE_WIDTH 250
ENDPROPERTIES
CHARS 1780
STARTCHAR CR
ENCODING 13
SWIDTH 585 0
DWIDTH 25 0
BBX 1 1 0 0
BITMAP
00
ENDCHAR
STARTCHAR space
ENCODING 32
SWIDTH 585 0
DWIDTH 25 0
BBX 1 1 0 0
BITMAP
00
ENDCHAR
STARTCHAR exclam
ENCODING 33
SWIDTH 585 0
DWIDTH 25 0
BBX 7 29 9 0
BITMAP
FC
FC
FC
FC
FC
FC
FC
FC
FC
FC
FC
FC
FC
7C
7C
7C
7C
7C
00
00
00
00
7C
FE
FE
FE
FE
FC
78
ENDCHAR
STARTCHAR quotedbl
ENCODING 34
SWIDTH 585 0
DWIDTH 25 0
BBX 16 13 4 16
BITMAP
FE3F
FE3F
FE3F
FE3F
7E3F
7C3F
7C3F
7C3F
7C3F
7C3F
7C1F
7C1F
7C1F
ENDCHAR
STARTCHAR numbersign
ENCODING 35
SWIDTH 585 0
DWIDTH 25 0
BBX 21 29 2 0
BITMAP
07C7C0
07C7C0
07C7C0
0F87C0
0F87C0
0F87C0
FFFFF8
FFFFF8
FFFFF8
FFFFF8
FFFFF8
0F8F80
0F8F80
0F8F80
1F8F80
1F0F80
1F0F80
1F0F80
FFFFF8
FFFFF8
FFFFF8
FFFFF8
FFFFF8
1F1F00
1F1F00
1F1F00
3E1F00
3E1F00
3E1F00
ENDCHAR
STARTCHAR dollar
ENCODING 36
SWIDTH 585 0
DWIDTH 25 0
BBX 20 42 2 -6
BITMAP
00F800
00F800
00F800
00F800
00F800
00F800
01FC00
07FF80
1FFFE0
3FFFF0
3FFFE0
7F8FE0
7E03C0
7E0080
7E0000
7E0000
7F0000
3F8000
3FE000
1FF800
0FFE00
07FF00
01FFC0
007FC0
001FE0
0007F0
0003F0
0003F0
0003F0
4003F0
7C0FF0
7FFFE0
7FFFE0
FFFFC0
FFFF80
1FFC00
00F800
00F800
00F800
00F800
00F800
00F800
ENDCHAR
STARTCHAR percent
ENCODING 37
SWIDTH 585 0
DWIDTH 25 0
BBX 23 29 1 0
BITMAP
1F8000
3FE000
7FF000
FFF000
F9F800
F0F800
F0F810
F8F838
FFF07C
FFF1FC
7FE3F0
1FCFE0
001F80
007F00
01FC00
03F800
0FF3E0
1FCFF8
7F9FFC
FE1FFE
7C3F7E
303E3E
203E1E
003E3E
003F7E
001FFE
001FFC
000FF8
0003E0
ENDCHAR
STARTCHAR ampersand
ENCODING 38
SWIDTH 585 0
DWIDTH 25 0
BBX 24 29 1 0
BITMAP
00FE00
03FF80
07FFC0
0FFFE0
0FFFE0
1FC7E0
1F83F0
1F8000
1F8000
1F8000
0F8000
0FC000
0FE000
07E0FC
0FF0FC
1FF8FC
3FFCFC
7FFEF8
FE7FF8
FC3FF8
FC1FF8
FC0FF0
FC0FF0
FE1FF0
FFFFF8
7FFFFC
3FFFFC
1FFE7E
07F87F
ENDCHAR
STARTCHAR quotesingle
ENCODING 39
SWIDTH 585 0
DWIDTH 25 0
BBX 7 13 9 16
BITMAP
FE
FC
FC
FC
FC
FC
FC
7C
7C
7C
7C
7C
7C
ENDCHAR
STARTCHAR parenleft
ENCODING 40
SWIDTH 585 0
DWIDTH 25 0
BBX 16 37 5 -4
BITMAP
003F
00FF
03FF
07FF
0FFF
1FF0
1FC0
3F80
3F00
7F00
7E00
7E00
7C00
FC00
FC00
FC00
FC00
FC00
FC00
FC00
FC00
FC00
FC00
FC00
7E00
7E00
7E00
7F00
3F00
3F80
1FC0
1FF0
0FFF
07FF
03FF
00FF
001F
ENDCHAR
STARTCHAR parenright
ENCODING 41
SWIDTH 585 0
DWIDTH 25 0
BBX 15 37 4 -4
BITMAP
F800
FF00
FF80
FFC0
FFE0
0FF0
03F8
01F8
01FC
00FC
00FE
007E
007E
007E
003E
003E
003E
003E
003E
003E
003E
003E
007E
007E
007E
007E
00FC
00FC
01FC
03F8
07F8
1FF0
FFE0
FFC0
FF80
FF00
F800
ENDCHAR
STARTCHAR asterisk
ENCODING 42
SWIDTH 585 0
DWIDTH 25 0
BBX 21 19 2 5
BITMAP
01F800
00F800
00F800
00F800
20F860
7CF9E0
7FFFF0
7FFFF0
FFFFF0
FFFFF8
0FFF80
03FE00
07FF00
0FFF00
1FDF80
3F9FE0
1F8FC0
0F0700
020600
ENDCHAR
STARTCHAR plus
ENCODING 43
SWIDTH 585 0
DWIDTH 25 0
BBX 21 21 2 4
BITMAP
00F800
00F800
00F800
00F800
00F800
00F800
00F800
00F800
FFFFF8
FFFFF8
FFFFF8
FFFFF8
FFFFF8
00F800
00F800
00F800
00F800
00F800
00F800
00F800
00F800
ENDCHAR
STARTCHAR comma
ENCODING 44
SWIDTH 585 0
DWIDTH 25 0
BBX 8 14 8 -9
BITMAP
7F
7E
7E
7E
7E
7E
7C
7C
FC
FC
FC
FC
F8
F8
ENDCHAR
STARTCHAR hyphen
ENCODING 45
SWIDTH 585 0
DWIDTH 25 0
BBX 21 5 2 12
BITMAP
FFFFF8
FFFFF8
FFFFF8
FFFFF8
FFFFF8
ENDCHAR
STARTCHAR period
ENCODING 46
SWIDTH 585 0
DWIDTH 25 0
BBX 7 7 9 0
BITMAP
7C
FE
FE
FE
FE
FC
78
ENDCHAR
STARTCHAR slash
ENCODING 47
SWIDTH 585 0
DWIDTH 25 0
BBX 21 37 2 -4
BITMAP
0000F8
0001F8
0001F0
0003F0
0003E0
0007E0
0007E0
000FC0
000FC0
000F80
001F80
001F00
003F00
003F00
007E00
007E00
007C00
00FC00
00F800
01F800
01F000
03F000
03F000
03E000
07E000
07C000
0FC000
0F8000
1F8000
1F8000
3F0000
3F0000
3E0000
7E0000
7C0000
FC0000
FC0000
ENDCHAR
STARTCHAR zero
ENCODING 48
SWIDTH 585 0
DWIDTH 25 0
BBX 21 29 2 0
BITMAP
01FC00
07FF00
0FFF80
1FFFC0
3FFFE0
3F0FE0
7E07E0
7E03F0
7C03F0
FC01F0
FC01F0
FCF1F0
FCF9F8
FCF9F8
FCF9F8
FCF9F8
FCF9F8
FC71F0
FC01F0
FC01F0
7C03F0
7E03F0
7E07F0
7F0FE0
3FFFE0
1FFFC0
1FFF80
07FF00
01FC00
ENDCHAR
STARTCHAR one
ENCODING 49
SWIDTH 585 0
DWIDTH 25 0
BBX 19 29 3 0
BITMAP
03F800
1FF800
7FF800
7FF800
7FF800
7FF800
71F800
81F800
01F800
01F800
01F800
01F800
01F800
01F800
01F800
01F800
01F800
01F800
01F800
01F800
01F800
01F800
01F800
01F800
FFFFE0
FFFFE0
FFFFE0
FFFFE0
FFFFE0
ENDCHAR
STARTCHAR two
ENCODING 50
SWIDTH 585 0
DWIDTH 25 0
BBX 21 29 1 0
BITMAP
01FE00
07FF80
1FFFC0
3FFFE0
FFFFE0
7F07F0
3C03F0
1803F0
1003F0
0003F0
0003F0
0003F0
0003F0
0007E0
0007E0
000FC0
001FC0
003F80
007F00
00FE00
01FC00
07F800
1FF000
3FC000
3FFFF8
3FFFF8
3FFFF8
3FFFF8
3FFFF8
ENDCHAR
STARTCHAR three
ENCODING 51
SWIDTH 585 0
DWIDTH 25 0
BBX 20 29 2 0
BITMAP
03FC00
1FFF80
7FFFC0
FFFFC0
7FFFE0
3F0FE0
3807E0
1007E0
0007E0
0007C0
001FC0
007F80
07FE00
07F800
03FC00
03FF00
03FFC0
000FE0
0007E0
0003F0
0003F0
0003F0
0007F0
701FE0
7FFFE0
7FFFC0
7FFF80
7FFF00
1FF800
ENDCHAR
STARTCHAR four
ENCODING 52
SWIDTH 585 0
DWIDTH 25 0
BBX 22 29 1 0
BITMAP
0003F0
0003F0
0F83F0
1F83F0
1F83F0
1F83F0
1F03F0
1F03F0
1F03F0
3F03F0
3F03F0
3F03F0
3E03F0
3E03F0
3E03F0
7E03F0
7E03F0
7E03F0
7FFFFC
7FFFFC
7FFFFC
FFFFFC
FFFFFC
0003F0
0003F0
0003F0
0003F0
0003F0
0003F0
ENDCHAR
STARTCHAR five
ENCODING 53
SWIDTH 585 0
DWIDTH 25 0
BBX 21 29 2 0
BITMAP
1FFFE0
3FFFE0
3FFFE0
3FFFE0
3FFFE0
3F0000
3F0000
3F0000
3F0000
3E0000
3EFF00
3FFF80
3FFFE0
3FFFE0
3FFFF0
3E07F0
0003F0
0001F8
0001F8
0001F8
FC01F8
FC01F8
7E03F0
7F0FF0
7FFFE0
3FFFE0
1FFFC0
0FFF00
03FC00
ENDCHAR
STARTCHAR six
ENCODING 54
SWIDTH 585 0
DWIDTH 25 0
BBX 21 29 2 0
BITMAP
0007C0
007FC0
01FFC0
03FFC0
0FFFE0
0FFE00
1FE000
3F8000
3F0000
7E0000
7E3F00
7CFFC0
7CFFE0
FDFFE0
FDFFF0
FF07F0
FE03F8
FC01F8
FC01F8
FC01F8
FC01F8
7C01F8
7E03F0
7F07F0
3FFFF0
3FFFE0
1FFFC0
0FFF80
01FE00
ENDCHAR
STARTCHAR seven
ENCODING 55
SWIDTH 585 0
DWIDTH 25 0
BBX 22 29 2 0
BITMAP
FFFFFC
FFFFFC
FFFFF8
FFFFF8
FFFFF8
F803F0
F803F0
F803F0
F807E0
F807E0
F807E0
0007C0
000FC0
000FC0
000F80
001F80
001F80
001F00
003F00
003F00
003E00
007E00
007E00
007C00
007C00
00FC00
00FC00
00F800
01F800
ENDCHAR
STARTCHAR eight
ENCODING 56
SWIDTH 585 0
DWIDTH 25 0
BBX 21 29 2 0
BITMAP
03FC00
0FFF80
1FFFC0
3FFFE0
7FFFE0
7F0FF0
7E03F0
7E03F0
7E03F0
7E03E0
3F07E0
1FFFC0
0FFF00
01FC00
0FFF80
3FFFC0
7F07E0
7C03F0
FC01F0
FC01F0
FC01F8
FC01F8
FE03F0
FF07F0
7FFFF0
7FFFE0
3FFFC0
0FFF80
03FC00
ENDCHAR
STARTCHAR nine
ENCODING 57
SWIDTH 585 0
DWIDTH 25 0
BBX 21 29 2 0
BITMAP
03FC00
0FFF00
1FFFC0
3FFFE0
7FFFE0
7F0FF0
FE03F0
FC01F0
FC01F0
FC01F8
FC01F8
FC03F8
FF07F8
7FFDF0
7FFDF0
3FF9F0
1FF3F0
0FE3F0
0003F0
0007E0
000FE0
001FE0
003FC0
03FF80
3FFF00
3FFE00
3FFC00
1FF000
1F0000
ENDCHAR
STARTCHAR colon
ENCODING 58
SWIDTH 585 0
DWIDTH 25 0
BBX 8 22 8 0
BITMAP
3C
7E
7F
FF
FF
7F
7F
3C
00
00
00
00
00
00
3C
7F
7F
FF
FF
7F
7E
3C
ENDCHAR
STARTCHAR semicolon
ENCODING 59
SWIDTH 585 0
DWIDTH 25 0
BBX 8 31 8 -9
BITMAP
3C
7E
7F
FF
FF
7F
7F
3C
00
00
00
00
00
00
00
00
00
7F
7E
7E
7E
7E
7E
7C
7C
FC
FC
FC
FC
F8
F8
ENDCHAR
STARTCHAR less
ENCODING 60
SWIDTH 585 0
DWIDTH 25 0
BBX 21 21 1 4
BITMAP
000008
000078
0003F8
000FF8
007FF8
03FFF8
0FFFC0
7FFE00
FFF000
FF0000
FC0000
FF8000
FFF000
7FFE00
0FFFC0
03FFF8
007FF8
000FF8
0001F8
000078
000008
ENDCHAR
STARTCHAR equal
ENCODING 61
SWIDTH 585 0
DWIDTH 25 0
BBX 21 15 2 7
BITMAP
FFFFF8
FFFFF8
FFFFF8
FFFFF8
FFFFF8
000000
000000
000000
000000
000000
FFFFF8
FFFFF8
FFFFF8
FFFFF8
FFFFF8
ENDCHAR
STARTCHAR greater
ENCODING 62
SWIDTH 585 0
DWIDTH 25 0
BBX 21 21 2 4
BITMAP
C00000
F80000
FE0000
FFC000
FFF800
FFFE00
0FFFC0
01FFF8
003FF8
0007F8
0000F8
0007F8
003FF8
03FFF8
1FFFC0
FFFE00
FFF000
FFC000
FE0000
F00000
C00000
ENDCHAR
STARTCHAR question
ENCODING 63
SWIDTH 585 0
DWIDTH 25 0
BBX 19 29 2 0
BITMAP
03FC00
0FFF00
3FFFC0
7FFFC0
FFFFE0
FE0FE0
7807E0
3007E0
2007E0
000FC0
001FC0
003F80
007F80
00FE00
01FC00
01F800
01F000
01F000
01F000
000000
000000
000000
01F000
03F800
03F800
03F800
03F800
03F800
00E000
ENDCHAR
STARTCHAR at
ENCODING 64
SWIDTH 585 0
DWIDTH 25 0
BBX 20 35 2 -6
BITMAP
01FC00
07FF00
0FFFC0
1FFFC0
3FFFE0
3F07E0
7E03F0
7C39F0
7C7DF0
7CFDF0
F8FFF0
F8FFF0
F9F1F0
F9E1F0
F9E1F0
F9E1F0
F9E1F0
F9E1F0
F9E1F0
F9E1F0
F9F1F0
F8FFF0
F8FFF0
F8FDF0
FC7DF0
7C39F0
7C0000
7E0000
3F0000
3FC080
1FFF80
0FFF80
07FF80
03FF80
007F80
ENDCHAR
STARTCHAR A
ENCODING 65
SWIDTH 585 0
DWIDTH 25 0
BBX 23 29 1 0
BITMAP
00FE00
00FE00
01FE00
01FF00
01FF00
03FF00
03FF80
03EF80
03EF80
07EF80
07CFC0
07C7C0
0FC7C0
0FC7E0
0F87E0
1F83E0
1F83E0
1F83F0
1F03F0
3FFFF0
3FFFF8
3FFFF8
7FFFF8
7FFFF8
7E00FC
7C00FC
FC00FC
FC007E
FC007E
ENDCHAR
STARTCHAR B
ENCODING 66
SWIDTH 585 0
DWIDTH 25 0
BBX 21 29 3 0
BITMAP
FFF800
FFFE00
FFFF80
FFFFC0
FFFFC0
F80FC0
F807E0
F807E0
F807C0
F80FC0
F81FC0
FFFF80
FFFE00
FFF000
FFFF80
FFFFC0
F807E0
F803F0
F801F0
F801F0
F801F8
F801F8
F803F8
F807F0
FFFFF0
FFFFE0
FFFFE0
FFFF80
FFFE00
ENDCHAR
STARTCHAR C
ENCODING 67
SWIDTH 585 0
DWIDTH 25 0
BBX 22 29 1 0
BITMAP
003FC0
01FFF0
07FFF8
0FFFFC
1FFFFC
1FE0F8
3F8030
3F0010
7E0000
7E0000
7E0000
7C0000
FC0000
FC0000
FC0000
FC0000
FC0000
7C0000
7E0000
7E0000
7F0000
7F0000
3FC000
3FF038
1FFFF8
0FFFF8
07FFFC
01FFFC
003FE0
ENDCHAR
STARTCHAR D
ENCODING 68
SWIDTH 585 0
DWIDTH 25 0
BBX 21 29 3 0
BITMAP
FFF000
FFFC00
FFFF00
FFFF80
FFFFC0
F83FC0
F80FE0
F807E0
F803F0
F803F0
F803F0
F801F0
F801F8
F801F8
F801F8
F801F8
F801F8
F801F0
F803F0
F803F0
F803F0
F807F0
F80FE0
F83FE0
FFFFC0
FFFF80
FFFF00
FFFC00
FFE000
ENDCHAR
STARTCHAR E
ENCODING 69
SWIDTH 585 0
DWIDTH 25 0
BBX 20 29 3 0
BITMAP
FFFFF0
FFFFF0
FFFFF0
FFFFF0
FFFFF0
F80000
F80000
F80000
F80000
F80000
F80000
F80000
FFFF00
FFFF00
FFFF00
FFFF00
FFFF00
F80000
F80000
F80000
F80000
F80000
F80000
F80000
FFFFF0
FFFFF0
FFFFF0
FFFFF0
FFFFF0
ENDCHAR
STARTCHAR F
ENCODING 70
SWIDTH 585 0
DWIDTH 25 0
BBX 20 29 3 0
BITMAP
FFFFF0
FFFFF0
FFFFF0
FFFFF0
FFFFF0
FC0000
FC0000
FC0000
FC0000
FC0000
FC0000
FC0000
FC0000
FFFF00
FFFF00
FFFF00
FFFF00
FFFF00
FC0000
FC0000
FC0000
FC0000
FC0000
FC0000
FC0000
FC0000
FC0000
FC0000
FC0000
ENDCHAR
STARTCHAR G
ENCODING 71
SWIDTH 585 0
DWIDTH 25 0
BBX 22 29 1 0
BITMAP
007F80
03FFF0
07FFF8
0FFFFC
1FFFFC
3FE0F8
3F8030
7F0020
7E0000
7E0000
FC0000
FC0000
FC0000
FC0000
FC0FFC
FC0FFC
FC0FFC
FC0FFC
FC0FFC
FE00FC
7E00FC
7F00FC
7F80FC
3FE0FC
1FFFFC
1FFFFC
07FFFC
03FFFC
007FE0
ENDCHAR
STARTCHAR H
ENCODING 72
SWIDTH 585 0
DWIDTH 25 0
BBX 19 29 3 0
BITMAP
F803E0
F803E0
F803E0
F803E0
F803E0
F803E0
F803E0
F803E0
F803E0
F803E0
F803E0
F803E0
FFFFE0
FFFFE0
FFFFE0
FFFFE0
FFFFE0
F803E0
F803E0
F803E0
F803E0
F803E0
F803E0
F803E0
F803E0
F803E0
F803E0
F803E0
F803E0
ENDCHAR
STARTCHAR I
ENCODING 73
SWIDTH 585 0
DWIDTH 25 0
BBX 19 29 3 0
BITMAP
FFFFE0
FFFFE0
FFFFE0
FFFFE0
FFFFE0
01F000
01F000
01F000
01F000
01F000
01F000
01F000
01F000
01F000
01F000
01F000
01F000
01F000
01F000
01F000
01F000
01F000
01F000
01F000
FFFFE0
FFFFE0
FFFFE0
FFFFE0
FFFFE0
ENDCHAR
STARTCHAR J
ENCODING 74
SWIDTH 585 0
DWIDTH 25 0
BBX 21 29 1 0
BITMAP
007FF8
007FF8
007FF8
007FF8
007FF8
0000F8
0000F8
0000F8
0000F8
0000F8
0000F8
0000F8
0000F8
0000F8
0000F8
0000F8
0000F8
0000F8
0000F8
FC00F8
FC00F8
7E01F8
7E01F8
7F87F0
3FFFF0
3FFFE0
1FFFC0
07FF80
01FE00
ENDCHAR
STARTCHAR K
ENCODING 75
SWIDTH 585 0
DWIDTH 25 0
BBX 21 29 3 0
BITMAP
F803F0
F803F0
F803F0
F803F0
F803E0
F803E0
F807E0
F807E0
F80FC0
F80FC0
F81F80
F83F80
F87F00
F9FF00
FFFE00
FFFC00
FFFE00
FFFE00
FFBF00
FC3F00
F81F80
F81F80
F80FC0
F80FC0
F80FE0
F807E0
F807F0
F803F0
F803F8
ENDCHAR
STARTCHAR L
ENCODING 76
SWIDTH 585 0
DWIDTH 25 0
BBX 20 29 3 0
BITMAP
F80000
F80000
F80000
F80000
F80000
F80000
F80000
F80000
F80000
F80000
F80000
F80000
F80000
F80000
F80000
F80000
F80000
F80000
F80000
F80000
F80000
F80000
F80000
F80000
FFFFF0
FFFFF0
FFFFF0
FFFFF0
FFFFF0
ENDCHAR
STARTCHAR M
ENCODING 77
SWIDTH 585 0
DWIDTH 25 0
BBX 20 29 2 0
BITMAP
FF07F0
FF0FF0
FF0FF0
FF8FF0
FF8FF0
FB8FF0
FB8DF0
FB9DF0
F99DF0
F9DDF0
F9DDF0
F9DDF0
F9D9F0
F9F9F0
F8F9F0
F8F9F0
F8F9F0
F8F1F0
F8F1F0
F801F0
F801F0
F801F0
F801F0
F801F0
F801F0
F801F0
F801F0
F801F0
F801F0
ENDCHAR
STARTCHAR N
ENCODING 78
SWIDTH 585 0
DWIDTH 25 0
BBX 19 29 3 0
BITMAP
FF03E0
FF03E0
FF03E0
FF83E0
FF83E0
FF83E0
FB83E0
FBC3E0
FBC3E0
FBC3E0
F9C3E0
F9C3E0
F9E3E0
F9E3E0
F8E3E0
F8E3E0
F8F3E0
F8F3E0
F8F3E0
F873E0
F873E0
F87BE0
F87BE0
F83FE0
F83FE0
F83FE0
F83FE0
F83FE0
F81FE0
ENDCHAR
STARTCHAR O
ENCODING 79
SWIDTH 585 0
DWIDTH 25 0
BBX 22 29 1 0
BITMAP
00FE00
07FF80
0FFFE0
1FFFE0
3FFFF0
3F87F8
7F01F8
7E01F8
7E00FC
7E00FC
FC00FC
FC007C
FC007C
FC007C
FC007C
FC007C
FC007C
FC007C
FC00FC
7C00FC
7E00FC
7E01FC
7F01F8
3F87F8
3FFFF0
1FFFF0
0FFFE0
07FF80
01FE00
ENDCHAR
STARTCHAR P
ENCODING 80
SWIDTH 585 0
DWIDTH 25 0
BBX 20 29 3 0
BITMAP
FFF800
FFFF00
FFFF80
FFFFC0
FFFFE0
F80FE0
F807F0
F803F0
F803F0
F803F0
F803F0
F803F0
F803F0
F803F0
F807F0
F81FE0
FFFFE0
FFFFC0
FFFF80
FFFE00
FFF800
F80000
F80000
F80000
F80000
F80000
F80000
F80000
F80000
ENDCHAR
STARTCHAR Q
ENCODING 81
SWIDTH 585 0
DWIDTH 25 0
BBX 22 39 1 -10
BITMAP
00FE00
07FF80
0FFFC0
1FFFE0
3FFFF0
3F87F8
3F01F8
7E01F8
7E00FC
7E00FC
FC00FC
FC00FC
FC007C
FC007C
FC007C
FC007C
FC007C
FC007C
FC00FC
FC00FC
7E00FC
7E00FC
7E01F8
7F01F8
3FC7F8
3FFFF0
1FFFE0
0FFFE0
07FF80
01FE00
00FC00
007C00
007E00
007F08
007FF0
003FF0
001FF0
000FF0
0003F0
ENDCHAR
STARTCHAR R
ENCODING 82
SWIDTH 585 0
DWIDTH 25 0
BBX 21 29 3 0
BITMAP
FFFC00
FFFF00
FFFF80
FFFFC0
FFFFE0
F80FE0
F807F0
F803F0
F803F0
F803F0
F803F0
F807E0
F80FE0
FFFFE0
FFFFC0
FFFF80
FFFF00
FFFF00
F83F00
F81F80
F81F80
F81F80
F80FC0
F80FC0
F807E0
F807E0
F807F0
F803F0
F803F8
ENDCHAR
STARTCHAR S
ENCODING 83
SWIDTH 585 0
DWIDTH 25 0
BBX 20 29 2 0
BITMAP
01FE00
0FFF80
1FFFE0
3FFFF0
3FFFE0
7F87E0
7E01C0
7E0080
7E0000
7E0000
3F0000
3FC000
1FF000
0FFC00
07FF00
03FF80
00FFC0
001FE0
0007E0
0003F0
0003F0
0003F0
4003F0
7C0FF0
7FFFE0
7FFFE0
FFFFC0
7FFF00
0FFC00
ENDCHAR
STARTCHAR T
ENCODING 84
SWIDTH 585 0
DWIDTH 25 0
BBX 22 29 1 0
BITMAP
FFFFFC
FFFFFC
FFFFFC
FFFFFC
FFFFFC
007C00
007C00
007C00
007C00
007C00
007C00
007C00
007C00
007C00
007C00
007C00
007C00
007C00
007C00
007C00
007C00
007C00
007C00
007C00
007C00
007C00
007C00
007C00
007C00
ENDCHAR
STARTCHAR U
ENCODING 85
SWIDTH 585 0
DWIDTH 25 0
BBX 19 29 3 0
BITMAP
F803E0
F803E0
F803E0
F803E0
F803E0
F803E0
F803E0
F803E0
F803E0
F803E0
F803E0
F803E0
F803E0
F803E0
F803E0
F803E0
F803E0
F803E0
F803E0
F803E0
F803E0
F807E0
FC07E0
FE1FC0
FFFFC0
7FFFC0
3FFF80
1FFE00
07F800
ENDCHAR
STARTCHAR V
ENCODING 86
SWIDTH 585 0
DWIDTH 25 0
BBX 23 29 1 0
BITMAP
F8007E
FC007E
FC007C
FC007C
7C00FC
7E00FC
7E00F8
3E00F8
3E01F8
3F01F8
3F01F0
1F01F0
1F03F0
1F83F0
1F83E0
0F83E0
0F87E0
0F87E0
0FC7C0
07C7C0
07CFC0
07CF80
07EF80
03EF80
03FF80
03FF00
03FF00
01FF00
01FF00
ENDCHAR
STARTCHAR W
ENCODING 87
SWIDTH 585 0
DWIDTH 25 0
BBX 25 29 0 0
BITMAP
F8001F80
F8001F00
FC001F00
FC001F00
7C001F00
7C001F00
7C001F00
7C3E1F00
7C3E1F00
7C3E3F00
7C7E3E00
7C7E3E00
7C7E3E00
3C7F3E00
3C773E00
3E773E00
3E773E00
3E773E00
3EF73E00
3EF73C00
3EE73C00
3EE7BC00
3EE7BC00
1EE3FC00
1FE3FC00
1FE3FC00
1FE3FC00
1FE3FC00
1FE3FC00
ENDCHAR
STARTCHAR X
ENCODING 88
SWIDTH 585 0
DWIDTH 25 0
BBX 23 29 1 0
BITMAP
FE00FE
7E01FC
7F01F8
3F03F8
3F83F0
1F87F0
0FC7E0
0FCFC0
07EFC0
03FF80
03FF80
01FF00
01FE00
00FE00
007C00
00FC00
00FE00
01FF00
03FF00
03FF80
07EFC0
0FCFC0
0FC7E0
1F87E0
3F83F0
3F03F8
7F01F8
7E01FC
FE00FE
ENDCHAR
STARTCHAR Y
ENCODING 89
SWIDTH 585 0
DWIDTH 25 0
BBX 24 29 0 0
BITMAP
FC003F
7E003F
7E007E
3F007E
3F00FC
1F80FC
1F80F8
0FC1F8
0FC1F0
07C3F0
07E3E0
03E7E0
03F7C0
01FFC0
01FFC0
00FF80
00FF80
007F00
007F00
007E00
003E00
003E00
003E00
003E00
003E00
003E00
003E00
003E00
003E00
ENDCHAR
STARTCHAR Z
ENCODING 90
SWIDTH 585 0
DWIDTH 25 0
BBX 19 29 3 0
BITMAP
FFFFE0
FFFFE0
FFFFE0
FFFFE0
FFFFE0
000FC0
000FC0
001F80
003F00
007F00
007E00
00FC00
01FC00
01F800
03F000
07F000
07E000
0FC000
1FC000
1F8000
3F0000
7E0000
7E0000
FC0000
FFFFE0
FFFFE0
FFFFE0
FFFFE0
FFFFE0
ENDCHAR
STARTCHAR bracketleft
ENCODING 91
SWIDTH 585 0
DWIDTH 25 0
BBX 14 38 7 -4
BITMAP
FFFC
FFFC
FFFC
FFFC
FFFC
FC00
FC00
FC00
FC00
FC00
FC00
FC00
FC00
FC00
FC00
FC00
FC00
FC00
FC00
FC00
FC00
FC00
FC00
FC00
FC00
FC00
FC00
FC00
FC00
FC00
FC00
FC00
FC00
FFFC
FFFC
FFFC
FFFC
FFFC
ENDCHAR
STARTCHAR backslash
ENCODING 92
SWIDTH 585 0
DWIDTH 25 0
BBX 22 37 1 -4
BITMAP
FC0000
7E0000
7E0000
3E0000
3F0000
1F0000
1F8000
1F8000
0FC000
0FC000
07C000
07E000
03E000
03F000
01F000
01F800
01F800
00F800
00FC00
007C00
007E00
003E00
003F00
003F00
001F80
001F80
000F80
000FC0
0007C0
0007E0
0007E0
0003F0
0003F0
0001F0
0001F8
0000F8
0000FC
ENDCHAR
STARTCHAR bracketright
ENCODING 93
SWIDTH 585 0
DWIDTH 25 0
BBX 13 38 4 -4
BITMAP
FFF8
FFF8
FFF8
FFF8
FFF8
00F8
00F8
00F8
00F8
00F8
00F8
00F8
00F8
00F8
00F8
00F8
00F8
00F8
00F8
00F8
00F8
00F8
00F8
00F8
00F8
00F8
00F8
00F8
00F8
00F8
00F8
00F8
00F8
FFF8
FFF8
FFF8
FFF8
FFF8
ENDCHAR
STARTCHAR asciicircum
ENCODING 94
SWIDTH 585 0
DWIDTH 25 0
BBX 17 12 4 17
BITMAP
07F000
0FF000
0FF800
0FF800
1F7800
1F7C00
3E7C00
3E3E00
7C3E00
7C1F00
FC1F00
F81F80
ENDCHAR
STARTCHAR underscore
ENCODING 95
SWIDTH 585 0
DWIDTH 25 0
BBX 21 5 2 -5
BITMAP
FFFFF8
FFFFF8
FFFFF8
FFFFF8
FFFFF8
ENDCHAR
STARTCHAR grave
ENCODING 96
SWIDTH 585 0
DWIDTH 25 0
BBX 9 8 7 25
BITMAP
FC00
FC00
7E00
7E00
3F00
1F00
1F80
0F80
ENDCHAR
STARTCHAR a
ENCODING 97
SWIDTH 585 0
DWIDTH 25 0
BBX 22 22 2 0
BITMAP
1FF000
1FFE00
3FFF80
3FFF80
3FFFC0
001FE0
0007E0
0003E0
07FFE0
1FFFE0
7FFFE0
7FFFE0
FFFFE0
FC03E0
F807E0
F807E0
FC0FE0
FFFBFC
FFFBFC
7FFBFC
3FF3FC
0FC3FC
ENDCHAR
STARTCHAR b
ENCODING 98
SWIDTH 585 0
DWIDTH 25 0
BBX 20 31 3 0
BITMAP
FC0000
FC0000
FC0000
FC0000
FC0000
FC0000
FC0000
FC0000
FC0000
FC7C00
FDFF80
FDFFC0
FFFFC0
FFFFE0
FF0FE0
FE07F0
FC03F0
FC03F0
FC03F0
FC03F0
FC03F0
FC03F0
FC07E0
FC07E0
FC0FE0
FC7FC0
FFFFC0
FFFF80
FFFE00
FFFC00
FFE000
ENDCHAR
STARTCHAR c
ENCODING 99
SWIDTH 585 0
DWIDTH 25 0
BBX 21 22 2 0
BITMAP
00FF00
07FFC0
0FFFE0
1FFFF0
3FFFF8
3FC7F0
7F01E0
7E00C0
7E0000
FC0000
FC0000
FC0000
FC0000
7E0000
7E0000
7F0000
3FC020
3FFFE0
1FFFE0
0FFFE0
03FFF0
00FFF0
ENDCHAR
STARTCHAR d
ENCODING 100
SWIDTH 585 0
DWIDTH 25 0
BBX 20 31 2 0
BITMAP
0003F0
0003F0
0003F0
0003F0
0003F0
0003F0
0003F0
0003F0
0003F0
07E3F0
1FF3F0
3FFBF0
7FFBF0
7FFFF0
FF1FF0
FE07F0
FC07F0
FC03F0
FC03F0
F803F0
F803F0
FC03F0
FC03F0
FC07F0
FE07F0
FF0FF0
7FFFF0
7FFBF0
3FFBF0
1FF3F0
07E1F0
ENDCHAR
STARTCHAR e
ENCODING 101
SWIDTH 585 0
DWIDTH 25 0
BBX 20 22 2 0
BITMAP
01FC00
07FF00
1FFF80
1FFFC0
3FFFE0
7F07E0
7E03F0
7C03F0
7C01F0
FFFFF0
FFFFF0
FFFFF0
FFFFF0
7C0000
7E0000
7F0000
3FC060
3FFFE0
1FFFE0
0FFFE0
07FFE0
00FFE0
ENDCHAR
STARTCHAR f
ENCODING 102
SWIDTH 585 0
DWIDTH 25 0
BBX 22 31 1 0
BITMAP
0007FC
001FFC
003FFC
007FFC
00FFFC
00FF00
01FC00
01F800
01F800
01F000
01F000
01F000
01F000
01F000
FFFFF8
FFFFF8
FFFFF8
FFFFF8
FFFFF8
01F000
01F000
01F000
01F000
01F000
01F000
01F000
01F000
01F000
01F000
01F000
01F000
ENDCHAR
STARTCHAR g
ENCODING 103
SWIDTH 585 0
DWIDTH 25 0
BBX 20 32 2 -10
BITMAP
07E3F0
1FF3F0
3FFBF0
7FFBF0
7FFFF0
FF1FF0
FE07F0
FC07F0
FC03F0
FC03F0
F803F0
F803F0
FC03F0
FC03F0
FC07F0
FE07F0
FF0FF0
7FFFF0
7FFBF0
3FFBF0
1FF3F0
07E3E0
0003E0
0003E0
0007E0
0007E0
000FC0
3FFFC0
3FFF80
3FFF00
3FFE00
3FF000
ENDCHAR
STARTCHAR h
ENCODING 104
SWIDTH 585 0
DWIDTH 25 0
BBX 19 31 3 0
BITMAP
FC0000
FC0000
FC0000
FC0000
FC0000
FC0000
FC0000
FC0000
FC0000
FC7C00
FDFF00
FDFF80
FFFFC0
FFFFC0
FF1FC0
FE0FC0
FC07E0
FC07E0
FC07E0
FC07E0
FC07E0
FC07E0
FC07E0
FC07E0
FC07E0
FC07E0
FC07E0
FC07E0
FC07E0
FC07E0
FC07E0
ENDCHAR
STARTCHAR i
ENCODING 105
SWIDTH 585 0
DWIDTH 25 0
BBX 20 32 3 0
BITMAP
007000
01F800
01FC00
01FC00
01FC00
01FC00
00F800
000000
000000
000000
7FFC00
7FFC00
7FFC00
7FFC00
7FFC00
00FC00
00FC00
00FC00
00FC00
00FC00
00FC00
00FC00
00FC00
00FC00
00FC00
00FC00
00FC00
FFFFF0
FFFFF0
FFFFF0
FFFFF0
FFFFF0
ENDCHAR
STARTCHAR j
ENCODING 106
SWIDTH 585 0
DWIDTH 25 0
BBX 16 41 3 -10
BITMAP
003C
007E
007F
007F
007F
007E
003C
0000
0000
3FFF
3FFF
3FFF
3FFF
3FFF
003F
003F
003F
003F
003F
003F
003F
003F
003F
003F
003F
003F
003F
003F
003F
003F
003F
003E
003E
007E
007E
01FE
FFFC
7FF8
7FF8
7FE0
7F80
ENDCHAR
STARTCHAR k
ENCODING 107
SWIDTH 585 0
DWIDTH 25 0
BBX 21 31 3 0
BITMAP
F80000
F80000
F80000
F80000
F80000
F80000
F80000
F80000
F80000
F803E0
F807E0
F807E0
F807E0
F807C0
F80FC0
F80FC0
F81F80
F87F80
FFFF00
FFFF00
FFFE00
FFFE00
FFFF00
F83F00
F81F80
F81FC0
F80FC0
F80FE0
F807E0
F807F0
F803F8
ENDCHAR
STARTCHAR l
ENCODING 108
SWIDTH 585 0
DWIDTH 25 0
BBX 20 31 2 0
BITMAP
FFE000
FFE000
FFE000
FFE000
FFE000
03E000
03E000
03E000
03E000
03E000
03E000
03E000
03E000
03E000
03E000
03E000
03E000
03E000
03E000
03E000
03E000
03E000
03E000
03F000
03F010
03FFF0
03FFF0
01FFF0
01FFF0
00FFF0
003FE0
ENDCHAR
STARTCHAR m
ENCODING 109
SWIDTH 585 0
DWIDTH 25 0
BBX 21 22 2 0
BITMAP
F9E3E0
FBF7F0
FBF7F0
FFFFF8
FFFFF8
FCF9F8
FCF9F8
F8F1F8
F8F1F8
F8F1F8
F8F1F8
F8F1F8
F8F1F8
F8F1F8
F8F1F8
F8F1F8
F8F1F8
F8F1F8
F8F1F8
F8F1F8
F8F1F8
F8F1F8
ENDCHAR
STARTCHAR n
ENCODING 110
SWIDTH 585 0
DWIDTH 25 0
BBX 19 22 3 0
BITMAP
F87C00
F9FF00
F9FF80
FBFFC0
FFFFC0
FF9FC0
FE0FC0
FC07E0
FC07E0
FC07E0
FC07E0
FC07E0
FC07E0
FC07E0
FC07E0
FC07E0
FC07E0
FC07E0
FC07E0
FC07E0
FC07E0
FC07E0
ENDCHAR
STARTCHAR o
ENCODING 111
SWIDTH 585 0
DWIDTH 25 0
BBX 20 22 2 0
BITMAP
01FC00
07FF00
1FFF80
3FFFC0
3FFFE0
7F9FE0
7F07F0
7E03F0
7E03F0
FC03F0
FC03F0
FC03F0
FC03F0
7E03F0
7E03F0
7F07F0
7F8FE0
3FFFE0
3FFFC0
1FFF80
07FF00
01FC00
ENDCHAR
STARTCHAR p
ENCODING 112
SWIDTH 585 0
DWIDTH 25 0
BBX 20 32 3 -10
BITMAP
F87C00
F9FF00
F9FF80
FFFFC0
FFFFE0
FF1FE0
FE07E0
FC07F0
FC03F0
FC03F0
FC03F0
FC03F0
FC03F0
FC03F0
FC03F0
FE07E0
FF0FE0
FFFFE0
FFFFC0
FDFF80
FDFF00
FC7C00
FC0000
FC0000
FC0000
FC0000
FC0000
FC0000
FC0000
FC0000
FC0000
FC0000
ENDCHAR
STARTCHAR q
ENCODING 113
SWIDTH 585 0
DWIDTH 25 0
BBX 20 32 2 -10
BITMAP
07E3F0
1FF3F0
3FFBF0
7FFBF0
7FFFF0
FF1FF0
FE07F0
FC07F0
FC03F0
FC03F0
FC03F0
F803F0
FC03F0
FC03F0
FC03F0
FE07F0
FF0FF0
7FFFF0
7FFBF0
3FFBF0
1FF3F0
07E3F0
0003F0
0003F0
0003F0
0003F0
0003F0
0003F0
0003F0
0003F0
0003F0
0003F0
ENDCHAR
STARTCHAR r
ENCODING 114
SWIDTH 585 0
DWIDTH 25 0
BBX 23 22 1 0
BITMAP
7FC3E0
7FCFF8
7FCFF8
7FDFFC
7FDFFC
07F8FE
07F07E
07E07E
07E07E
07E000
07E000
07C000
07C000
07C000
07C000
07C000
07C000
FFFF00
FFFF00
FFFF00
FFFF00
FFFF00
ENDCHAR
STARTCHAR s
ENCODING 115
SWIDTH 585 0
DWIDTH 25 0
BBX 19 22 3 0
BITMAP
01FFC0
0FFFC0
3FFFC0
7FFFC0
7FFFC0
FF0000
FC0000
FC0000
FF8000
7FF800
3FFF00
1FFF80
03FFC0
003FC0
000FE0
0007E0
F01FE0
FFFFC0
FFFFC0
FFFF80
FFFF00
7FF800
ENDCHAR
STARTCHAR t
ENCODING 116
SWIDTH 585 0
DWIDTH 25 0
BBX 21 29 1 0
BITMAP
07E000
07E000
07E000
07E000
07E000
07E000
07E000
FFFFF0
FFFFF0
FFFFF0
FFFFF0
FFFFF0
07E000
07E000
07E000
07E000
07E000
07E000
07E000
07E000
07E000
07E000
03F000
03FC08
03FFF8
01FFF8
00FFF8
007FF8
001FF8
ENDCHAR
STARTCHAR u
ENCODING 117
SWIDTH 585 0
DWIDTH 25 0
BBX 21 22 3 0
BITMAP
F80FC0
F80FC0
F80FC0
F80FC0
F80FC0
F80FC0
F80FC0
F80FC0
F80FC0
F80FC0
F80FC0
F80FC0
F80FC0
F80FC0
F80FC0
FC1FC0
FE3FC0
FFFFF8
FFEFF8
7FE7F8
3FC7F8
1F87F8
ENDCHAR
STARTCHAR v
ENCODING 118
SWIDTH 585 0
DWIDTH 25 0
BBX 22 22 1 0
BITMAP
FC00FC
7C00FC
7E00F8
7E00F8
3E01F8
3F01F0
3F01F0
1F03F0
1F83E0
0F83E0
0F87E0
0F87C0
07C7C0
07C7C0
07CF80
03EF80
03EF80
03FF00
01FF00
01FF00
01FE00
00FE00
ENDCHAR
STARTCHAR w
ENCODING 119
SWIDTH 585 0
DWIDTH 25 0
BBX 23 22 1 0
BITMAP
FC787E
FC787C
FC787C
FC7C7C
FCFC7C
FCFC7C
7CFC7C
7CFC7C
7CEC7C
7CCEFC
7CCEFC
7DCEF8
7DCEF8
7DCEF8
7DCEF8
7DC6F8
7DC7F8
7F87F8
7F87F8
7F87F8
7F87F8
7F87F8
ENDCHAR
STARTCHAR x
ENCODING 120
SWIDTH 585 0
DWIDTH 25 0
BBX 21 22 2 0
BITMAP
FE03F8
7E07F0
7F07E0
3F0FC0
1F8FC0
0F9F80
0FDF00
07FE00
03FE00
03FC00
01F800
01F800
01FC00
03FE00
07FE00
0FFF00
0F9F80
1F8FC0
3F0FC0
7F07E0
7E07F0
FE03F8
ENDCHAR
STARTCHAR y
ENCODING 121
SWIDTH 585 0
DWIDTH 25 0
BBX 22 32 1 -10
BITMAP
FC00FC
FC00FC
7C00F8
7E01F8
7E01F8
3E01F8
3F01F0
3F03F0
1F03F0
1F83E0
1F87E0
0F87E0
0FC7C0
0FC7C0
07CFC0
07EF80
07EF80
03FF80
03FF80
03FF00
01FF00
01FF00
003E00
007E00
00FC00
01FC00
0FF800
FFF000
FFE000
FFC000
FF0000
E00000
ENDCHAR
STARTCHAR z
ENCODING 122
SWIDTH 585 0
DWIDTH 25 0
BBX 18 22 3 0
BITMAP
FFFFC0
FFFFC0
FFFFC0
FFFFC0
FFFFC0
001F80
003F00
007E00
00FE00
01FC00
03F800
07F000
07E000
0FC000
1F8000
3F0000
7F0000
FFFFC0
FFFFC0
FFFFC0
FFFFC0
FFFFC0
ENDCHAR
STARTCHAR braceleft
ENCODING 123
SWIDTH 585 0
DWIDTH 25 0
BBX 16 37 5 -4
BITMAP
00FF
01FE
03FE
07FE
07FE
07E0
07E0
07C0
07C0
07C0
07C0
07E0
03E0
07E0
07E0
1FE0
FFC0
FF80
FC00
FF80
FFC0
1FE0
07E0
03E0
03E0
07E0
07E0
07C0
07C0
07C0
07E0
07F0
07FE
07FE
03FE
01FE
007F
ENDCHAR
STARTCHAR bar
ENCODING 124
SWIDTH 585 0
DWIDTH 25 0
BBX 5 42 10 -6
BITMAP
F8
F8
F8
F8
F8
F8
F8
F8
F8
F8
F8
F8
F8
F8
F8
F8
F8
F8
F8
F8
F8
F8
F8
F8
F8
F8
F8
F8
F8
F8
F8
F8
F8
F8
F8
F8
F8
F8
F8
F8
F8
F8
ENDCHAR
STARTCHAR braceright
ENCODING 125
SWIDTH 585 0
DWIDTH 25 0
BBX 16 37 4 -4
BITMAP
FE00
FF80
FFC0
FFC0
FFE0
0FE0
07E0
07E0
07E0
07E0
07C0
07C0
07C0
07C0
07E0
07F8
07FF
01FF
003F
01FF
07FF
07F0
07E0
07C0
07C0
07C0
07C0
07E0
07E0
07E0
07E0
0FE0
FFE0
FFC0
FFC0
FF80
FE00
ENDCHAR
STARTCHAR asciitilde
ENCODING 126
SWIDTH 585 0
DWIDTH 25 0
BBX 21 10 2 10
BITMAP
0001F8
1F01F8
7FC1F8
FFF1F8
FFFFF8
FFFFF8
FFFFF8
F87FF0
F81FF0
F807C0
ENDCHAR
STARTCHAR uni00A0
ENCODING 160
SWIDTH 585 0
DWIDTH 25 0
BBX 1 1 0 0
BITMAP
00
ENDCHAR
STARTCHAR exclamdown
ENCODING 161
SWIDTH 585 0
DWIDTH 25 0
BBX 7 30 9 -8
BITMAP
78
FC
FE
FE
FE
FE
7C
00
00
00
00
00
7C
7C
7C
7C
FC
FC
FC
FC
FC
FC
FC
FC
FC
FC
FC
FC
FC
FC
ENDCHAR
STARTCHAR cent
ENCODING 162
SWIDTH 585 0
DWIDTH 25 0
BBX 21 35 2 -6
BITMAP
007C00
007C00
007C00
007C00
007C00
007C00
007C00
01FF80
07FFE0
1FFFF0
1FFFF0
3FFFF8
7FFFF0
7F7CE0
7E7C40
7E7C00
FC7C00
FC7C00
FC7C00
7E7C00
7E7C00
7E7C00
7FFC00
3FFC20
3FFFE0
1FFFE0
0FFFF0
03FFF0
00FFE0
007C00
007C00
007C00
007C00
007C00
007C00
ENDCHAR
STARTCHAR sterling
ENCODING 163
SWIDTH 585 0
DWIDTH 25 0
BBX 21 29 2 0
BITMAP
007F80
01FFE0
03FFF0
07FFF8
0FFFF8
0FF1F0
0FC0E0
0FC040
0F8000
0F8000
0F8000
0F8000
0F8000
FFFF00
FFFF00
FFFF00
FFFF00
FFFF00
1F8000
1F8000
1F0000
3F0000
7E0000
7C0000
FFFFF8
FFFFF8
FFFFF8
FFFFF8
FFFFF8
ENDCHAR
STARTCHAR currency
ENCODING 164
SWIDTH 585 0
DWIDTH 25 0
BBX 23 23 1 3
BITMAP
100030
380038
7C007E
FEFEFC
3FFFF8
1FFFF0
0FFFE0
1FFFF0
1F83F0
3F03F0
3F01F0
3F01F0
3F01F0
1F03F0
1F83F0
1FFFF0
0FFFE0
1FFFF0
3FFFF8
7EFEFC
FC007C
780038
300010
ENDCHAR
STARTCHAR yen
ENCODING 165
SWIDTH 585 0
DWIDTH 25 0
BBX 24 29 0 0
BITMAP
FC003F
7E003F
7E007E
3F007E
3F00FC
1F80FC
1F80F8
0FC1F8
0FC1F0
07C3F0
07E3E0
03E7E0
03F7C0
01FFC0
01FF80
1FFFFC
1FFFFC
1FFFFC
1FFFFC
1FFFFC
003E00
003E00
1FFFFC
1FFFFC
1FFFFC
1FFFFC
1FFFFC
003E00
003E00
ENDCHAR
STARTCHAR brokenbar
ENCODING 166
SWIDTH 585 0
DWIDTH 25 0
BBX 5 42 10 -6
BITMAP
F8
F8
F8
F8
F8
F8
F8
F8
F8
F8
F8
F8
F8
F8
F8
F8
F8
F8
00
00
00
00
00
00
F8
F8
F8
F8
F8
F8
F8
F8
F8
F8
F8
F8
F8
F8
F8
F8
F8
F8
ENDCHAR
STARTCHAR section
ENCODING 167
SWIDTH 585 0
DWIDTH 25 0
BBX 23 36 1 -4
BITMAP
01FFE0
07FFE0
1FFFE0
1FFFE0
3FFFE0
3F8000
3F0000
3F0000
3FC000
1FF800
0FFF80
01FFE0
007FF0
1FFFF8
3FFFFC
7E01FC
FC007C
FC007E
FC007E
FC00FC
FF01FC
7FFFF8
7FFFF0
3FFF00
1FFF80
03FFE0
003FF0
0003F0
0001F0
0001F8
3807F0
3FFFF0
3FFFF0
3FFFE0
3FFFC0
1FFE00
ENDCHAR
STARTCHAR dieresis
ENCODING 168
SWIDTH 585 0
DWIDTH 25 0
BBX 16 6 4 25
BITMAP
7C1E
7E3F
FE3F
7E3F
7C3F
381E
ENDCHAR
STARTCHAR copyright
ENCODING 169
SWIDTH 585 0
DWIDTH 25 0
BBX 24 28 0 0
BITMAP
01FF80
03FFE0
0FFFF0
1FFFF8
1FC1FC
3F007E
7E003E
7C3F3E
7C7FDF
78FF9F
F9FF9F
F9F10F
FBE00F
FBE00F
FBE00F
FBE00F
F9F08F
F9FF9F
78FF9F
7C7F9F
7C3FBE
3E003E
3F00FE
1FE3FC
1FFFF8
0FFFF0
03FFE0
00FF00
ENDCHAR
STARTCHAR ordfeminine
ENCODING 170
SWIDTH 585 0
DWIDTH 25 0
BBX 16 13 4 16
BITMAP
3FC0
3FF0
3FF8
3FF8
0078
1FF8
7FF8
7FF8
F878
F9FF
FF7F
7F7F
3E7F
ENDCHAR
STARTCHAR guillemotleft
ENCODING 171
SWIDTH 585 0
DWIDTH 25 0
BBX 22 20 1 1
BITMAP
008020
01C070
03E0FC
07F1FC
0FE3F8
1FC7F0
3F8FE0
7F1FC0
FE3F80
FC3F00
FC3F00
FE3F80
7F1FC0
3F0FE0
1F87F0
0FC3F8
0FE1F8
07F0FC
03E078
01C030
ENDCHAR
STARTCHAR logicalnot
ENCODING 172
SWIDTH 585 0
DWIDTH 25 0
BBX 21 12 2 7
BITMAP
FFFFF8
FFFFF8
FFFFF8
FFFFF8
FFFFF8
0000F8
0000F8
0000F8
0000F8
0000F8
0000F8
0000F8
ENDCHAR
STARTCHAR uni00AD
ENCODING 173
SWIDTH 585 0
DWIDTH 25 0
BBX 21 5 2 12
BITMAP
FFFFF8
FFFFF8
FFFFF8
FFFFF8
FFFFF8
ENDCHAR
STARTCHAR registered
ENCODING 174
SWIDTH 585 0
DWIDTH 25 0
BBX 24 28 0 0
BITMAP
01FF80
03FFE0
0FFFF0
1FFFF8
1FC1FC
3F007E
7E003E
7DFE3E
7DFF9F
79FF9F
F9F7DF
F9F3CF
F9F3CF
F9FFCF
F9FF8F
F9FF0F
F9F78F
F9F79F
79F7DF
7DF3DF
7C003E
3E003E
3F00FE
1FE3FC
1FFFF8
0FFFF0
03FFE0
00FF00
ENDCHAR
STARTCHAR macron
ENCODING 175
SWIDTH 585 0
DWIDTH 25 0
BBX 18 5 3 25
BITMAP
FFFFC0
FFFFC0
FFFFC0
FFFFC0
FFFFC0
ENDCHAR
STARTCHAR degree
ENCODING 176
SWIDTH 585 0
DWIDTH 25 0
BBX 16 15 4 14
BITMAP
07F0
1FFC
3FFE
7FFE
7E3F
FC1F
F81F
F80F
F81F
FC1F
7E3F
7FFE
3FFE
1FF8
07E0
ENDCHAR
STARTCHAR plusminus
ENCODING 177
SWIDTH 585 0
DWIDTH 25 0
BBX 21 22 2 3
BITMAP
00F800
00F800
00F800
00F800
00F800
00F800
00F800
FFFFF8
FFFFF8
FFFFF8
FFFFF8
FFFFF8
00F800
00F800
00F800
00F800
00F800
FFFFF8
FFFFF8
FFFFF8
FFFFF8
FFFFF8
ENDCHAR
STARTCHAR uni00B2
ENCODING 178
SWIDTH 585 0
DWIDTH 25 0
BBX 12 13 6 16
BITMAP
3F80
FFE0
7FE0
7FF0
23F0
03E0
07C0
0F80
7F00
7FF0
7FF0
7FF0
7FF0
ENDCHAR
STARTCHAR uni00B3
ENCODING 179
SWIDTH 585 0
DWIDTH 25 0
BBX 11 13 7 16
BITMAP
FF80
FFC0
FFE0
FFC0
07C0
3F00
3E00
3FC0
03E0
FFE0
FFE0
FFC0
FF00
ENDCHAR
STARTCHAR acute
ENCODING 180
SWIDTH 585 0
DWIDTH 25 0
BBX 10 8 8 25
BITMAP
0FC0
1F80
1F80
3F00
3F00
7E00
7E00
FC00
ENDCHAR
STARTCHAR uni00B5
ENCODING 181
SWIDTH 585 0
DWIDTH 25 0
BBX 21 31 3 -9
BITMAP
F80FC0
F80FC0
F80FC0
F80FC0
F80FC0
F80FC0
F80FC0
F80FC0
F80FC0
F80FC0
F80FC0
F80FC0
F80FC0
F80FC0
FC0FC0
FC1FC0
FF3FC0
FFF7F8
FFF7F8
FBF7F8
FBE7F8
F9C7F8
F80000
F80000
F80000
F80000
F80000
F80000
F80000
F80000
FC0000
ENDCHAR
STARTCHAR paragraph
ENCODING 182
SWIDTH 585 0
DWIDTH 25 0
BBX 24 29 0 0
BITMAP
01FFFF
0FFFFF
1FFFFF
3FFFFF
7FFFFF
7FFC7C
7FFC7C
FFFC7C
FFFC7C
FFFC7C
FFFC7C
7FFC7C
7FFC7C
7FFC7C
3FFC7C
1FFC7C
0FFC7C
03FC7C
007C7C
007C7C
007C7C
007C7C
007C7C
007C7C
007C7C
007C7C
007C7C
007C7C
007C7C
ENDCHAR
STARTCHAR periodcentered
ENCODING 183
SWIDTH 585 0
DWIDTH 25 0
BBX 7 7 9 11
BITMAP
7C
FE
FE
FE
FE
FC
78
ENDCHAR
STARTCHAR cedilla
ENCODING 184
SWIDTH 585 0
DWIDTH 25 0
BBX 9 10 8 -10
BITMAP
3C00
7C00
7C00
FF00
1F00
1F80
3F00
FF00
FE00
F800
ENDCHAR
STARTCHAR uni00B9
ENCODING 185
SWIDTH 585 0
DWIDTH 25 0
BBX 11 13 7 16
BITMAP
3F00
FF00
FF00
FF00
FF00
8F00
0F00
0F00
0F00
FFE0
FFE0
FFE0
FFE0
ENDCHAR
STARTCHAR ordmasculine
ENCODING 186
SWIDTH 585 0
DWIDTH 25 0
BBX 15 13 5 16
BITMAP
0FC0
3FF0
7FF8
7FFC
FC7C
F87E
F87E
F87E
FC7C
7FFC
7FF8
3FF0
0FE0
ENDCHAR
STARTCHAR guillemotright
ENCODING 187
SWIDTH 585 0
DWIDTH 25 0
BBX 23 20 1 1
BITMAP
180200
3C0F00
7E1F80
FF1FC0
3F8FE0
1FC7F0
0FE3F8
07F1FC
03F0FE
01F87E
01F87E
03F8FE
07F1FC
0FE3F8
1FC7F0
3F8FE0
7F1FC0
FE1F80
3C0F00
180600
ENDCHAR
STARTCHAR onequarter
ENCODING 188
SWIDTH 585 0
DWIDTH 25 0
BBX 22 29 1 0
BITMAP
1F0000
FF0000
FF0000
FF0000
FF0000
8F0000
0F0000
0F0030
0F0078
FFF0FC
FFF3F8
FFF7F0
FFFFC0
003F80
007E00
01FC00
03F878
07FF78
1FDE78
3F1E78
7E1E78
3C1E78
301E78
001FFC
001FFC
003FFC
003FFC
000078
000078
ENDCHAR
STARTCHAR onehalf
ENCODING 189
SWIDTH 585 0
DWIDTH 25 0
BBX 23 29 1 0
BITMAP
1F0000
FF0000
FF0000
FF0000
FF0000
8F0000
0F0000
0F0030
0F0078
FFF0FC
FFF3F8
FFF7F0
FFFFC0
003F80
007E00
01FC00
03F7F0
0FFFF8
1FDFFC
3F0FFC
7E0CFC
3C007C
3000F8
0003E0
001FC0
001FFE
001FFE
001FFE
001FFE
ENDCHAR
STARTCHAR threequarters
ENCODING 190
SWIDTH 585 0
DWIDTH 25 0
BBX 21 30 2 0
BITMAP
1C0000
FFC000
FFC000
FFE000
83C000
07C000
3F0000
3E0000
3FC070
03E0F0
FFE1F8
FFE7F0
FFCFC0
FF3F80
007F00
00FC00
03F800
07E0F0
1FDEF0
3FBCF0
7E3CF0
FC3CF0
783CF0
603CF0
003FF8
003FF8
007FF8
007FF8
0000F0
0000F0
ENDCHAR
STARTCHAR questiondown
ENCODING 191
SWIDTH 585 0
DWIDTH 25 0
BBX 19 30 4 -8
BITMAP
01E000
03F000
03F800
07F800
07F800
03F000
01F000
000000
000000
000000
03F000
03F000
03F000
03F000
07F000
0FE000
3FC000
3F8000
7F0000
FE0000
FC0000
FC0100
FC0180
FC0780
FE1FC0
FFFFE0
FFFFC0
7FFF00
3FFE00
0FF000
ENDCHAR
STARTCHAR Agrave
ENCODING 192
SWIDTH 585 0
DWIDTH 25 0
BBX 23 38 1 0
BITMAP
1FC000
0FE000
07F000
03F800
01FC00
00FE00
000000
000000
000000
00FE00
00FE00
01FE00
01FF00
01FF00
03FF00
03FF80
03EF80
03EF80
07EF80
07CFC0
07C7C0
0FC7C0
0FC7E0
0F87E0
1F83E0
1F83E0
1F83F0
1F03F0
3FFFF0
3FFFF8
3FFFF8
7FFFF8
7FFFF8
7E00FC
7C00FC
FC00FC
FC007E
FC007E
ENDCHAR
STARTCHAR Aacute
ENCODING 193
SWIDTH 585 0
DWIDTH 25 0
BBX 23 38 1 0
BITMAP
0007F0
000FE0
001FC0
003F80
007F00
00FE00
000000
000000
000000
00FE00
00FE00
01FE00
01FF00
01FF00
03FF00
03FF80
03EF80
03EF80
07EF80
07CFC0
07C7C0
0FC7C0
0FC7E0
0F87E0
1F83E0
1F83E0
1F83F0
1F03F0
3FFFF0
3FFFF8
3FFFF8
7FFFF8
7FFFF8
7E00FC
7C00FC
FC00FC
FC007E
FC007E
ENDCHAR
STARTCHAR Acircumflex
ENCODING 194
SWIDTH 585 0
DWIDTH 25 0
BBX 23 37 1 0
BITMAP
00FE00
01FF00
03FF80
07EFC0
0FC7E0
000000
000000
000000
00FE00
00FE00
01FE00
01FF00
01FF00
03FF00
03FF80
03EF80
03EF80
07EF80
07CFC0
07C7C0
0FC7C0
0FC7E0
0F87E0
1F83E0
1F83E0
1F83F0
1F03F0
3FFFF0
3FFFF8
3FFFF8
7FFFF8
7FFFF8
7E00FC
7C00FC
FC00FC
FC007E
FC007E
ENDCHAR
STARTCHAR Atilde
ENCODING 195
SWIDTH 585 0
DWIDTH 25 0
BBX 23 39 1 0
BITMAP
0183F0
07F3F0
0FFFF0
0FFFE0
1FFFE0
1F8FC0
1F8000
000000
000000
000000
00FE00
00FE00
01FE00
01FF00
01FF00
03FF00
03FF80
03EF80
03EF80
07EF80
07CFC0
07C7C0
0FC7C0
0FC7E0
0F87E0
1F83E0
1F83E0
1F83F0
1F03F0
3FFFF0
3FFFF8
3FFFF8
7FFFF8
7FFFF8
7E00FC
7C00FC
FC00FC
FC007E
FC007E
ENDCHAR
STARTCHAR Adieresis
ENCODING 196
SWIDTH 585 0
DWIDTH 25 0
BBX 23 39 1 0
BITMAP
0701C0
1F87E0
1FC7F0
1FC7F0
1FC7F0
1F87E0
0703C0
000000
000000
000000
00FE00
00FE00
01FE00
01FF00
01FF00
03FF00
03FF80
03EF80
03EF80
07EF80
07CFC0
07C7C0
0FC7C0
0FC7E0
0F87E0
1F83E0
1F83E0
1F83F0
1F03F0
3FFFF0
3FFFF8
3FFFF8
7FFFF8
7FFFF8
7E00FC
7C00FC
FC00FC
FC007E
FC007E
ENDCHAR
STARTCHAR Aring
ENCODING 197
SWIDTH 585 0
DWIDTH 25 0
BBX 23 39 1 0
BITMAP
00FC00
01FF00
03FF80
07C780
07C780
07C780
03FF80
01FF00
00FC00
000000
00FE00
00FE00
01FE00
01FF00
01FF00
03FF00
03FF80
03EF80
03EF80
07EF80
07CFC0
07C7C0
0FC7C0
0FC7E0
0F87E0
1F83E0
1F83E0
1F83F0
1F03F0
3FFFF0
3FFFF8
3FFFF8
7FFFF8
7FFFF8
7E00FC
7C00FC
FC00FC
FC007E
FC007E
ENDCHAR
STARTCHAR AE
ENCODING 198
SWIDTH 585 0
DWIDTH 25 0
BBX 22 29 1 0
BITMAP
03FFFC
03FFFC
03FFFC
03FFFC
07FFFC
07DF00
07DF00
079F00
0F9F00
0F9F00
0F9F00
0F9F00
1F1FF8
1F1FF8
1F1FF8
1F1FF8
3F1FF8
3E1F00
3E1F00
3E1F00
3E1F00
7FFF00
7FFF00
7FFF00
7FFFFC
FFFFFC
FC1FFC
F81FFC
F81FFC
ENDCHAR
STARTCHAR Ccedilla
ENCODING 199
SWIDTH 585 0
DWIDTH 25 0
BBX 22 39 1 -10
BITMAP
003FC0
01FFF0
07FFF8
0FFFFC
1FFFFC
1FE0F8
3F8030
3F0010
7E0000
7E0000
7E0000
7C0000
FC0000
FC0000
FC0000
FC0000
FC0000
7C0000
7E0000
7E0000
7F0000
7F0000
3FC000
3FF038
1FFFF8
0FFFF8
07FFFC
01FFFC
003FE0
003E00
003C00
003E00
007F80
000F80
000F80
001F80
007F80
007F00
007800
ENDCHAR
STARTCHAR Egrave
ENCODING 200
SWIDTH 585 0
DWIDTH 25 0
BBX 20 38 3 0
BITMAP
7F8000
3FC000
0FE000
07E000
03F000
01F800
000000
000000
000000
FFFFF0
FFFFF0
FFFFF0
FFFFF0
FFFFF0
F80000
F80000
F80000
F80000
F80000
F80000
F80000
FFFF00
FFFF00
FFFF00
FFFF00
FFFF00
F80000
F80000
F80000
F80000
F80000
F80000
F80000
FFFFF0
FFFFF0
FFFFF0
FFFFF0
FFFFF0
ENDCHAR
STARTCHAR Eacute
ENCODING 201
SWIDTH 585 0
DWIDTH 25 0
BBX 20 38 3 0
BITMAP
001FE0
003FC0
003F80
007F00
00FE00
01F800
000000
000000
000000
FFFFF0
FFFFF0
FFFFF0
FFFFF0
FFFFF0
F80000
F80000
F80000
F80000
F80000
F80000
F80000
FFFF00
FFFF00
FFFF00
FFFF00
FFFF00
F80000
F80000
F80000
F80000
F80000
F80000
F80000
FFFFF0
FFFFF0
FFFFF0
FFFFF0
FFFFF0
ENDCHAR
STARTCHAR Ecircumflex
ENCODING 202
SWIDTH 585 0
DWIDTH 25 0
BBX 20 37 3 0
BITMAP
03F800
07FC00
0FFE00
0F9F00
3F9FC0
000000
000000
000000
FFFFF0
FFFFF0
FFFFF0
FFFFF0
FFFFF0
F80000
F80000
F80000
F80000
F80000
F80000
F80000
FFFF00
FFFF00
FFFF00
FFFF00
FFFF00
F80000
F80000
F80000
F80000
F80000
F80000
F80000
FFFFF0
FFFFF0
FFFFF0
FFFFF0
FFFFF0
ENDCHAR
STARTCHAR Edieresis
ENCODING 203
SWIDTH 585 0
DWIDTH 25 0
BBX 20 39 3 0
BITMAP
1E0780
3F0FC0
3F0FC0
7F1FC0
3F0FC0
3F0FC0
1E0780
000000
000000
000000
FFFFF0
FFFFF0
FFFFF0
FFFFF0
FFFFF0
F80000
F80000
F80000
F80000
F80000
F80000
F80000
FFFF00
FFFF00
FFFF00
FFFF00
FFFF00
F80000
F80000
F80000
F80000
F80000
F80000
F80000
FFFFF0
FFFFF0
FFFFF0
FFFFF0
FFFFF0
ENDCHAR
STARTCHAR Igrave
ENCODING 204
SWIDTH 585 0
DWIDTH 25 0
BBX 19 38 3 0
BITMAP
7F0000
3F8000
1FC000
0FE000
07F000
03F800
000000
000000
000000
FFFFE0
FFFFE0
FFFFE0
FFFFE0
FFFFE0
01F000
01F000
01F000
01F000
01F000
01F000
01F000
01F000
01F000
01F000
01F000
01F000
01F000
01F000
01F000
01F000
01F000
01F000
01F000
FFFFE0
FFFFE0
FFFFE0
FFFFE0
FFFFE0
ENDCHAR
STARTCHAR Iacute
ENCODING 205
SWIDTH 585 0
DWIDTH 25 0
BBX 19 38 3 0
BITMAP
001FC0
003F80
007F00
00FE00
01FC00
03F800
000000
000000
000000
FFFFE0
FFFFE0
FFFFE0
FFFFE0
FFFFE0
01F000
01F000
01F000
01F000
01F000
01F000
01F000
01F000
01F000
01F000
01F000
01F000
01F000
01F000
01F000
01F000
01F000
01F000
01F000
FFFFE0
FFFFE0
FFFFE0
FFFFE0
FFFFE0
ENDCHAR
STARTCHAR Icircumflex
ENCODING 206
SWIDTH 585 0
DWIDTH 25 0
BBX 19 37 3 0
BITMAP
03F800
07FC00
0FFE00
1FBF00
3F1F80
000000
000000
000000
FFFFE0
FFFFE0
FFFFE0
FFFFE0
FFFFE0
01F000
01F000
01F000
01F000
01F000
01F000
01F000
01F000
01F000
01F000
01F000
01F000
01F000
01F000
01F000
01F000
01F000
01F000
01F000
FFFFE0
FFFFE0
FFFFE0
FFFFE0
FFFFE0
ENDCHAR
STARTCHAR Idieresis
ENCODING 207
SWIDTH 585 0
DWIDTH 25 0
BBX 19 39 3 0
BITMAP
1C0700
7E1F80
7F1FC0
7F1FC0
7F1FC0
7E1F80
1C0F00
000000
000000
000000
FFFFE0
FFFFE0
FFFFE0
FFFFE0
FFFFE0
01F000
01F000
01F000
01F000
01F000
01F000
01F000
01F000
01F000
01F000
01F000
01F000
01F000
01F000
01F000
01F000
01F000
01F000
01F000
FFFFE0
FFFFE0
FFFFE0
FFFFE0
FFFFE0
ENDCHAR
STARTCHAR Eth
ENCODING 208
SWIDTH 585 0
DWIDTH 25 0
BBX 24 29 0 0
BITMAP
1FFE00
1FFF80
1FFFE0
1FFFF0
1FFFF8
1F07F8
1F01FC
1F00FC
1F007E
1F007E
1F007E
1F003E
FFF83F
FFF83F
FFF83F
FFF83F
FFF83F
1F003E
1F007E
1F007E
1F007E
1F00FE
1F01FC
1F07FC
1FFFF8
1FFFF0
1FFFE0
1FFF80
1FFC00
ENDCHAR
STARTCHAR Ntilde
ENCODING 209
SWIDTH 585 0
DWIDTH 25 0
BBX 19 39 3 0
BITMAP
060FC0
1FCFC0
3FFFC0
3FFF80
7FFF80
7E3F00
7E0000
000000
000000
000000
FF03E0
FF03E0
FF03E0
FF83E0
FF83E0
FF83E0
FB83E0
FBC3E0
FBC3E0
FBC3E0
F9C3E0
F9C3E0
F9E3E0
F9E3E0
F8E3E0
F8E3E0
F8F3E0
F8F3E0
F8F3E0
F873E0
F873E0
F87BE0
F87BE0
F83FE0
F83FE0
F83FE0
F83FE0
F83FE0
F81FE0
ENDCHAR
STARTCHAR Ograve
ENCODING 210
SWIDTH 585 0
DWIDTH 25 0
BBX 22 38 1 0
BITMAP
1FC000
0FE000
07F000
03F800
01FC00
00FE00
000000
000000
000000
00FE00
07FF80
0FFFE0
1FFFE0
3FFFF0
3F87F8
7F01F8
7E01F8
7E00FC
7E00FC
FC00FC
FC007C
FC007C
FC007C
FC007C
FC007C
FC007C
FC007C
FC00FC
7C00FC
7E00FC
7E01FC
7F01F8
3F87F8
3FFFF0
1FFFF0
0FFFE0
07FF80
01FE00
ENDCHAR
STARTCHAR Oacute
ENCODING 211
SWIDTH 585 0
DWIDTH 25 0
BBX 22 38 1 0
BITMAP
0007F0
000FE0
001FC0
003F80
007F00
00FE00
000000
000000
000000
00FE00
07FF80
0FFFE0
1FFFE0
3FFFF0
3F87F8
7F01F8
7E01F8
7E00FC
7E00FC
FC00FC
FC007C
FC007C
FC007C
FC007C
FC007C
FC007C
FC007C
FC00FC
7C00FC
7E00FC
7E01FC
7F01F8
3F87F8
3FFFF0
1FFFF0
0FFFE0
07FF80
01FE00
ENDCHAR
STARTCHAR Ocircumflex
ENCODING 212
SWIDTH 585 0
DWIDTH 25 0
BBX 22 37 1 0
BITMAP
00FE00
01FF00
03FF80
07EFC0
0FC7E0
000000
000000
000000
00FE00
07FF80
0FFFE0
1FFFE0
3FFFF0
3F87F8
7F01F8
7E01F8
7E00FC
7E00FC
FC00FC
FC007C
FC007C
FC007C
FC007C
FC007C
FC007C
FC007C
FC00FC
7C00FC
7E00FC
7E01FC
7F01F8
3F87F8
3FFFF0
1FFFF0
0FFFE0
07FF80
01FE00
ENDCHAR
STARTCHAR Otilde
ENCODING 213
SWIDTH 585 0
DWIDTH 25 0
BBX 22 39 1 0
BITMAP
0183F0
07F3F0
0FFFF0
0FFFE0
1FFFE0
1F8FC0
1F8000
000000
000000
000000
00FE00
07FF80
0FFFE0
1FFFE0
3FFFF0
3F87F8
7F01F8
7E01F8
7E00FC
7E00FC
FC00FC
FC007C
FC007C
FC007C
FC007C
FC007C
FC007C
FC007C
FC00FC
7C00FC
7E00FC
7E01FC
7F01F8
3F87F8
3FFFF0
1FFFF0
0FFFE0
07FF80
01FE00
ENDCHAR
STARTCHAR Odieresis
ENCODING 214
SWIDTH 585 0
DWIDTH 25 0
BBX 22 39 1 0
BITMAP
0701C0
1F87E0
1FC7F0
1FC7F0
1FC7F0
1F87E0
0703C0
000000
000000
000000
00FE00
07FF80
0FFFE0
1FFFE0
3FFFF0
3F87F8
7F01F8
7E01F8
7E00FC
7E00FC
FC00FC
FC007C
FC007C
FC007C
FC007C
FC007C
FC007C
FC007C
FC00FC
7C00FC
7E00FC
7E01FC
7F01F8
3F87F8
3FFFF0
1FFFF0
0FFFE0
07FF80
01FE00
ENDCHAR
STARTCHAR multiply
ENCODING 215
SWIDTH 585 0
DWIDTH 25 0
BBX 20 20 2 4
BITMAP
180080
3C01C0
7E03E0
FF07F0
3F8FE0
1FDFC0
0FFF80
07FF00
07FE00
03FC00
03FC00
07FE00
0FFF00
1FFF80
3F9FC0
3F8FE0
FF07F0
7E03E0
3C01C0
180080
ENDCHAR
STARTCHAR Oslash
ENCODING 216
SWIDTH 585 0
DWIDTH 25 0
BBX 22 33 1 -2
BITMAP
000020
00007C
00FE78
07FFF8
0FFFF0
1FFFF0
3FFFF0
3F87F8
7F03F8
7E07F8
7E0FFC
7E0FFC
FC1FFC
FC1E7C
FC3E7C
FC3C7C
FC7C7C
FC787C
FCF07C
FCF07C
FDE0FC
7FE0FC
7FC0FC
7FC1FC
7F81F8
3F87F8
3FFFF0
1FFFF0
3FFFE0
3FFF80
7DFE00
F80000
380000
ENDCHAR
STARTCHAR Ugrave
ENCODING 217
SWIDTH 585 0
DWIDTH 25 0
BBX 19 38 3 0
BITMAP
7F0000
3F8000
1FC000
0FE000
07F000
03F800
000000
000000
000000
F803E0
F803E0
F803E0
F803E0
F803E0
F803E0
F803E0
F803E0
F803E0
F803E0
F803E0
F803E0
F803E0
F803E0
F803E0
F803E0
F803E0
F803E0
F803E0
F803E0
F803E0
F807E0
FC07E0
FE1FC0
FFFFC0
7FFFC0
3FFF80
1FFE00
07F800
ENDCHAR
STARTCHAR Uacute
ENCODING 218
SWIDTH 585 0
DWIDTH 25 0
BBX 19 38 3 0
BITMAP
001FC0
003F80
007F00
00FE00
01FC00
03F800
000000
000000
000000
F803E0
F803E0
F803E0
F803E0
F803E0
F803E0
F803E0
F803E0
F803E0
F803E0
F803E0
F803E0
F803E0
F803E0
F803E0
F803E0
F803E0
F803E0
F803E0
F803E0
F803E0
F807E0
FC07E0
FE1FC0
FFFFC0
7FFFC0
3FFF80
1FFE00
07F800
ENDCHAR
STARTCHAR Ucircumflex
ENCODING 219
SWIDTH 585 0
DWIDTH 25 0
BBX 19 37 3 0
BITMAP
03F800
07FC00
0FFE00
1FBF00
3F1F80
000000
000000
000000
F803E0
F803E0
F803E0
F803E0
F803E0
F803E0
F803E0
F803E0
F803E0
F803E0
F803E0
F803E0
F803E0
F803E0
F803E0
F803E0
F803E0
F803E0
F803E0
F803E0
F803E0
F807E0
FC07E0
FE1FC0
FFFFC0
7FFFC0
3FFF80
1FFE00
07F800
ENDCHAR
STARTCHAR Udieresis
ENCODING 220
SWIDTH 585 0
DWIDTH 25 0
BBX 19 39 3 0
BITMAP
1C0700
7E1F80
7F1FC0
7F1FC0
7F1FC0
7E1F80
1C0F00
000000
000000
000000
F803E0
F803E0
F803E0
F803E0
F803E0
F803E0
F803E0
F803E0
F803E0
F803E0
F803E0
F803E0
F803E0
F803E0
F803E0
F803E0
F803E0
F803E0
F803E0
F803E0
F803E0
F807E0
FC07E0
FE1FC0
FFFFC0
7FFFC0
3FFF80
1FFE00
07F800
ENDCHAR
STARTCHAR Yacute
ENCODING 221
SWIDTH 585 0
DWIDTH 25 0
BBX 24 38 0 0
BITMAP
0003F8
0007F0
000FE0
001FC0
003F80
007F00
000000
000000
000000
FC003F
7E003F
7E007E
3F007E
3F00FC
1F80FC
1F80F8
0FC1F8
0FC1F0
07C3F0
07E3E0
03E7E0
03F7C0
01FFC0
01FFC0
00FF80
00FF80
007F00
007F00
007E00
003E00
003E00
003E00
003E00
003E00
003E00
003E00
003E00
003E00
ENDCHAR
STARTCHAR Thorn
ENCODING 222
SWIDTH 585 0
DWIDTH 25 0
BBX 20 29 3 0
BITMAP
F80000
F80000
F80000
F80000
FFF800
FFFF00
FFFF80
FFFFC0
FFFFE0
F80FE0
F807F0
F803F0
F803F0
F803F0
F803F0
F803F0
F803F0
F803F0
F807F0
F80FE0
FFFFE0
FFFFC0
FFFF80
FFFE00
FFF800
F80000
F80000
F80000
F80000
ENDCHAR
STARTCHAR germandbls
ENCODING 223
SWIDTH 585 0
DWIDTH 25 0
BBX 23 31 1 0
BITMAP
00FF00
03FFC0
07FFE0
0FFFF0
0FFFF0
1FE7F0
1F83F0
1F83F0
1F83F0
1F83F0
1F87E0
1F87C0
1F8FC0
FF8F80
FF8F80
FF8F80
FF8FC0
FF8FE0
1F87E0
1F83F0
1F81F8
1F80FC
1F807E
1F807E
1F807E
1F987E
1F9FFE
1F9FFE
1F9FFC
1F9FF8
1F9FE0
ENDCHAR
STARTCHAR agrave
ENCODING 224
SWIDTH 585 0
DWIDTH 25 0
BBX 22 33 2 0
BITMAP
1F8000
0FC000
07C000
07E000
03E000
03F000
01F000
01F800
000000
000000
000000
1FF000
1FFE00
3FFF80
3FFF80
3FFFC0
001FE0
0007E0
0003E0
07FFE0
1FFFE0
7FFFE0
7FFFE0
FFFFE0
FC03E0
F807E0
F807E0
FC0FE0
FFFBFC
FFFBFC
7FFBFC
3FF3FC
0FC3FC
ENDCHAR
STARTCHAR aacute
ENCODING 225
SWIDTH 585 0
DWIDTH 25 0
BBX 22 33 2 0
BITMAP
001F80
003F00
003F00
007E00
007C00
00FC00
00F800
01F800
000000
000000
000000
1FF000
1FFE00
3FFF80
3FFF80
3FFFC0
001FE0
0007E0
0003E0
07FFE0
1FFFE0
7FFFE0
7FFFE0
FFFFE0
FC03E0
F807E0
F807E0
FC0FE0
FFFBFC
FFFBFC
7FFBFC
3FF3FC
0FC3FC
ENDCHAR
STARTCHAR acircumflex
ENCODING 226
SWIDTH 585 0
DWIDTH 25 0
BBX 22 33 2 0
BITMAP
01F800
03FC00
03FC00
07FE00
0FFF00
0F9F00
1F9F80
3F0FC0
000000
000000
000000
1FF000
1FFE00
3FFF80
3FFF80
3FFFC0
001FE0
0007E0
0003E0
07FFE0
1FFFE0
7FFFE0
7FFFE0
FFFFE0
FC03E0
F807E0
F807E0
FC0FE0
FFFBFC
FFFBFC
7FFBFC
3FF3FC
0FC3FC
ENDCHAR
STARTCHAR atilde
ENCODING 227
SWIDTH 585 0
DWIDTH 25 0
BBX 22 33 2 0
BITMAP
0707C0
1FC7C0
1FFFC0
3FFFC0
3FFFC0
3E3F80
3E0F00
000000
000000
000000
000000
1FF000
1FFE00
3FFF80
3FFF80
3FFFC0
001FE0
0007E0
0003E0
07FFE0
1FFFE0
7FFFE0
7FFFE0
FFFFE0
FC03E0
F807E0
F807E0
FC0FE0
FFFBFC
FFFBFC
7FFBFC
3FF3FC
0FC3FC
ENDCHAR
STARTCHAR adieresis
ENCODING 228
SWIDTH 585 0
DWIDTH 25 0
BBX 22 31 2 0
BITMAP
1F0F80
3F0FC0
3F9FC0
3F1FC0
1F0F80
0E0700
000000
000000
000000
1FF000
1FFE00
3FFF80
3FFF80
3FFFC0
001FE0
0007E0
0003E0
07FFE0
1FFFE0
7FFFE0
7FFFE0
FFFFE0
FC03E0
F807E0
F807E0
FC0FE0
FFFBFC
FFFBFC
7FFBFC
3FF3FC
0FC3FC
ENDCHAR
STARTCHAR aring
ENCODING 229
SWIDTH 585 0
DWIDTH 25 0
BBX 22 33 2 0
BITMAP
01F800
07FE00
07FE00
0F9F00
0F1F00
0F9F00
07FE00
07FC00
01F800
000000
000000
1FF000
1FFE00
3FFF80
3FFF80
3FFFC0
001FE0
0007E0
0003E0
07FFE0
1FFFE0
7FFFE0
7FFFE0
FFFFE0
FC03E0
F807E0
F807E0
FC0FE0
FFFBFC
FFFBFC
7FFBFC
3FF3FC
0FC3FC
ENDCHAR
STARTCHAR ae
ENCODING 230
SWIDTH 585 0
DWIDTH 25 0
BBX 24 22 0 0
BITMAP
1F00F8
1FC1FC
1FE3FE
3FF7FE
3FF7FF
01FF3F
007E1F
003E1F
003E1F
07FFFF
1FFFFF
7FFFFF
7FFFFF
FC3E00
FC3F00
F83F80
FC77C0
FFF7FE
FFF7FE
7FE3FE
3FC1FE
1F807F
ENDCHAR
STARTCHAR ccedilla
ENCODING 231
SWIDTH 585 0
DWIDTH 25 0
BBX 21 32 2 -10
BITMAP
00FF00
07FFC0
0FFFE0
1FFFF0
3FFFF8
3FC7F0
7F01E0
7E00C0
7E0000
FC0000
FC0000
FC0000
FC0000
7E0000
7E0000
7F0000
3FC020
3FFFE0
1FFFE0
0FFFE0
03FFF0
00FFF0
007800
007800
00FC00
00FE00
003F00
001F00
003F00
01FF00
01FE00
01F000
ENDCHAR
STARTCHAR egrave
ENCODING 232
SWIDTH 585 0
DWIDTH 25 0
BBX 20 33 2 0
BITMAP
0FC000
07C000
07E000
03E000
03F000
01F000
01F800
00FC00
000000
000000
000000
01FC00
07FF00
1FFF80
1FFFC0
3FFFE0
7F07E0
7E03F0
7C03F0
7C01F0
FFFFF0
FFFFF0
FFFFF0
FFFFF0
7C0000
7E0000
7F0000
3FC060
3FFFE0
1FFFE0
0FFFE0
07FFE0
00FFE0
ENDCHAR
STARTCHAR eacute
ENCODING 233
SWIDTH 585 0
DWIDTH 25 0
BBX 20 33 2 0
BITMAP
001F80
001F80
003F00
003F00
007E00
007E00
00FC00
00F800
000000
000000
000000
01FC00
07FF00
1FFF80
1FFFC0
3FFFE0
7F07E0
7E03F0
7C03F0
7C01F0
FFFFF0
FFFFF0
FFFFF0
FFFFF0
7C0000
7E0000
7F0000
3FC060
3FFFE0
1FFFE0
0FFFE0
07FFE0
00FFE0
ENDCHAR
STARTCHAR ecircumflex
ENCODING 234
SWIDTH 585 0
DWIDTH 25 0
BBX 20 33 2 0
BITMAP
01FC00
01FC00
03FE00
07FF00
07DF00
0FDF80
0F8F80
1F8FC0
000000
000000
000000
01FC00
07FF00
1FFF80
1FFFC0
3FFFE0
7F07E0
7E03F0
7C03F0
7C01F0
FFFFF0
FFFFF0
FFFFF0
FFFFF0
7C0000
7E0000
7F0000
3FC060
3FFFE0
1FFFE0
0FFFE0
07FFE0
00FFE0
ENDCHAR
STARTCHAR edieresis
ENCODING 235
SWIDTH 585 0
DWIDTH 25 0
BBX 20 31 2 0
BITMAP
0F0780
1F8FC0
1F8FC0
1F8FC0
1F8FC0
0F0780
000000
000000
000000
01FC00
07FF00
1FFF80
1FFFC0
3FFFE0
7F07E0
7E03F0
7C03F0
7C01F0
FFFFF0
FFFFF0
FFFFF0
FFFFF0
7C0000
7E0000
7F0000
3FC060
3FFFE0
1FFFE0
0FFFE0
07FFE0
00FFE0
ENDCHAR
STARTCHAR igrave
ENCODING 236
SWIDTH 585 0
DWIDTH 25 0
BBX 20 33 3 0
BITMAP
0FC000
0FC000
07E000
03E000
03F000
01F000
01F800
00F800
000400
000000
000000
7FFC00
7FFC00
7FFC00
7FFC00
7FFC00
00FC00
00FC00
00FC00
00FC00
00FC00
00FC00
00FC00
00FC00
00FC00
00FC00
00FC00
00FC00
FFFFF0
FFFFF0
FFFFF0
FFFFF0
FFFFF0
ENDCHAR
STARTCHAR iacute
ENCODING 237
SWIDTH 585 0
DWIDTH 25 0
BBX 20 33 3 0
BITMAP
001F80
001F80
003F00
003E00
007E00
007C00
00FC00
00F800
010000
000000
000000
7FFC00
7FFC00
7FFC00
7FFC00
7FFC00
00FC00
00FC00
00FC00
00FC00
00FC00
00FC00
00FC00
00FC00
00FC00
00FC00
00FC00
00FC00
FFFFF0
FFFFF0
FFFFF0
FFFFF0
FFFFF0
ENDCHAR
STARTCHAR icircumflex
ENCODING 238
SWIDTH 585 0
DWIDTH 25 0
BBX 20 33 3 0
BITMAP
01F800
01FC00
03FE00
07FE00
07DF00
0FDF80
1F8F80
3F8FC0
000000
000000
000000
7FFC00
7FFC00
7FFC00
7FFC00
7FFC00
00FC00
00FC00
00FC00
00FC00
00FC00
00FC00
00FC00
00FC00
00FC00
00FC00
00FC00
00FC00
FFFFF0
FFFFF0
FFFFF0
FFFFF0
FFFFF0
ENDCHAR
STARTCHAR idieresis
ENCODING 239
SWIDTH 585 0
DWIDTH 25 0
BBX 20 31 3 0
BITMAP
1F0780
1F8FC0
1F8FC0
1F8FC0
1F0FC0
0F0780
000000
000000
000000
7FFC00
7FFC00
7FFC00
7FFC00
7FFC00
00FC00
00FC00
00FC00
00FC00
00FC00
00FC00
00FC00
00FC00
00FC00
00FC00
00FC00
00FC00
FFFFF0
FFFFF0
FFFFF0
FFFFF0
FFFFF0
ENDCHAR
STARTCHAR eth
ENCODING 240
SWIDTH 585 0
DWIDTH 25 0
BBX 21 31 2 0
BITMAP
030000
07E010
07F8F0
03FFF0
00FFF0
07FFF8
1FFFE0
1FFFC0
1FFFC0
1F07E0
0807E0
0003F0
07E3F0
1FFBF0
3FFBF0
7FFDF0
7FFFF0
FF0FF0
FE03F0
FC03F0
FC01F0
FC01F0
FC01F0
FC03F0
FE03F0
7F0FE0
7FFFE0
3FFFC0
1FFF80
0FFF00
03FC00
ENDCHAR
STARTCHAR ntilde
ENCODING 241
SWIDTH 585 0
DWIDTH 25 0
BBX 19 33 3 0
BITMAP
0E0F80
3F8F80
3FFF80
7FFF80
7FFF80
7E7F00
7C1E00
000000
000000
000000
000000
F87C00
F9FF00
F9FF80
FBFFC0
FFFFC0
FF9FC0
FE0FC0
FC07E0
FC07E0
FC07E0
FC07E0
FC07E0
FC07E0
FC07E0
FC07E0
FC07E0
FC07E0
FC07E0
FC07E0
FC07E0
FC07E0
FC07E0
ENDCHAR
STARTCHAR ograve
ENCODING 242
SWIDTH 585 0
DWIDTH 25 0
BBX 20 33 2 0
BITMAP
0FC000
0FC000
07E000
03E000
03F000
01F000
01F800
00F800
000000
000000
000000
01FC00
07FF00
1FFF80
3FFFC0
3FFFE0
7F9FE0
7F07F0
7E03F0
7E03F0
FC03F0
FC03F0
FC03F0
FC03F0
7E03F0
7E03F0
7F07F0
7F8FE0
3FFFE0
3FFFC0
1FFF80
07FF00
01FC00
ENDCHAR
STARTCHAR oacute
ENCODING 243
SWIDTH 585 0
DWIDTH 25 0
BBX 20 33 2 0
BITMAP
001F80
001F80
003F00
003E00
007E00
007C00
00FC00
01F800
000000
000000
000000
01FC00
07FF00
1FFF80
3FFFC0
3FFFE0
7F9FE0
7F07F0
7E03F0
7E03F0
FC03F0
FC03F0
FC03F0
FC03F0
7E03F0
7E03F0
7F07F0
7F8FE0
3FFFE0
3FFFC0
1FFF80
07FF00
01FC00
ENDCHAR
STARTCHAR ocircumflex
ENCODING 244
SWIDTH 585 0
DWIDTH 25 0
BBX 20 33 2 0
BITMAP
01F800
01FC00
03FE00
07FE00
07DF00
0FDF80
1F8F80
3F8FC0
000000
000000
000000
01FC00
07FF00
1FFF80
3FFFC0
3FFFE0
7F9FE0
7F07F0
7E03F0
7E03F0
FC03F0
FC03F0
FC03F0
FC03F0
7E03F0
7E03F0
7F07F0
7F8FE0
3FFFE0
3FFFC0
1FFF80
07FF00
01FC00
ENDCHAR
STARTCHAR otilde
ENCODING 245
SWIDTH 585 0
DWIDTH 25 0
BBX 20 33 2 0
BITMAP
0307C0
0FC7C0
1FFFC0
1FFFC0
3FFFC0
3F1FC0
3F0780
000000
000000
000000
000000
01FC00
07FF00
1FFF80
3FFFC0
3FFFE0
7F9FE0
7F07F0
7E03F0
7E03F0
FC03F0
FC03F0
FC03F0
FC03F0
7E03F0
7E03F0
7F07F0
7F8FE0
3FFFE0
3FFFC0
1FFF80
07FF00
01FC00
ENDCHAR
STARTCHAR odieresis
ENCODING 246
SWIDTH 585 0
DWIDTH 25 0
BBX 20 31 2 0
BITMAP
1F0780
1F8FC0
1F8FC0
1F8FC0
1F0FC0
0F0780
000000
000000
000000
01FC00
07FF00
1FFF80
3FFFC0
3FFFE0
7F9FE0
7F07F0
7E03F0
7E03F0
FC03F0
FC03F0
FC03F0
FC03F0
7E03F0
7E03F0
7F07F0
7F8FE0
3FFFE0
3FFFC0
1FFF80
07FF00
01FC00
ENDCHAR
STARTCHAR divide
ENCODING 247
SWIDTH 585 0
DWIDTH 25 0
BBX 21 25 2 2
BITMAP
00F000
01F800
01FC00
01FC00
01FC00
01F800
00F800
000000
000000
000000
FFFFF8
FFFFF8
FFFFF8
FFFFF8
FFFFF8
000000
000000
000000
00F800
01F800
01FC00
01FC00
01FC00
01F800
00F000
ENDCHAR
STARTCHAR oslash
ENCODING 248
SWIDTH 585 0
DWIDTH 25 0
BBX 20 26 2 -2
BITMAP
0000C0
0001E0
01FDE0
07FFC0
1FFF80
3FFFC0
3FFFE0
7F9FE0
7F1FF0
7E1FF0
7E3FF0
FC7BF0
FC7BF0
FCF3F0
FCE3F0
7DE3F0
7FC3F0
7F87F0
7F8FE0
3FFFE0
1FFFC0
1FFF80
1FFF00
3DFC00
780000
180000
ENDCHAR
STARTCHAR ugrave
ENCODING 249
SWIDTH 585 0
DWIDTH 25 0
BBX 21 33 3 0
BITMAP
3F0000
1F8000
0F8000
0FC000
07C000
07E000
03E000
03F000
000000
000000
000000
F80FC0
F80FC0
F80FC0
F80FC0
F80FC0
F80FC0
F80FC0
F80FC0
F80FC0
F80FC0
F80FC0
F80FC0
F80FC0
F80FC0
F80FC0
FC1FC0
FE3FC0
FFFFF8
FFEFF8
7FE7F8
3FC7F8
1F87F8
ENDCHAR
STARTCHAR uacute
ENCODING 250
SWIDTH 585 0
DWIDTH 25 0
BBX 21 33 3 0
BITMAP
003F00
007E00
007E00
00FC00
00F800
01F800
01F000
03F000
000000
000000
000000
F80FC0
F80FC0
F80FC0
F80FC0
F80FC0
F80FC0
F80FC0
F80FC0
F80FC0
F80FC0
F80FC0
F80FC0
F80FC0
F80FC0
F80FC0
FC1FC0
FE3FC0
FFFFF8
FFEFF8
7FE7F8
3FC7F8
1F87F8
ENDCHAR
STARTCHAR ucircumflex
ENCODING 251
SWIDTH 585 0
DWIDTH 25 0
BBX 21 33 3 0
BITMAP
03F000
07F800
07F800
0FFC00
1FFE00
1F3E00
3F3F00
7E1F80
000000
000000
000000
F80FC0
F80FC0
F80FC0
F80FC0
F80FC0
F80FC0
F80FC0
F80FC0
F80FC0
F80FC0
F80FC0
F80FC0
F80FC0
F80FC0
F80FC0
FC1FC0
FE3FC0
FFFFF8
FFEFF8
7FE7F8
3FC7F8
1F87F8
ENDCHAR
STARTCHAR udieresis
ENCODING 252
SWIDTH 585 0
DWIDTH 25 0
BBX 21 31 3 0
BITMAP
3E1F00
7E1F80
7F3F80
7E3F80
3E1F00
1C0E00
000000
000000
000000
F80FC0
F80FC0
F80FC0
F80FC0
F80FC0
F80FC0
F80FC0
F80FC0
F80FC0
F80FC0
F80FC0
F80FC0
F80FC0
F80FC0
F80FC0
FC1FC0
FE3FC0
FFFFF8
FFEFF8
7FE7F8
3FC7F8
1F87F8
ENDCHAR
STARTCHAR yacute
ENCODING 253
SWIDTH 585 0
DWIDTH 25 0
BBX 22 43 1 -10
BITMAP
000FC0
000FC0
001F80
001F80
003F00
003F00
003E00
007E00
000000
000000
000000
FC00FC
FC00FC
7C00F8
7E01F8
7E01F8
3E01F8
3F01F0
3F03F0
1F03F0
1F83E0
1F87E0
0F87E0
0FC7C0
0FC7C0
07CFC0
07EF80
07EF80
03FF80
03FF80
03FF00
01FF00
01FF00
003E00
007E00
00FC00
01FC00
0FF800
FFF000
FFE000
FFC000
FF0000
E00000
ENDCHAR
STARTCHAR thorn
ENCODING 254
SWIDTH 585 0
DWIDTH 25 0
BBX 20 41 3 -10
BITMAP
FC0000
FC0000
FC0000
FC0000
FC0000
FC0000
FC0000
FC0000
FC0000
FC7C00
FDFF00
FDFF80
FFFFC0
FFFFE0
FF1FE0
FE07E0
FC07F0
FC03F0
FC03F0
FC03F0
FC03F0
FC03F0
FC03F0
FC03F0
FE07E0
FF0FE0
FFFFE0
FFFFC0
FFFF80
FDFF00
FCFC00
FC0000
FC0000
FC0000
FC0000
FC0000
FC0000
FC0000
FC0000
FC0000
FC0000
ENDCHAR
STARTCHAR ydieresis
ENCODING 255
SWIDTH 585 0
DWIDTH 25 0
BBX 22 41 1 -10
BITMAP
0783E0
0FC7E0
0FC7E0
0FC7E0
0FC7E0
0783C0
000000
000000
000000
FC00FC
FC00FC
7C00F8
7E01F8
7E01F8
3E01F8
3F01F0
3F03F0
1F03F0
1F83E0
1F87E0
0F87E0
0FC7C0
0FC7C0
07CFC0
07EF80
07EF80
03FF80
03FF80
03FF00
01FF00
01FF00
003E00
007E00
00FC00
01FC00
0FF800
FFF000
FFE000
FFC000
FF0000
E00000
ENDCHAR
STARTCHAR Amacron
ENCODING 256
SWIDTH 585 0
DWIDTH 25 0
BBX 23 37 1 0
BITMAP
1FFFE0
1FFFE0
1FFFE0
1FFFE0
1FFFE0
000000
000000
000000
00FE00
00FE00
01FE00
01FF00
01FF00
03FF00
03FF80
03EF80
03EF80
07EF80
07CFC0
07C7C0
0FC7C0
0FC7E0
0F87E0
1F83E0
1F83E0
1F83F0
1F03F0
3FFFF0
3FFFF8
3FFFF8
7FFFF8
7FFFF8
7E00FC
7C00FC
FC00FC
FC007E
FC007E
ENDCHAR
STARTCHAR amacron
ENCODING 257
SWIDTH 585 0
DWIDTH 25 0
BBX 22 30 2 0
BITMAP
7FFFE0
7FFFE0
7FFFE0
7FFFE0
7FFFE0
000000
000000
000000
1FF000
1FFE00
3FFF80
3FFF80
3FFFC0
001FE0
0007E0
0003E0
07FFE0
1FFFE0
7FFFE0
7FFFE0
FFFFE0
FC03E0
F807E0
F807E0
FC0FE0
FFFBFC
FFFBFC
7FFBFC
3FF3FC
0FC3FC
ENDCHAR
STARTCHAR Abreve
ENCODING 258
SWIDTH 585 0
DWIDTH 25 0
BBX 23 39 1 0
BITMAP
1F83E0
1F83E0
0F87E0
0FFFE0
07FFC0
03FF80
00FE00
000000
000000
000000
00FE00
00FE00
01FE00
01FF00
01FF00
03FF00
03FF80
03EF80
03EF80
07EF80
07CFC0
07C7C0
0FC7C0
0FC7E0
0F87E0
1F83E0
1F83E0
1F83F0
1F03F0
3FFFF0
3FFFF8
3FFFF8
7FFFF8
7FFFF8
7E00FC
7C00FC
FC00FC
FC007E
FC007E
ENDCHAR
STARTCHAR abreve
ENCODING 259
SWIDTH 585 0
DWIDTH 25 0
BBX 22 33 2 0
BITMAP
3E07C0
3E07C0
3E0FC0
3F0FC0
1FFF80
1FFF80
0FFF00
03F800
000000
000000
000000
1FF000
1FFE00
3FFF80
3FFF80
3FFFC0
001FE0
0007E0
0003E0
07FFE0
1FFFE0
7FFFE0
7FFFE0
FFFFE0
FC03E0
F807E0
F807E0
FC0FE0
FFFBFC
FFFBFC
7FFBFC
3FF3FC
0FC3FC
ENDCHAR
STARTCHAR Aogonek
ENCODING 260
SWIDTH 585 0
DWIDTH 25 0
BBX 23 37 1 -8
BITMAP
00FE00
00FE00
01FE00
01FF00
01FF00
03FF00
03FF80
03EF80
03EF80
07EF80
07CFC0
07C7C0
0FC7C0
0FC7E0
0F87E0
1F83E0
1F83E0
1F83F0
1F03F0
3FFFF0
3FFFF8
3FFFF8
7FFFF8
7FFFF8
7E00FC
7C00FC
FC00FC
FC007E
FC007E
000070
0000E0
0001E0
0001E0
0001FE
0001FC
0000FC
0000FC
ENDCHAR
STARTCHAR aogonek
ENCODING 261
SWIDTH 585 0
DWIDTH 25 0
BBX 22 31 2 -9
BITMAP
1FF000
1FFE00
3FFF00
3FFF80
3FFFC0
001FE0
0007E0
0003E0
00FBE0
1FFFE0
3FFFE0
7FFFE0
FFFFE0
FE03E0
F807E0
F807E0
FC0FE0
FE7BFC
FFFBFC
7FFBFC
3FF3FC
0FC3FC
0000E0
0001C0
0003C0
0003C0
0003FC
0003F8
0003F8
0001F8
000078
ENDCHAR
STARTCHAR Cacute
ENCODING 262
SWIDTH 585 0
DWIDTH 25 0
BBX 22 38 1 0
BITMAP
0003FC
0003F8
0007F0
000FE0
001FC0
003F80
000000
000000
000000
003FC0
01FFF0
07FFF8
0FFFFC
1FFFFC
1FE0F8
3F8030
3F0010
7E0000
7E0000
7E0000
7C0000
FC0000
FC0000
FC0000
FC0000
FC0000
7C0000
7E0000
7E0000
7F0000
7F0000
3FC000
3FF038
1FFFF8
0FFFF8
07FFFC
01FFFC
003FE0
ENDCHAR
STARTCHAR cacute
ENCODING 263
SWIDTH 585 0
DWIDTH 25 0
BBX 21 33 2 0
BITMAP
000FC0
000FC0
001F80
001F00
003F00
003E00
007E00
007C00
008000
000000
000000
00FF00
07FFC0
0FFFE0
1FFFF0
3FFFF8
3FC7F0
7F01E0
7E00C0
7E0000
FC0000
FC0000
FC0000
FC0000
7E0000
7E0000
7F0000
3FC020
3FFFE0
1FFFE0
0FFFE0
03FFF0
00FFF0
ENDCHAR
STARTCHAR Ccircumflex
ENCODING 264
SWIDTH 585 0
DWIDTH 25 0
BBX 22 37 1 0
BITMAP
003F80
007FC0
00FFE0
01FBF0
03F1F8
040000
000000
000000
003FC0
01FFF0
07FFF8
0FFFFC
1FFFFC
1FE0F8
3F8030
3F0010
7E0000
7E0000
7E0000
7C0000
FC0000
FC0000
FC0000
FC0000
FC0000
7C0000
7E0000
7E0000
7F0000
7F0000
3FC000
3FF038
1FFFF8
0FFFF8
07FFFC
01FFFC
003FE0
ENDCHAR
STARTCHAR ccircumflex
ENCODING 265
SWIDTH 585 0
DWIDTH 25 0
BBX 21 33 2 0
BITMAP
00FC00
00FE00
01FF00
03FF00
03EF80
07EFC0
0FC7C0
1FC7E0
000000
000000
000000
00FF00
07FFC0
0FFFE0
1FFFF0
3FFFF8
3FC7F0
7F01E0
7E00C0
7E0000
FC0000
FC0000
FC0000
FC0000
7E0000
7E0000
7F0000
3FC020
3FFFE0
1FFFE0
0FFFE0
03FFF0
00FFF0
ENDCHAR
STARTCHAR Cdotaccent
ENCODING 266
SWIDTH 585 0
DWIDTH 25 0
BBX 22 39 1 0
BITMAP
000E00
003F00
003F80
003F80
003F80
003F00
001E00
000000
000000
000000
003FC0
01FFF0
07FFF8
0FFFFC
1FFFFC
1FE0F8
3F8030
3F0010
7E0000
7E0000
7E0000
7C0000
FC0000
FC0000
FC0000
FC0000
FC0000
7C0000
7E0000
7E0000
7F0000
7F0000
3FC000
3FF038
1FFFF8
0FFFF8
07FFFC
01FFFC
003FE0
ENDCHAR
STARTCHAR cdotaccent
ENCODING 267
SWIDTH 585 0
DWIDTH 25 0
BBX 21 31 2 0
BITMAP
003800
00FC00
00FE00
00FE00
00FE00
00FC00
007800
000000
000000
00FF00
07FFC0
0FFFE0
1FFFF0
3FFFF8
3FC7F0
7F01E0
7E00C0
7E0000
FC0000
FC0000
FC0000
FC0000
7E0000
7E0000
7F0000
3FC020
3FFFE0
1FFFE0
0FFFE0
03FFF0
00FFF0
ENDCHAR
STARTCHAR Ccaron
ENCODING 268
SWIDTH 585 0
DWIDTH 25 0
BBX 22 37 1 0
BITMAP
07F3F8
01FBE0
00FFC0
007F80
003F80
000000
000000
000000
003FC0
01FFF0
07FFF8
0FFFFC
1FFFFC
1FE0F8
3F8030
3F0010
7E0000
7E0000
7E0000
7C0000
FC0000
FC0000
FC0000
FC0000
FC0000
7C0000
7E0000
7E0000
7F0000
7F0000
3FC000
3FF038
1FFFF8
0FFFF8
07FFFC
01FFFC
003FE0
ENDCHAR
STARTCHAR ccaron
ENCODING 269
SWIDTH 585 0
DWIDTH 25 0
BBX 21 33 2 0
BITMAP
1FC7E0
0FC7C0
07CFC0
03EF80
03FF80
01FF00
01FE00
00FE00
000000
000000
000000
00FF00
07FFC0
0FFFE0
1FFFF0
3FFFF8
3FC7F0
7F01E0
7E00C0
7E0000
FC0000
FC0000
FC0000
FC0000
7E0000
7E0000
7F0000
3FC020
3FFFE0
1FFFE0
0FFFE0
03FFF0
00FFF0
ENDCHAR
STARTCHAR Dcaron
ENCODING 270
SWIDTH 585 0
DWIDTH 25 0
BBX 21 37 3 0
BITMAP
FE7F00
3EFC00
1FF800
0FF000
07E000
000000
000000
000000
FFF000
FFFC00
FFFF00
FFFF80
FFFFC0
F83FC0
F80FE0
F807E0
F803F0
F803F0
F803F0
F801F0
F801F8
F801F8
F801F8
F801F8
F801F8
F801F0
F803F0
F803F0
F803F0
F807F0
F80FE0
F83FE0
FFFFC0
FFFF80
FFFF00
FFFC00
FFE000
ENDCHAR
STARTCHAR dcaron
ENCODING 271
SWIDTH 585 0
DWIDTH 25 0
BBX 27 32 2 0
BITMAP
000003E0
0003F7C0
0003F7C0
0003F7C0
0003F7C0
0003F780
0003F780
0003F780
0003F000
0003F000
07E3F000
1FF3F000
3FFBF000
7FFBF000
7FFFF000
FF1FF000
FE07F000
FC07F000
FC03F000
FC03F000
F803F000
F803F000
FC03F000
FC03F000
FC07F000
FE07F000
FF0FF000
7FFFF000
7FFBF000
3FFBF000
1FF3F000
07E1F000
ENDCHAR
STARTCHAR Dcroat
ENCODING 272
SWIDTH 585 0
DWIDTH 25 0
BBX 24 29 0 0
BITMAP
1FFE00
1FFF80
1FFFE0
1FFFF0
1FFFF8
1F07F8
1F01FC
1F00FC
1F007E
1F007E
1F007E
1F003E
FFF83F
FFF83F
FFF83F
FFF83F
FFF83F
1F003E
1F007E
1F007E
1F007E
1F00FE
1F01FC
1F07FC
1FFFF8
1FFFF0
1FFFE0
1FFF80
1FFC00
ENDCHAR
STARTCHAR dcroat
ENCODING 273
SWIDTH 585 0
DWIDTH 25 0
BBX 22 31 2 0
BITMAP
0003F0
0003F0
01FFFC
01FFFC
01FFFC
01FFFC
01FFFC
0003F0
0003F0
07E3F0
1FF3F0
3FFBF0
7FFBF0
7FFFF0
FF1FF0
FE07F0
FC07F0
FC03F0
FC03F0
F803F0
F803F0
FC03F0
FC03F0
FC07F0
FE07F0
FF0FF0
7FFFF0
7FFBF0
3FFBF0
1FF3F0
07E1F0
ENDCHAR
STARTCHAR Emacron
ENCODING 274
SWIDTH 585 0
DWIDTH 25 0
BBX 20 37 3 0
BITMAP
3FFFC0
3FFFC0
3FFFC0
3FFFC0
3FFFC0
000000
000000
000000
FFFFF0
FFFFF0
FFFFF0
FFFFF0
FFFFF0
F80000
F80000
F80000
F80000
F80000
F80000
F80000
FFFF00
FFFF00
FFFF00
FFFF00
FFFF00
F80000
F80000
F80000
F80000
F80000
F80000
F80000
FFFFF0
FFFFF0
FFFFF0
FFFFF0
FFFFF0
ENDCHAR
STARTCHAR emacron
ENCODING 275
SWIDTH 585 0
DWIDTH 25 0
BBX 20 30 2 0
BITMAP
3FFFE0
3FFFE0
3FFFE0
3FFFE0
3FFFE0
000000
000000
000000
01FC00
07FF00
1FFF80
1FFFC0
3FFFE0
7F07E0
7E03F0
7C03F0
7C01F0
FFFFF0
FFFFF0
FFFFF0
FFFFF0
7C0000
7E0000
7F0000
3FC060
3FFFE0
1FFFE0
0FFFE0
07FFE0
00FFE0
ENDCHAR
STARTCHAR Ebreve
ENCODING 276
SWIDTH 585 0
DWIDTH 25 0
BBX 20 39 3 0
BITMAP
3E0FC0
3E0FC0
3F0FC0
1FFF80
1FFF80
0FFF00
03F800
000000
000000
000000
FFFFF0
FFFFF0
FFFFF0
FFFFF0
FFFFF0
F80000
F80000
F80000
F80000
F80000
F80000
F80000
FFFF00
FFFF00
FFFF00
FFFF00
FFFF00
F80000
F80000
F80000
F80000
F80000
F80000
F80000
FFFFF0
FFFFF0
FFFFF0
FFFFF0
FFFFF0
ENDCHAR
STARTCHAR ebreve
ENCODING 277
SWIDTH 585 0
DWIDTH 25 0
BBX 20 33 2 0
BITMAP
3F07E0
3F07E0
1F07C0
1F8FC0
1FFFC0
0FFF80
07FF00
01FC00
000000
000000
000000
01FC00
07FF00
1FFF80
1FFFC0
3FFFE0
7F07E0
7E03F0
7C03F0
7C01F0
FFFFF0
FFFFF0
FFFFF0
FFFFF0
7C0000
7E0000
7F0000
3FC060
3FFFE0
1FFFE0
0FFFE0
07FFE0
00FFE0
ENDCHAR
STARTCHAR Edotaccent
ENCODING 278
SWIDTH 585 0
DWIDTH 25 0
BBX 20 39 3 0
BITMAP
00F000
01F800
01F800
03F800
01F800
01F800
00F000
000000
000000
000000
FFFFF0
FFFFF0
FFFFF0
FFFFF0
FFFFF0
F80000
F80000
F80000
F80000
F80000
F80000
F80000
FFFF00
FFFF00
FFFF00
FFFF00
FFFF00
F80000
F80000
F80000
F80000
F80000
F80000
F80000
FFFFF0
FFFFF0
FFFFF0
FFFFF0
FFFFF0
ENDCHAR
STARTCHAR edotaccent
ENCODING 279
SWIDTH 585 0
DWIDTH 25 0
BBX 20 31 2 0
BITMAP
007000
00F800
01FC00
01FC00
01FC00
00F800
007000
000000
000000
01FC00
07FF00
1FFF80
1FFFC0
3FFFE0
7F07E0
7E03F0
7C03F0
7C01F0
FFFFF0
FFFFF0
FFFFF0
FFFFF0
7C0000
7E0000
7F0000
3FC060
3FFFE0
1FFFE0
0FFFE0
07FFE0
00FFE0
ENDCHAR
STARTCHAR Eogonek
ENCODING 280
SWIDTH 585 0
DWIDTH 25 0
BBX 20 37 3 -8
BITMAP
FFFFF0
FFFFF0
FFFFF0
FFFFF0
FFFFF0
F80000
F80000
F80000
F80000
F80000
F80000
F80000
FFFF00
FFFF00
FFFF00
FFFF00
FFFF00
F80000
F80000
F80000
F80000
F80000
F80000
F80000
FFFFF0
FFFFF0
FFFFF0
FFFFF0
FFFFF0
000380
000700
000F00
000F00
000FE0
000FE0
000FE0
0007E0
ENDCHAR
STARTCHAR eogonek
ENCODING 281
SWIDTH 585 0
DWIDTH 25 0
BBX 20 30 2 -8
BITMAP
01FC00
07FF00
1FFF80
1FFFC0
3FFFE0
7F07E0
7E03F0
7C03F0
7C01F0
FFFFF0
FFFFF0
FFFFF0
FFFFF0
7C0000
7E0000
7F0000
3FC060
3FFFE0
1FFFE0
0FFFE0
07FFE0
00FFE0
000700
000E00
001E00
001FE0
001FE0
001FC0
000FC0
0007C0
ENDCHAR
STARTCHAR Ecaron
ENCODING 282
SWIDTH 585 0
DWIDTH 25 0
BBX 20 37 3 0
BITMAP
3F9FC0
0FFF00
07FE00
03FC00
01F800
000000
000000
000000
FFFFF0
FFFFF0
FFFFF0
FFFFF0
FFFFF0
F80000
F80000
F80000
F80000
F80000
F80000
F80000
FFFF00
FFFF00
FFFF00
FFFF00
FFFF00
F80000
F80000
F80000
F80000
F80000
F80000
F80000
FFFFF0
FFFFF0
FFFFF0
FFFFF0
FFFFF0
ENDCHAR
STARTCHAR ecaron
ENCODING 283
SWIDTH 585 0
DWIDTH 25 0
BBX 20 33 2 0
BITMAP
1F8FC0
1F8FC0
0FDF80
07DF00
07DF00
03FE00
01FC00
01FC00
000000
000000
000000
01FC00
07FF00
1FFF80
1FFFC0
3FFFE0
7F07E0
7E03F0
7C03F0
7C01F0
FFFFF0
FFFFF0
FFFFF0
FFFFF0
7C0000
7E0000
7F0000
3FC060
3FFFE0
1FFFE0
0FFFE0
07FFE0
00FFE0
ENDCHAR
STARTCHAR Gcircumflex
ENCODING 284
SWIDTH 585 0
DWIDTH 25 0
BBX 22 37 1 0
BITMAP
007F00
00FF80
01FFC0
03F7E0
07F3F8
000000
000000
000000
007F80
03FFF0
07FFF8
0FFFFC
1FFFFC
3FE0F8
3F8030
7F0020
7E0000
7E0000
FC0000
FC0000
FC0000
FC0000
FC0FFC
FC0FFC
FC0FFC
FC0FFC
FC0FFC
FE00FC
7E00FC
7F00FC
7F80FC
3FE0FC
1FFFFC
1FFFFC
07FFFC
03FFFC
007FE0
ENDCHAR
STARTCHAR gcircumflex
ENCODING 285
SWIDTH 585 0
DWIDTH 25 0
BBX 20 43 2 -10
BITMAP
01F800
03FC00
03FC00
07FE00
0FFF00
0F9F00
1F9F80
3F0FC0
000000
000000
000000
07E3F0
1FF3F0
3FFBF0
7FFBF0
7FFFF0
FF1FF0
FE07F0
FC07F0
FC03F0
FC03F0
F803F0
F803F0
FC03F0
FC03F0
FC07F0
FE07F0
FF0FF0
7FFFF0
7FFBF0
3FFBF0
1FF3F0
07E3E0
0003E0
0003E0
0007E0
0007E0
000FC0
3FFFC0
3FFF80
3FFF00
3FFE00
3FF000
ENDCHAR
STARTCHAR Gbreve
ENCODING 286
SWIDTH 585 0
DWIDTH 25 0
BBX 22 39 1 0
BITMAP
07C1F8
07C1F8
07E1F8
07FFF0
03FFF0
01FFC0
007F80
000000
000000
000000
007F80
03FFF0
07FFF8
0FFFFC
1FFFFC
3FE0F8
3F8030
7F0020
7E0000
7E0000
FC0000
FC0000
FC0000
FC0000
FC0FFC
FC0FFC
FC0FFC
FC0FFC
FC0FFC
FE00FC
7E00FC
7F00FC
7F80FC
3FE0FC
1FFFFC
1FFFFC
07FFFC
03FFFC
007FE0
ENDCHAR
STARTCHAR gbreve
ENCODING 287
SWIDTH 585 0
DWIDTH 25 0
BBX 20 43 2 -10
BITMAP
3E07C0
3E07C0
3E0FC0
3F0FC0
1FFF80
1FFF80
0FFF00
03F800
000000
000000
000000
07E3F0
1FF3F0
3FFBF0
7FFBF0
7FFFF0
FF1FF0
FE07F0
FC07F0
FC03F0
FC03F0
F803F0
F803F0
FC03F0
FC03F0
FC07F0
FE07F0
FF0FF0
7FFFF0
7FFBF0
3FFBF0
1FF3F0
07E3E0
0003E0
0003E0
0007E0
0007E0
000FC0
3FFFC0
3FFF80
3FFF00
3FFE00
3FF000
ENDCHAR
STARTCHAR Gdotaccent
ENCODING 288
SWIDTH 585 0
DWIDTH 25 0
BBX 22 39 1 0
BITMAP
001E00
003F00
007F00
007F00
007F00
003F00
001E00
000000
000000
000000
007F80
03FFF0
07FFF8
0FFFFC
1FFFFC
3FE0F8
3F8030
7F0020
7E0000
7E0000
FC0000
FC0000
FC0000
FC0000
FC0FFC
FC0FFC
FC0FFC
FC0FFC
FC0FFC
FE00FC
7E00FC
7F00FC
7F80FC
3FE0FC
1FFFFC
1FFFFC
07FFFC
03FFFC
007FE0
ENDCHAR
STARTCHAR gdotaccent
ENCODING 289
SWIDTH 585 0
DWIDTH 25 0
BBX 20 41 2 -10
BITMAP
00F000
01F800
03F800
03F800
03F800
01F800
00F000
000000
000000
07E3F0
1FF3F0
3FFBF0
7FFBF0
7FFFF0
FF1FF0
FE07F0
FC07F0
FC03F0
FC03F0
F803F0
F803F0
FC03F0
FC03F0
FC07F0
FE07F0
FF0FF0
7FFFF0
7FFBF0
3FFBF0
1FF3F0
07E3E0
0003E0
0003E0
0007E0
0007E0
000FC0
3FFFC0
3FFF80
3FFF00
3FFE00
3FF000
ENDCHAR
STARTCHAR uni0122
ENCODING 290
SWIDTH 585 0
DWIDTH 25 0
BBX 22 39 1 -10
BITMAP
007F80
03FFF0
07FFF8
0FFFFC
1FFFFC
3FE0F8
3F8030
7F0020
7E0000
7E0000
FC0000
FC0000
FC0000
FC0000
FC0FFC
FC0FFC
FC0FFC
FC0FFC
FC0FFC
FE00FC
7E00FC
7F00FC
7F80FC
3FE0FC
1FFFFC
1FFFFC
07FFFC
03FFFC
007FE0
000000
000000
000000
003F00
003F00
003E00
003E00
007E00
007C00
007C00
ENDCHAR
STARTCHAR uni0123
ENCODING 291
SWIDTH 585 0
DWIDTH 25 0
BBX 20 43 2 -10
BITMAP
007C00
007C00
00FC00
00F800
00F800
00F800
00F800
01F800
000000
000000
000000
07E3F0
1FF3F0
3FFBF0
7FFBF0
7FFFF0
FF1FF0
FE07F0
FC07F0
FC03F0
FC03F0
F803F0
F803F0
FC03F0
FC03F0
FC07F0
FE07F0
FF0FF0
7FFFF0
7FFBF0
3FFBF0
1FF3F0
07E3E0
0003E0
0003E0
0007E0
0007E0
000FC0
3FFFC0
3FFF80
3FFF00
3FFE00
3FF000
ENDCHAR
STARTCHAR Hcircumflex
ENCODING 292
SWIDTH 585 0
DWIDTH 25 0
BBX 19 37 3 0
BITMAP
03F800
07FC00
0FFE00
1FBF00
3F1F80
000000
000000
000000
F803E0
F803E0
F803E0
F803E0
F803E0
F803E0
F803E0
F803E0
F803E0
F803E0
F803E0
F803E0
FFFFE0
FFFFE0
FFFFE0
FFFFE0
FFFFE0
F803E0
F803E0
F803E0
F803E0
F803E0
F803E0
F803E0
F803E0
F803E0
F803E0
F803E0
F803E0
ENDCHAR
STARTCHAR hcircumflex
ENCODING 293
SWIDTH 585 0
DWIDTH 25 0
BBX 24 39 -2 0
BITMAP
0FE000
1FF000
3FF800
3E7C00
FE7F00
000000
000000
000000
07E000
07E000
07E000
07E000
07E000
07E000
07E000
07E000
07E000
07E3E0
07EFF8
07EFFC
07FFFE
07FFFE
07F8FE
07F07E
07E03F
07E03F
07E03F
07E03F
07E03F
07E03F
07E03F
07E03F
07E03F
07E03F
07E03F
07E03F
07E03F
07E03F
07E03F
ENDCHAR
STARTCHAR Hbar
ENCODING 294
SWIDTH 585 0
DWIDTH 25 0
BBX 23 29 1 0
BITMAP
3E00F8
3E00F8
3E00F8
3E00F8
3E00F8
FFFFFE
FFFFFE
FFFFFE
FFFFFE
3E00F8
3E00F8
3E00F8
3FFFF8
3FFFF8
3FFFF8
3FFFF8
3FFFF8
3E00F8
3E00F8
3E00F8
3E00F8
3E00F8
3E00F8
3E00F8
3E00F8
3E00F8
3E00F8
3E00F8
3E00F8
ENDCHAR
STARTCHAR hbar
ENCODING 295
SWIDTH 585 0
DWIDTH 25 0
BBX 22 31 0 0
BITMAP
1F8000
1F8000
FFFE00
FFFE00
FFFE00
FFFE00
FFFE00
1F8000
1F8000
1F8F80
1FBFE0
1FBFF0
1FFFF8
1FFFF8
1FE3F8
1FC1F8
1F80FC
1F80FC
1F80FC
1F80FC
1F80FC
1F80FC
1F80FC
1F80FC
1F80FC
1F80FC
1F80FC
1F80FC
1F80FC
1F80FC
1F80FC
ENDCHAR
STARTCHAR Itilde
ENCODING 296
SWIDTH 585 0
DWIDTH 25 0
BBX 19 39 3 0
BITMAP
060FC0
1FCFC0
3FFFC0
3FFF80
7FFF80
7E3F00
7E0000
000000
000000
000000
FFFFE0
FFFFE0
FFFFE0
FFFFE0
FFFFE0
01F000
01F000
01F000
01F000
01F000
01F000
01F000
01F000
01F000
01F000
01F000
01F000
01F000
01F000
01F000
01F000
01F000
01F000
01F000
FFFFE0
FFFFE0
FFFFE0
FFFFE0
FFFFE0
ENDCHAR
STARTCHAR itilde
ENCODING 297
SWIDTH 585 0
DWIDTH 25 0
BBX 20 33 3 0
BITMAP
0307C0
0FE7C0
1FFFC0
1FFFC0
3FFFC0
3F1FC0
3F0780
000000
000000
000000
000000
7FFC00
7FFC00
7FFC00
7FFC00
7FFC00
00FC00
00FC00
00FC00
00FC00
00FC00
00FC00
00FC00
00FC00
00FC00
00FC00
00FC00
00FC00
FFFFF0
FFFFF0
FFFFF0
FFFFF0
FFFFF0
ENDCHAR
STARTCHAR Imacron
ENCODING 298
SWIDTH 585 0
DWIDTH 25 0
BBX 19 37 3 0
BITMAP
7FFF80
7FFF80
7FFF80
7FFF80
7FFF80
000000
000000
000000
FFFFE0
FFFFE0
FFFFE0
FFFFE0
FFFFE0
01F000
01F000
01F000
01F000
01F000
01F000
01F000
01F000
01F000
01F000
01F000
01F000
01F000
01F000
01F000
01F000
01F000
01F000
01F000
FFFFE0
FFFFE0
FFFFE0
FFFFE0
FFFFE0
ENDCHAR
STARTCHAR imacron
ENCODING 299
SWIDTH 585 0
DWIDTH 25 0
BBX 20 30 3 0
BITMAP
3FFFE0
3FFFE0
3FFFE0
3FFFE0
3FFFE0
000000
000000
000000
7FFC00
7FFC00
7FFC00
7FFC00
7FFC00
00FC00
00FC00
00FC00
00FC00
00FC00
00FC00
00FC00
00FC00
00FC00
00FC00
00FC00
00FC00
FFFFF0
FFFFF0
FFFFF0
FFFFF0
FFFFF0
ENDCHAR
STARTCHAR Ibreve
ENCODING 300
SWIDTH 585 0
DWIDTH 25 0
BBX 19 39 3 0
BITMAP
7E0F80
7E0F80
3E1F80
3FFF80
1FFF00
0FFE00
03F800
000000
000000
000000
FFFFE0
FFFFE0
FFFFE0
FFFFE0
FFFFE0
01F000
01F000
01F000
01F000
01F000
01F000
01F000
01F000
01F000
01F000
01F000
01F000
01F000
01F000
01F000
01F000
01F000
01F000
01F000
FFFFE0
FFFFE0
FFFFE0
FFFFE0
FFFFE0
ENDCHAR
STARTCHAR ibreve
ENCODING 301
SWIDTH 585 0
DWIDTH 25 0
BBX 20 33 3 0
BITMAP
3F07C0
3F07C0
3F07C0
1F0FC0
1FFFC0
0FFF80
07FF00
01FC00
000000
000000
000000
7FFC00
7FFC00
7FFC00
7FFC00
7FFC00
00FC00
00FC00
00FC00
00FC00
00FC00
00FC00
00FC00
00FC00
00FC00
00FC00
00FC00
00FC00
FFFFF0
FFFFF0
FFFFF0
FFFFF0
FFFFF0
ENDCHAR
STARTCHAR Iogonek
ENCODING 302
SWIDTH 585 0
DWIDTH 25 0
BBX 19 37 3 -8
BITMAP
FFFFE0
FFFFE0
FFFFE0
FFFFE0
FFFFE0
01F000
01F000
01F000
01F000
01F000
01F000
01F000
01F000
01F000
01F000
01F000
01F000
01F000
01F000
01F000
01F000
01F000
01F000
01F000
FFFFE0
FFFFE0
FFFFE0
FFFFE0
FFFFE0
00E000
03C000
038000
07C000
07F800
07F800
03F800
01F800
ENDCHAR
STARTCHAR iogonek
ENCODING 303
SWIDTH 585 0
DWIDTH 25 0
BBX 20 41 3 -9
BITMAP
007000
01F800
01FC00
01FC00
01FC00
01FC00
00F800
000000
000000
000000
7FFC00
7FFC00
7FFC00
7FFC00
7FFC00
00FC00
00FC00
00FC00
00FC00
00FC00
00FC00
00FC00
00FC00
00FC00
00FC00
00FC00
00FC00
FFFFF0
FFFFF0
FFFFF0
FFFFF0
FFFFF0
00E000
01C000
03C000
03C000
03FC00
03F800
03F800
01F800
007800
ENDCHAR
STARTCHAR Idotaccent
ENCODING 304
SWIDTH 585 0
DWIDTH 25 0
BBX 19 39 3 0
BITMAP
00E000
03F000
03F800
03F800
03F800
03F000
01E000
000000
000000
000000
FFFFE0
FFFFE0
FFFFE0
FFFFE0
FFFFE0
01F000
01F000
01F000
01F000
01F000
01F000
01F000
01F000
01F000
01F000
01F000
01F000
01F000
01F000
01F000
01F000
01F000
01F000
01F000
FFFFE0
FFFFE0
FFFFE0
FFFFE0
FFFFE0
ENDCHAR
STARTCHAR dotlessi
ENCODING 305
SWIDTH 585 0
DWIDTH 25 0
BBX 20 22 3 0
BITMAP
7FFC00
7FFC00
7FFC00
7FFC00
7FFC00
00FC00
00FC00
00FC00
00FC00
00FC00
00FC00
00FC00
00FC00
00FC00
00FC00
00FC00
00FC00
FFFFF0
FFFFF0
FFFFF0
FFFFF0
FFFFF0
ENDCHAR
STARTCHAR IJ
ENCODING 306
SWIDTH 585 0
DWIDTH 25 0
BBX 21 29 1 0
BITMAP
FFE7F8
FFE7F8
FFE7F8
FFE7F8
FFE7F8
1F00F8
1F00F8
1F00F8
1F00F8
1F00F8
1F00F8
1F00F8
FFF0F8
FFF0F8
FFF0F8
FFF0F8
FFF0F8
0000F8
0000F8
0000F8
1F00F8
1F00F8
1F81F8
1FC3F8
1FFFF0
0FFFF0
07FFE0
03FFC0
00FE00
ENDCHAR
STARTCHAR ij
ENCODING 307
SWIDTH 585 0
DWIDTH 25 0
BBX 17 41 4 -10
BITMAP
3C1E00
7E3F00
FE3F80
FE3F80
FE3F80
7E3F00
3C1E00
000000
000000
7C3F00
7C3F00
7C3F00
7C3F00
7C3F00
7C3F00
7C3F00
7C3F00
7C3F00
7C3F00
7C3F00
7C3F00
7C3F00
7C3F00
7C3F00
7C3F00
7C3F00
7C3F00
7C3F00
7C3F00
7C3F00
7C3F00
003F00
003F00
007F00
00FE00
0FFE00
7FFC00
7FFC00
7FF800
7FE000
7F0000
ENDCHAR
STARTCHAR Jcircumflex
ENCODING 308
SWIDTH 585 0
DWIDTH 25 0
BBX 23 37 1 0
BITMAP
000FE0
001FF0
003FF8
007EFC
01FC7E
000000
000000
000000
007FF8
007FF8
007FF8
007FF8
007FF8
0000F8
0000F8
0000F8
0000F8
0000F8
0000F8
0000F8
0000F8
0000F8
0000F8
0000F8
0000F8
0000F8
0000F8
FC00F8
FC00F8
7E01F8
7E01F8
7F87F0
3FFFF0
3FFFE0
1FFFC0
07FF80
01FE00
ENDCHAR
STARTCHAR jcircumflex
ENCODING 309
SWIDTH 585 0
DWIDTH 25 0
BBX 21 43 3 -10
BITMAP
003F00
007F00
00FF80
00FFC0
01F7C0
03F3E0
03F3F0
07E3F8
000000
000000
000000
3FFF00
3FFF00
3FFF00
3FFF00
3FFF00
003F00
003F00
003F00
003F00
003F00
003F00
003F00
003F00
003F00
003F00
003F00
003F00
003F00
003F00
003F00
003F00
003F00
003E00
003E00
007E00
007E00
01FE00
FFFC00
7FF800
7FF800
7FE000
7F8000
ENDCHAR
STARTCHAR uni0136
ENCODING 310
SWIDTH 585 0
DWIDTH 25 0
BBX 21 39 3 -10
BITMAP
F803F0
F803F0
F803F0
F803F0
F803E0
F803E0
F807E0
F807E0
F80FC0
F80FC0
F81F80
F83F80
F87F00
F9FF00
FFFE00
FFFC00
FFFE00
FFFE00
FFBF00
FC3F00
F81F80
F81F80
F80FC0
F80FC0
F80FE0
F807E0
F807F0
F803F0
F803F8
000000
000000
000000
03F800
03F000
03F000
03E000
03E000
07E000
07C000
ENDCHAR
STARTCHAR uni0137
ENCODING 311
SWIDTH 585 0
DWIDTH 25 0
BBX 21 41 3 -10
BITMAP
F80000
F80000
F80000
F80000
F80000
F80000
F80000
F80000
F80000
F803E0
F807E0
F807E0
F807E0
F807C0
F80FC0
F80FC0
F81F80
F87F80
FFFF00
FFFF00
FFFE00
FFFE00
FFFF00
F83F00
F81F80
F81FC0
F80FC0
F80FE0
F807E0
F807F0
F803F8
000000
000000
000000
01F800
03F000
03F000
03F000
03E000
03E000
07E000
ENDCHAR
STARTCHAR kgreenlandic
ENCODING 312
SWIDTH 585 0
DWIDTH 25 0
BBX 21 22 3 0
BITMAP
F803E0
F807E0
F807E0
F807E0
F807C0
F80FC0
F80FC0
F81F80
F87F80
FFFF00
FFFF00
FFFE00
FFFE00
FFFF00
F83F00
F81F80
F81FC0
F80FC0
F80FE0
F807E0
F807F0
F803F8
ENDCHAR
STARTCHAR Lacute
ENCODING 313
SWIDTH 585 0
DWIDTH 25 0
BBX 20 38 3 0
BITMAP
0FF000
1FC000
3F8000
3F0000
7E0000
FC0000
000000
000000
000000
F80000
F80000
F80000
F80000
F80000
F80000
F80000
F80000
F80000
F80000
F80000
F80000
F80000
F80000
F80000
F80000
F80000
F80000
F80000
F80000
F80000
F80000
F80000
F80000
FFFFF0
FFFFF0
FFFFF0
FFFFF0
FFFFF0
ENDCHAR
STARTCHAR lacute
ENCODING 314
SWIDTH 585 0
DWIDTH 25 0
BBX 20 40 2 0
BITMAP
003FC0
007F00
00FE00
01FC00
01F800
03F000
000000
000000
000000
FFE000
FFE000
FFE000
FFE000
FFE000
03E000
03E000
03E000
03E000
03E000
03E000
03E000
03E000
03E000
03E000
03E000
03E000
03E000
03E000
03E000
03E000
03E000
03E000
03F000
03F010
03FFF0
03FFF0
01FFF0
01FFF0
00FFF0
003FE0
ENDCHAR
STARTCHAR uni013B
ENCODING 315
SWIDTH 585 0
DWIDTH 25 0
BBX 20 39 3 -10
BITMAP
F80000
F80000
F80000
F80000
F80000
F80000
F80000
F80000
F80000
F80000
F80000
F80000
F80000
F80000
F80000
F80000
F80000
F80000
F80000
F80000
F80000
F80000
F80000
F80000
FFFFF0
FFFFF0
FFFFF0
FFFFF0
FFFFF0
000000
000000
000000
01F800
03F000
03F000
03F000
03E000
03E000
07E000
ENDCHAR
STARTCHAR uni013C
ENCODING 316
SWIDTH 585 0
DWIDTH 25 0
BBX 20 41 2 -10
BITMAP
FFE000
FFE000
FFE000
FFE000
FFE000
03E000
03E000
03E000
03E000
03E000
03E000
03E000
03E000
03E000
03E000
03E000
03E000
03E000
03E000
03E000
03E000
03E000
03E000
03F000
03F010
03FFF0
03FFF0
01FFF0
01FFF0
00FFF0
003FE0
000000
000000
000000
007E00
007C00
00FC00
00FC00
00F800
00F800
01F800
ENDCHAR
STARTCHAR Lcaron
ENCODING 317
SWIDTH 585 0
DWIDTH 25 0
BBX 20 32 3 0
BITMAP
000FC0
000FC0
000FC0
F80FC0
F80F80
F80F80
F80F80
F81F80
F80000
F80000
F80000
F80000
F80000
F80000
F80000
F80000
F80000
F80000
F80000
F80000
F80000
F80000
F80000
F80000
F80000
F80000
F80000
FFFFF0
FFFFF0
FFFFF0
FFFFF0
FFFFF0
ENDCHAR
STARTCHAR lcaron
ENCODING 318
SWIDTH 585 0
DWIDTH 25 0
BBX 20 32 2 0
BITMAP
0003F0
FFE3F0
FFE3F0
FFE3F0
FFE3E0
FFE3E0
03E3E0
03E7E0
03E000
03E000
03E000
03E000
03E000
03E000
03E000
03E000
03E000
03E000
03E000
03E000
03E000
03E000
03E000
03E000
03F000
03F000
03FFF0
03FFF0
01FFF0
01FFF0
00FFF0
003FE0
ENDCHAR
STARTCHAR Ldot
ENCODING 319
SWIDTH 585 0
DWIDTH 25 0
BBX 20 29 3 0
BITMAP
F80000
F80000
F80000
F80000
F80F80
F81F80
F83FC0
F83FC0
F81FC0
F81F80
F80F00
F80000
F80000
F80000
F80000
F80000
F80000
F80000
F80000
F80000
F80000
F80000
F80000
F80000
FFFFF0
FFFFF0
FFFFF0
FFFFF0
FFFFF0
ENDCHAR
STARTCHAR ldot
ENCODING 320
SWIDTH 585 0
DWIDTH 25 0
BBX 22 31 2 0
BITMAP
FFE000
FFE000
FFE000
FFE000
FFE000
03E000
03E000
03E1F0
03E1F8
03E3F8
03E3FC
03E3F8
03E1F8
03E0F0
03E000
03E000
03E000
03E000
03E000
03E000
03E000
03E000
03E000
03F000
03F010
03FFF0
03FFF0
01FFF0
01FFF0
00FFF0
003FE0
ENDCHAR
STARTCHAR Lslash
ENCODING 321
SWIDTH 585 0
DWIDTH 25 0
BBX 22 29 1 0
BITMAP
0F8000
0F8000
0F8000
0F8000
0F8000
0F8000
0F8000
0F8180
0F8780
0F9F80
0FFF80
0FFF80
0FFF00
1FFC00
7FF000
FFC000
FF8000
FF8000
FF8000
CF8000
0F8000
0F8000
0F8000
0F8000
0FFFFC
0FFFFC
0FFFFC
0FFFFC
0FFFFC
ENDCHAR
STARTCHAR lslash
ENCODING 322
SWIDTH 585 0
DWIDTH 25 0
BBX 20 31 2 0
BITMAP
FFE000
FFE000
FFE000
FFE000
FFE000
03E000
03E000
03E000
03E000
03E180
03E780
03FF80
03FF80
03FF80
0FFF00
3FFC00
7FF000
7FE000
7FE000
7BE000
63E000
83E000
03E000
03F000
03F010
03FFF0
03FFF0
01FFF0
01FFF0
00FFF0
003FE0
ENDCHAR
STARTCHAR Nacute
ENCODING 323
SWIDTH 585 0
DWIDTH 25 0
BBX 19 38 3 0
BITMAP
001FC0
003F80
007F00
00FE00
01FC00
03F800
000000
000000
000000
FF03E0
FF03E0
FF03E0
FF83E0
FF83E0
FF83E0
FB83E0
FBC3E0
FBC3E0
FBC3E0
F9C3E0
F9C3E0
F9E3E0
F9E3E0
F8E3E0
F8E3E0
F8F3E0
F8F3E0
F8F3E0
F873E0
F873E0
F87BE0
F87BE0
F83FE0
F83FE0
F83FE0
F83FE0
F83FE0
F81FE0
ENDCHAR
STARTCHAR nacute
ENCODING 324
SWIDTH 585 0
DWIDTH 25 0
BBX 19 33 3 0
BITMAP
003F00
007E00
007E00
00FC00
00FC00
01F800
01F800
03F000
000000
000000
000000
F87C00
F9FF00
F9FF80
FBFFC0
FFFFC0
FF9FC0
FE0FC0
FC07E0
FC07E0
FC07E0
FC07E0
FC07E0
FC07E0
FC07E0
FC07E0
FC07E0
FC07E0
FC07E0
FC07E0
FC07E0
FC07E0
FC07E0
ENDCHAR
STARTCHAR uni0145
ENCODING 325
SWIDTH 585 0
DWIDTH 25 0
BBX 19 39 3 -10
BITMAP
FF03E0
FF03E0
FF03E0
FF83E0
FF83E0
FF83E0
FB83E0
FBC3E0
FBC3E0
FBC3E0
F9C3E0
F9C3E0
F9E3E0
F9E3E0
F8E3E0
F8E3E0
F8F3E0
F8F3E0
F8F3E0
F873E0
F873E0
F87BE0
F87BE0
F83FE0
F83FE0
F83FE0
F83FE0
F83FE0
F81FE0
000000
000000
000000
03F000
03F000
03E000
03E000
07E000
07C000
07C000
ENDCHAR
STARTCHAR uni0146
ENCODING 326
SWIDTH 585 0
DWIDTH 25 0
BBX 19 32 3 -10
BITMAP
F87C00
F9FF00
F9FF80
FBFFC0
FFFFC0
FF9FC0
FE0FC0
FC07E0
FC07E0
FC07E0
FC07E0
FC07E0
FC07E0
FC07E0
FC07E0
FC07E0
FC07E0
FC07E0
FC07E0
FC07E0
FC07E0
FC07E0
000000
000000
000000
03F000
03F000
03E000
03E000
07E000
07C000
07C000
ENDCHAR
STARTCHAR Ncaron
ENCODING 327
SWIDTH 585 0
DWIDTH 25 0
BBX 19 37 3 0
BITMAP
3F3F80
1FBE00
0FFC00
07FC00
03F800
000000
000000
000000
FF03E0
FF03E0
FF03E0
FF83E0
FF83E0
FF83E0
FB83E0
FBC3E0
FBC3E0
FBC3E0
F9C3E0
F9C3E0
F9E3E0
F9E3E0
F8E3E0
F8E3E0
F8F3E0
F8F3E0
F8F3E0
F873E0
F873E0
F87BE0
F87BE0
F83FE0
F83FE0
F83FE0
F83FE0
F83FE0
F81FE0
ENDCHAR
STARTCHAR ncaron
ENCODING 328
SWIDTH 585 0
DWIDTH 25 0
BBX 19 33 3 0
BITMAP
7E1F80
3F3F00
1F3F00
1FBE00
0FFC00
07FC00
07F800
03F000
000000
000000
000000
F87C00
F9FF00
F9FF80
FBFFC0
FFFFC0
FF9FC0
FE0FC0
FC07E0
FC07E0
FC07E0
FC07E0
FC07E0
FC07E0
FC07E0
FC07E0
FC07E0
FC07E0
FC07E0
FC07E0
FC07E0
FC07E0
FC07E0
ENDCHAR
STARTCHAR napostrophe
ENCODING 329
SWIDTH 585 0
DWIDTH 25 0
BBX 22 33 0 0
BITMAP
7C0000
7C0000
780000
780000
780000
F00000
F00000
E00000
000000
000000
000000
1F0F80
1F3FE0
1F3FF0
1F7FF8
1FFFF8
1FF3F8
1FC1F8
1F80FC
1F80FC
1F80FC
1F80FC
1F80FC
1F80FC
1F80FC
1F80FC
1F80FC
1F80FC
1F80FC
1F80FC
1F80FC
1F80FC
1F80FC
ENDCHAR
STARTCHAR Eng
ENCODING 330
SWIDTH 585 0
DWIDTH 25 0
BBX 19 39 3 -10
BITMAP
FF03E0
FF03E0
FF03E0
FF83E0
FF83E0
FF83E0
FB83E0
FBC3E0
FBC3E0
FBC3E0
F9C3E0
F9C3E0
F9E3E0
F9E3E0
F8E3E0
F8E3E0
F8F3E0
F8F3E0
F8F3E0
F873E0
F873E0
F87BE0
F87BE0
F83FE0
F83FE0
F83FE0
F83FE0
F83FE0
F81FE0
0003E0
0003E0
0003E0
0007E0
0007E0
01FFE0
01FFC0
01FFC0
01FF80
01FE00
ENDCHAR
STARTCHAR eng
ENCODING 331
SWIDTH 585 0
DWIDTH 25 0
BBX 19 32 3 -10
BITMAP
F87C00
F9FF00
F9FF80
FBFFC0
FFFFC0
FF1FC0
FE0FC0
FC07E0
FC07E0
FC07E0
FC07E0
FC07E0
FC07E0
FC07E0
FC07E0
FC07E0
FC07E0
FC07E0
FC07E0
FC07E0
FC07E0
FC07C0
0007C0
0007C0
000FC0
001FC0
007F80
03FF80
03FF00
03FE00
03F800
03C000
ENDCHAR
STARTCHAR Omacron
ENCODING 332
SWIDTH 585 0
DWIDTH 25 0
BBX 22 37 1 0
BITMAP
1FFFE0
1FFFE0
1FFFE0
1FFFE0
1FFFE0
000000
000000
000000
00FE00
07FF80
0FFFE0
1FFFE0
3FFFF0
3F87F8
7F01F8
7E01F8
7E00FC
7E00FC
FC00FC
FC007C
FC007C
FC007C
FC007C
FC007C
FC007C
FC007C
FC00FC
7C00FC
7E00FC
7E01FC
7F01F8
3F87F8
3FFFF0
1FFFF0
0FFFE0
07FF80
01FE00
ENDCHAR
STARTCHAR omacron
ENCODING 333
SWIDTH 585 0
DWIDTH 25 0
BBX 20 30 2 0
BITMAP
7FFFE0
7FFFE0
7FFFE0
7FFFE0
7FFFE0
000000
000000
000000
01FC00
07FF00
1FFF80
3FFFC0
3FFFE0
7F9FE0
7F07F0
7E03F0
7E03F0
FC03F0
FC03F0
FC03F0
FC03F0
7E03F0
7E03F0
7F07F0
7F8FE0
3FFFE0
3FFFC0
1FFF80
07FF00
01FC00
ENDCHAR
STARTCHAR Obreve
ENCODING 334
SWIDTH 585 0
DWIDTH 25 0
BBX 22 39 1 0
BITMAP
1F83E0
1F83E0
0F87E0
0FFFE0
07FFC0
03FF80
00FE00
000000
000000
000000
00FE00
07FF80
0FFFE0
1FFFE0
3FFFF0
3F87F8
7F01F8
7E01F8
7E00FC
7E00FC
FC00FC
FC007C
FC007C
FC007C
FC007C
FC007C
FC007C
FC007C
FC00FC
7C00FC
7E00FC
7E01FC
7F01F8
3F87F8
3FFFF0
1FFFF0
0FFFE0
07FF80
01FE00
ENDCHAR
STARTCHAR obreve
ENCODING 335
SWIDTH 585 0
DWIDTH 25 0
BBX 20 33 2 0
BITMAP
3F07C0
3F07C0
3F07C0
1F0FC0
1FFFC0
0FFF80
07FF00
01FC00
000000
000000
000000
01FC00
07FF00
1FFF80
3FFFC0
3FFFE0
7F9FE0
7F07F0
7E03F0
7E03F0
FC03F0
FC03F0
FC03F0
FC03F0
7E03F0
7E03F0
7F07F0
7F8FE0
3FFFE0
3FFFC0
1FFF80
07FF00
01FC00
ENDCHAR
STARTCHAR Ohungarumlaut
ENCODING 336
SWIDTH 585 0
DWIDTH 25 0
BBX 22 37 1 0
BITMAP
03F9FC
07F3F8
07E3F0
0FE7E0
0FCFE0
000000
000000
000000
00FE00
07FF80
0FFFE0
1FFFE0
3FFFF0
3F87F8
7F01F8
7E01F8
7E00FC
7E00FC
FC00FC
FC007C
FC007C
FC007C
FC007C
FC007C
FC007C
FC007C
FC00FC
7C00FC
7E00FC
7E01FC
7F01F8
3F87F8
3FFFF0
1FFFF0
0FFFE0
07FF80
01FE00
ENDCHAR
STARTCHAR ohungarumlaut
ENCODING 337
SWIDTH 585 0
DWIDTH 25 0
BBX 20 33 2 0
BITMAP
01F3F0
03F3F0
03E7E0
07E7E0
07CFC0
0FCFC0
0F8F80
1F9F00
000000
000000
000000
01FC00
07FF00
1FFF80
3FFFC0
3FFFE0
7F9FE0
7F07F0
7E03F0
7E03F0
FC03F0
FC03F0
FC03F0
FC03F0
7E03F0
7E03F0
7F07F0
7F8FE0
3FFFE0
3FFFC0
1FFF80
07FF00
01FC00
ENDCHAR
STARTCHAR OE
ENCODING 338
SWIDTH 585 0
DWIDTH 25 0
BBX 22 29 1 0
BITMAP
03FFFC
07FFFC
0FFFFC
1FFFFC
3FFFFC
3F3F00
7E3F00
7E3F00
7C3F00
7C3F00
FC3F00
FC3F00
FC3FF8
FC3FF8
FC3FF8
FC3FF8
FC3FF8
FC3F00
FC3F00
7C3F00
7E3F00
7E3F00
7E3F00
3F3F00
3FFFFC
1FFFFC
0FFFFC
07FFFC
03FFFC
ENDCHAR
STARTCHAR oe
ENCODING 339
SWIDTH 585 0
DWIDTH 25 0
BBX 24 22 0 0
BITMAP
07C0F8
1FE3FC
3FF3FE
7FF7FE
7FFFFF
7EFF3F
FC7E1F
FC3E1F
F83E1F
F83FFF
F83FFF
F83FFF
F83FFF
F83E00
FC3F00
FC7F80
7E7FC0
7FFFFE
7FFFFE
3FF3FE
1FE1FE
07C07F
ENDCHAR
STARTCHAR Racute
ENCODING 340
SWIDTH 585 0
DWIDTH 25 0
BBX 21 38 3 0
BITMAP
003F80
007F00
00FE00
01FC00
01F800
07F000
000000
000000
000000
FFFC00
FFFF00
FFFF80
FFFFC0
FFFFE0
F80FE0
F807F0
F803F0
F803F0
F803F0
F803F0
F807E0
F80FE0
FFFFE0
FFFFC0
FFFF80
FFFF00
FFFF00
F83F00
F81F80
F81F80
F81F80
F80FC0
F80FC0
F807E0
F807E0
F807F0
F803F0
F803F8
ENDCHAR
STARTCHAR racute
ENCODING 341
SWIDTH 585 0
DWIDTH 25 0
BBX 23 33 1 0
BITMAP
000FC0
000FC0
001F80
001F00
003F00
003E00
007E00
00FC00
000000
000000
000000
7FC3E0
7FCFF8
7FCFF8
7FDFFC
7FDFFC
07F8FE
07F07E
07E07E
07E07E
07E000
07E000
07C000
07C000
07C000
07C000
07C000
07C000
FFFF00
FFFF00
FFFF00
FFFF00
FFFF00
ENDCHAR
STARTCHAR uni0156
ENCODING 342
SWIDTH 585 0
DWIDTH 25 0
BBX 21 39 3 -10
BITMAP
FFFC00
FFFF00
FFFF80
FFFFC0
FFFFE0
F80FE0
F807F0
F803F0
F803F0
F803F0
F803F0
F807E0
F80FE0
FFFFE0
FFFFC0
FFFF80
FFFF00
FFFF00
F83F00
F81F80
F81F80
F81F80
F80FC0
F80FC0
F807E0
F807E0
F807F0
F803F0
F803F8
000000
000000
000000
03F800
03F000
03F000
03E000
03E000
07E000
07C000
ENDCHAR
STARTCHAR uni0157
ENCODING 343
SWIDTH 585 0
DWIDTH 25 0
BBX 23 32 1 -10
BITMAP
7FC3E0
7FCFF8
7FCFF8
7FDFFC
7FDFFC
07F8FE
07F07E
07E07E
07E07E
07E000
07E000
07C000
07C000
07C000
07C000
07C000
07C000
FFFF00
FFFF00
FFFF00
FFFF00
FFFF00
000000
000000
000000
07E000
07C000
0FC000
0FC000
0F8000
0F8000
1F8000
ENDCHAR
STARTCHAR Rcaron
ENCODING 344
SWIDTH 585 0
DWIDTH 25 0
BBX 21 37 3 0
BITMAP
7E3F00
3F7E00
1FFC00
0FF800
07F000
000000
000000
000000
FFFC00
FFFF00
FFFF80
FFFFC0
FFFFE0
F80FE0
F807F0
F803F0
F803F0
F803F0
F803F0
F807E0
F80FE0
FFFFE0
FFFFC0
FFFF80
FFFF00
FFFF00
F83F00
F81F80
F81F80
F81F80
F80FC0
F80FC0
F807E0
F807E0
F807F0
F803F0
F803F8
ENDCHAR
STARTCHAR rcaron
ENCODING 345
SWIDTH 585 0
DWIDTH 25 0
BBX 23 33 1 0
BITMAP
1FC7E0
0FC7C0
07CFC0
07EF80
03FF80
01FF00
01FE00
00FE00
000000
000000
000000
7FC3E0
7FCFF8
7FCFF8
7FDFFC
7FDFFC
07F8FE
07F07E
07E07E
07E07E
07E000
07E000
07C000
07C000
07C000
07C000
07C000
07C000
FFFF00
FFFF00
FFFF00
FFFF00
FFFF00
ENDCHAR
STARTCHAR Sacute
ENCODING 346
SWIDTH 585 0
DWIDTH 25 0
BBX 20 38 2 0
BITMAP
000FF0
001FE0
003F80
003F00
007E00
00FC00
000000
000000
000000
01FE00
0FFF80
1FFFE0
3FFFF0
3FFFE0
7F87E0
7E01C0
7E0080
7E0000
7E0000
3F0000
3FC000
1FF000
0FFC00
07FF00
03FF80
00FFC0
001FE0
0007E0
0003F0
0003F0
0003F0
4003F0
7C0FF0
7FFFE0
7FFFE0
FFFFC0
7FFF00
0FFC00
ENDCHAR
STARTCHAR sacute
ENCODING 347
SWIDTH 585 0
DWIDTH 25 0
BBX 19 33 3 0
BITMAP
001F80
003F00
003F00
007E00
007C00
00FC00
00F800
01F800
000000
000000
000000
01FFC0
0FFFC0
3FFFC0
7FFFC0
7FFFC0
FF0000
FC0000
FC0000
FF8000
7FF800
3FFF00
1FFF80
03FFC0
003FC0
000FE0
0007E0
F01FE0
FFFFC0
FFFFC0
FFFF80
FFFF00
7FF800
ENDCHAR
STARTCHAR Scircumflex
ENCODING 348
SWIDTH 585 0
DWIDTH 25 0
BBX 20 37 2 0
BITMAP
01FC00
03FE00
07FF00
0FDF80
1F8FC0
000020
000000
000000
01FE00
0FFF80
1FFFE0
3FFFF0
3FFFE0
7F87E0
7E01C0
7E0080
7E0000
7E0000
3F0000
3FC000
1FF000
0FFC00
07FF00
03FF80
00FFC0
001FE0
0007E0
0003F0
0003F0
0003F0
4003F0
7C0FF0
7FFFE0
7FFFE0
FFFFC0
7FFF00
0FFC00
ENDCHAR
STARTCHAR scircumflex
ENCODING 349
SWIDTH 585 0
DWIDTH 25 0
BBX 19 33 3 0
BITMAP
01F800
03FC00
03FC00
07FE00
0FFF00
0F9F00
1F9F80
3F0FC0
000000
000000
000000
01FFC0
0FFFC0
3FFFC0
7FFFC0
7FFFC0
FF0000
FC0000
FC0000
FF8000
7FF800
3FFF00
1FFF80
03FFC0
003FC0
000FE0
0007E0
F01FE0
FFFFC0
FFFFC0
FFFF80
FFFF00
7FF800
ENDCHAR
STARTCHAR Scedilla
ENCODING 350
SWIDTH 585 0
DWIDTH 25 0
BBX 20 39 2 -10
BITMAP
01FE00
0FFF80
1FFFE0
3FFFF0
3FFFE0
7F87E0
7E01C0
7E0080
7E0000
7E0000
3F0000
3FC000
1FF000
0FFC00
07FF00
03FF80
00FFC0
001FE0
0007E0
0003F0
0003F0
0003F0
4003F0
7C0FF0
7FFFE0
7FFFE0
FFFFC0
7FFF00
0FFC00
00F800
00F000
00F800
01FE00
007E00
003E00
007E00
01FE00
01FC00
01F000
ENDCHAR
STARTCHAR scedilla
ENCODING 351
SWIDTH 585 0
DWIDTH 25 0
BBX 19 32 3 -10
BITMAP
01FFC0
0FFFC0
3FFFC0
7FFFC0
7FFFC0
FF0000
FC0000
FC0000
FF8000
7FF800
3FFF00
1FFF80
03FFC0
003FC0
000FE0
0007E0
F01FE0
FFFFC0
FFFFC0
FFFF80
FFFF00
7FF800
01E000
01E000
03F000
03F800
00FC00
007C00
01FC00
07F800
07F000
07C000
ENDCHAR
STARTCHAR Scaron
ENCODING 352
SWIDTH 585 0
DWIDTH 25 0
BBX 20 37 2 0
BITMAP
1FCFC0
07DF80
03FF00
03FE00
01FC00
000000
000000
000000
01FE00
0FFF80
1FFFE0
3FFFF0
3FFFE0
7F87E0
7E01C0
7E0080
7E0000
7E0000
3F0000
3FC000
1FF000
0FFC00
07FF00
03FF80
00FFC0
001FE0
0007E0
0003F0
0003F0
0003F0
4003F0
7C0FF0
7FFFE0
7FFFE0
FFFFC0
7FFF00
0FFC00
ENDCHAR
STARTCHAR scaron
ENCODING 353
SWIDTH 585 0
DWIDTH 25 0
BBX 19 33 3 0
BITMAP
3F0FC0
1F9F80
1F9F00
0FBF00
07FE00
07FC00
03FC00
01F800
000000
000000
000000
01FFC0
0FFFC0
3FFFC0
7FFFC0
7FFFC0
FF0000
FC0000
FC0000
FF8000
7FF800
3FFF00
1FFF80
03FFC0
003FC0
000FE0
0007E0
F01FE0
FFFFC0
FFFFC0
FFFF80
FFFF00
7FF800
ENDCHAR
STARTCHAR uni0162
ENCODING 354
SWIDTH 585 0
DWIDTH 25 0
BBX 22 39 1 -10
BITMAP
FFFFFC
FFFFFC
FFFFFC
FFFFFC
FFFFFC
007C00
007C00
007C00
007C00
007C00
007C00
007C00
007C00
007C00
007C00
007C00
007C00
007C00
007C00
007C00
007C00
007C00
007C00
007C00
007C00
007C00
007C00
007C00
007C00
007800
007800
00FC00
00FE00
003F00
001F00
007F00
01FE00
01FC00
01F000
ENDCHAR
STARTCHAR uni0163
ENCODING 355
SWIDTH 585 0
DWIDTH 25 0
BBX 21 39 1 -10
BITMAP
07E000
07E000
07E000
07E000
07E000
07E000
07E000
FFFFF0
FFFFF0
FFFFF0
FFFFF0
FFFFF0
07E000
07E000
07E000
07E000
07E000
07E000
07E000
07E000
07E000
07E000
03F000
03FC08
03FFF8
01FFF8
00FFF8
007FF8
001FF8
003E00
003C00
003E00
007F80
000F80
000F80
001F80
007F80
007F00
007800
ENDCHAR
STARTCHAR Tcaron
ENCODING 356
SWIDTH 585 0
DWIDTH 25 0
BBX 22 37 1 0
BITMAP
0FCFE0
07EF80
03FF00
01FF00
00FE00
000000
000000
000000
FFFFFC
FFFFFC
FFFFFC
FFFFFC
FFFFFC
007C00
007C00
007C00
007C00
007C00
007C00
007C00
007C00
007C00
007C00
007C00
007C00
007C00
007C00
007C00
007C00
007C00
007C00
007C00
007C00
007C00
007C00
007C00
007C00
ENDCHAR
STARTCHAR tcaron
ENCODING 357
SWIDTH 585 0
DWIDTH 25 0
BBX 21 33 1 0
BITMAP
0003F0
0003F0
0003F0
0003E0
0003E0
07E3E0
07E3E0
07E3E0
07E000
07E000
07E000
FFFFF0
FFFFF0
FFFFF0
FFFFF0
FFFFF0
07E000
07E000
07E000
07E000
07E000
07E000
07E000
07E000
07E000
07E000
03F000
03FC08
03FFF8
01FFF8
00FFF8
007FF8
001FF8
ENDCHAR
STARTCHAR Tbar
ENCODING 358
SWIDTH 585 0
DWIDTH 25 0
BBX 22 29 1 0
BITMAP
FFFFFC
FFFFFC
FFFFFC
FFFFFC
FFFFFC
007C00
007C00
007C00
007C00
007C00
007C00
007C00
007C00
1FFFF0
1FFFF0
1FFFF0
1FFFF0
1FFFF0
007C00
007C00
007C00
007C00
007C00
007C00
007C00
007C00
007C00
007C00
007C00
ENDCHAR
STARTCHAR tbar
ENCODING 359
SWIDTH 585 0
DWIDTH 25 0
BBX 21 29 1 0
BITMAP
07E000
07E000
07E000
07E000
07E000
07E000
07E000
FFFFF0
FFFFF0
FFFFF0
FFFFF0
FFFFF0
07E000
07E000
07E000
FFFFF0
FFFFF0
FFFFF0
FFFFF0
FFFFF0
07E000
07E000
03F000
03FC08
03FFF8
01FFF8
00FFF8
007FF8
001FF8
ENDCHAR
STARTCHAR Utilde
ENCODING 360
SWIDTH 585 0
DWIDTH 25 0
BBX 19 39 3 0
BITMAP
060FC0
1FCFC0
3FFFC0
3FFF80
7FFF80
7E3F00
7E0000
000000
000000
000000
F803E0
F803E0
F803E0
F803E0
F803E0
F803E0
F803E0
F803E0
F803E0
F803E0
F803E0
F803E0
F803E0
F803E0
F803E0
F803E0
F803E0
F803E0
F803E0
F803E0
F803E0
F807E0
FC07E0
FE1FC0
FFFFC0
7FFFC0
3FFF80
1FFE00
07F800
ENDCHAR
STARTCHAR utilde
ENCODING 361
SWIDTH 585 0
DWIDTH 25 0
BBX 21 33 3 0
BITMAP
0E0F80
3F8F80
3FFF80
7FFF80
7FFF80
7C7F00
7C1E00
000000
000000
000000
000000
F80FC0
F80FC0
F80FC0
F80FC0
F80FC0
F80FC0
F80FC0
F80FC0
F80FC0
F80FC0
F80FC0
F80FC0
F80FC0
F80FC0
F80FC0
FC1FC0
FE3FC0
FFFFF8
FFEFF8
7FE7F8
3FC7F8
1F87F8
ENDCHAR
STARTCHAR Umacron
ENCODING 362
SWIDTH 585 0
DWIDTH 25 0
BBX 19 37 3 0
BITMAP
7FFF80
7FFF80
7FFF80
7FFF80
7FFF80
000000
000000
000000
F803E0
F803E0
F803E0
F803E0
F803E0
F803E0
F803E0
F803E0
F803E0
F803E0
F803E0
F803E0
F803E0
F803E0
F803E0
F803E0
F803E0
F803E0
F803E0
F803E0
F803E0
F807E0
FC07E0
FE1FC0
FFFFC0
7FFFC0
3FFF80
1FFE00
07F800
ENDCHAR
STARTCHAR umacron
ENCODING 363
SWIDTH 585 0
DWIDTH 25 0
BBX 21 30 3 0
BITMAP
FFFFC0
FFFFC0
FFFFC0
FFFFC0
FFFFC0
000000
000000
000000
F80FC0
F80FC0
F80FC0
F80FC0
F80FC0
F80FC0
F80FC0
F80FC0
F80FC0
F80FC0
F80FC0
F80FC0
F80FC0
F80FC0
F80FC0
FC1FC0
FE3FC0
FFFFF8
FFEFF8
7FE7F8
3FC7F8
1F87F8
ENDCHAR
STARTCHAR Ubreve
ENCODING 364
SWIDTH 585 0
DWIDTH 25 0
BBX 19 39 3 0
BITMAP
7E0F80
7E0F80
3E1F80
3FFF80
1FFF00
0FFE00
03F800
000000
000000
000000
F803E0
F803E0
F803E0
F803E0
F803E0
F803E0
F803E0
F803E0
F803E0
F803E0
F803E0
F803E0
F803E0
F803E0
F803E0
F803E0
F803E0
F803E0
F803E0
F803E0
F803E0
F807E0
FC07E0
FE1FC0
FFFFC0
7FFFC0
3FFF80
1FFE00
07F800
ENDCHAR
STARTCHAR ubreve
ENCODING 365
SWIDTH 585 0
DWIDTH 25 0
BBX 21 33 3 0
BITMAP
7C0F80
7C0F80
7C1F80
7E1F80
3FFF00
3FFF00
1FFE00
07F000
000000
000000
000000
F80FC0
F80FC0
F80FC0
F80FC0
F80FC0
F80FC0
F80FC0
F80FC0
F80FC0
F80FC0
F80FC0
F80FC0
F80FC0
F80FC0
F80FC0
FC1FC0
FE3FC0
FFFFF8
FFEFF8
7FE7F8
3FC7F8
1F87F8
ENDCHAR
STARTCHAR Uring
ENCODING 366
SWIDTH 585 0
DWIDTH 25 0
BBX 19 39 3 0
BITMAP
03F000
07FC00
0FFE00
1F1E00
1F1E00
1F1E00
0FFE00
07FC00
03F000
000000
F803E0
F803E0
F803E0
F803E0
F803E0
F803E0
F803E0
F803E0
F803E0
F803E0
F803E0
F803E0
F803E0
F803E0
F803E0
F803E0
F803E0
F803E0
F803E0
F803E0
F803E0
F807E0
FC07E0
FE1FC0
FFFFC0
7FFFC0
3FFF80
1FFE00
07F800
ENDCHAR
STARTCHAR uring
ENCODING 367
SWIDTH 585 0
DWIDTH 25 0
BBX 21 33 3 0
BITMAP
03F000
0FFC00
0FFC00
1F3E00
1E3E00
1F3E00
0FFC00
0FF800
03F000
000000
000000
F80FC0
F80FC0
F80FC0
F80FC0
F80FC0
F80FC0
F80FC0
F80FC0
F80FC0
F80FC0
F80FC0
F80FC0
F80FC0
F80FC0
F80FC0
FC1FC0
FE3FC0
FFFFF8
FFEFF8
7FE7F8
3FC7F8
1F87F8
ENDCHAR
STARTCHAR Uhungarumlaut
ENCODING 368
SWIDTH 585 0
DWIDTH 25 0
BBX 20 37 3 0
BITMAP
0FE7F0
1FCFE0
1F8FC0
3F9F80
3F3F80
000000
000000
000000
F803E0
F803E0
F803E0
F803E0
F803E0
F803E0
F803E0
F803E0
F803E0
F803E0
F803E0
F803E0
F803E0
F803E0
F803E0
F803E0
F803E0
F803E0
F803E0
F803E0
F803E0
F807E0
FC07E0
FE1FC0
FFFFC0
7FFFC0
3FFF80
1FFE00
07F800
ENDCHAR
STARTCHAR uhungarumlaut
ENCODING 369
SWIDTH 585 0
DWIDTH 25 0
BBX 21 33 3 0
BITMAP
07E7E0
07CFC0
0FCFC0
0F8F80
1F9F80
1F1F00
3F3F00
3E7E00
000000
000000
000000
F80FC0
F80FC0
F80FC0
F80FC0
F80FC0
F80FC0
F80FC0
F80FC0
F80FC0
F80FC0
F80FC0
F80FC0
F80FC0
F80FC0
F80FC0
FC1FC0
FE3FC0
FFFFF8
FFEFF8
7FE7F8
3FC7F8
1F87F8
ENDCHAR
STARTCHAR Uogonek
ENCODING 370
SWIDTH 585 0
DWIDTH 25 0
BBX 19 37 3 -8
BITMAP
F803E0
F803E0
F803E0
F803E0
F803E0
F803E0
F803E0
F803E0
F803E0
F803E0
F803E0
F803E0
F803E0
F803E0
F803E0
F803E0
F803E0
F803E0
F803E0
F803E0
F803E0
F807E0
FC07E0
FE0FE0
FFFFC0
7FFFC0
3FFF80
1FFF00
07F800
00E000
03C000
03C000
07C000
07F800
07F800
03F800
01F800
ENDCHAR
STARTCHAR uogonek
ENCODING 371
SWIDTH 585 0
DWIDTH 25 0
BBX 21 31 3 -9
BITMAP
F80FC0
F80FC0
F80FC0
F80FC0
F80FC0
F80FC0
F80FC0
F80FC0
F80FC0
F80FC0
F80FC0
F80FC0
F80FC0
F80FC0
F80FC0
FC1FC0
FE3FC0
FFFFF8
FFFFF8
7FE7F8
3FC7F8
1F87F8
0001C0
000380
000780
000780
0007F8
0007F0
0007F0
0003F0
0000F0
ENDCHAR
STARTCHAR Wcircumflex
ENCODING 372
SWIDTH 585 0
DWIDTH 25 0
BBX 25 37 0 0
BITMAP
007F0000
00FF8000
01FFC000
03F7E000
07E3F000
00000000
00000000
00000000
F8001F80
F8001F00
FC001F00
FC001F00
7C001F00
7C001F00
7C001F00
7C3E1F00
7C3E1F00
7C3E3F00
7C7E3E00
7C7E3E00
7C7E3E00
3C7F3E00
3C773E00
3E773E00
3E773E00
3E773E00
3EF73E00
3EF73C00
3EE73C00
3EE7BC00
3EE7BC00
1EE3FC00
1FE3FC00
1FE3FC00
1FE3FC00
1FE3FC00
1FE3FC00
ENDCHAR
STARTCHAR wcircumflex
ENCODING 373
SWIDTH 585 0
DWIDTH 25 0
BBX 23 33 1 0
BITMAP
00FC00
01FE00
01FE00
03FF00
07EF80
07CF80
0FCFC0
1F87E0
000000
000000
000000
FC787E
FC787C
FC787C
FC7C7C
FCFC7C
FCFC7C
7CFC7C
7CFC7C
7CEC7C
7CCEFC
7CCEFC
7DCEF8
7DCEF8
7DCEF8
7DCEF8
7DC6F8
7DC7F8
7F87F8
7F87F8
7F87F8
7F87F8
7F87F8
ENDCHAR
STARTCHAR Ycircumflex
ENCODING 374
SWIDTH 585 0
DWIDTH 25 0
BBX 24 37 0 0
BITMAP
007F00
00FF80
01FFC0
03F7E0
07E3F0
000000
000000
000000
FC003F
7E003F
7E007E
3F007E
3F00FC
1F80FC
1F80F8
0FC1F8
0FC1F0
07C3F0
07E3E0
03E7E0
03F7C0
01FFC0
01FFC0
00FF80
00FF80
007F00
007F00
007E00
003E00
003E00
003E00
003E00
003E00
003E00
003E00
003E00
003E00
ENDCHAR
STARTCHAR ycircumflex
ENCODING 375
SWIDTH 585 0
DWIDTH 25 0
BBX 22 43 1 -10
BITMAP
007E00
00FE00
01FF00
01FF80
03EF80
07EFC0
07C7E0
0FC7E0
000010
000000
000000
FC00FC
FC00FC
7C00F8
7E01F8
7E01F8
3E01F8
3F01F0
3F03F0
1F03F0
1F83E0
1F87E0
0F87E0
0FC7C0
0FC7C0
07CFC0
07EF80
07EF80
03FF80
03FF80
03FF00
01FF00
01FF00
003E00
007E00
00FC00
01FC00
0FF800
FFF000
FFE000
FFC000
FF0000
E00000
ENDCHAR
STARTCHAR Ydieresis
ENCODING 376
SWIDTH 585 0
DWIDTH 25 0
BBX 24 39 0 0
BITMAP
0380E0
0FC3F0
0FE3F8
0FE3F8
0FE3F8
0FC3F0
0381E0
000000
000000
000000
FC003F
7E003F
7E007E
3F007E
3F00FC
1F80FC
1F80F8
0FC1F8
0FC1F0
07C3F0
07E3E0
03E7E0
03F7C0
01FFC0
01FFC0
00FF80
00FF80
007F00
007F00
007E00
003E00
003E00
003E00
003E00
003E00
003E00
003E00
003E00
003E00
ENDCHAR
STARTCHAR Zacute
ENCODING 377
SWIDTH 585 0
DWIDTH 25 0
BBX 19 38 3 0
BITMAP
001FC0
003F80
007F00
00FE00
01FC00
03F800
000000
000000
000000
FFFFE0
FFFFE0
FFFFE0
FFFFE0
FFFFE0
000FC0
000FC0
001F80
003F00
007F00
007E00
00FC00
01FC00
01F800
03F000
07F000
07E000
0FC000
1FC000
1F8000
3F0000
7E0000
7E0000
FC0000
FFFFE0
FFFFE0
FFFFE0
FFFFE0
FFFFE0
ENDCHAR
STARTCHAR zacute
ENCODING 378
SWIDTH 585 0
DWIDTH 25 0
BBX 18 33 3 0
BITMAP
003F00
003F00
007E00
007C00
00FC00
00F800
01F800
03F000
000000
000000
000000
FFFFC0
FFFFC0
FFFFC0
FFFFC0
FFFFC0
001F80
003F00
007E00
00FE00
01FC00
03F800
07F000
07E000
0FC000
1F8000
3F0000
7F0000
FFFFC0
FFFFC0
FFFFC0
FFFFC0
FFFFC0
ENDCHAR
STARTCHAR Zdotaccent
ENCODING 379
SWIDTH 585 0
DWIDTH 25 0
BBX 19 39 3 0
BITMAP
00E000
03F000
03F800
03F800
03F800
03F000
01E000
000000
000000
000000
FFFFE0
FFFFE0
FFFFE0
FFFFE0
FFFFE0
000FC0
000FC0
001F80
003F00
007F00
007E00
00FC00
01FC00
01F800
03F000
07F000
07E000
0FC000
1FC000
1F8000
3F0000
7E0000
7E0000
FC0000
FFFFE0
FFFFE0
FFFFE0
FFFFE0
FFFFE0
ENDCHAR
STARTCHAR zdotaccent
ENCODING 380
SWIDTH 585 0
DWIDTH 25 0
BBX 18 31 3 0
BITMAP
00E000
03F000
03F800
03F800
03F800
03F000
01E000
000000
000000
FFFFC0
FFFFC0
FFFFC0
FFFFC0
FFFFC0
001F80
003F00
007E00
00FE00
01FC00
03F800
07F000
07E000
0FC000
1F8000
3F0000
7F0000
FFFFC0
FFFFC0
FFFFC0
FFFFC0
FFFFC0
ENDCHAR
STARTCHAR Zcaron
ENCODING 381
SWIDTH 585 0
DWIDTH 25 0
BBX 19 37 3 0
BITMAP
3F3F80
1FBE00
0FFC00
07FC00
03F800
000000
000000
000000
FFFFE0
FFFFE0
FFFFE0
FFFFE0
FFFFE0
000FC0
000FC0
001F80
003F00
007F00
007E00
00FC00
01FC00
01F800
03F000
07F000
07E000
0FC000
1FC000
1F8000
3F0000
7E0000
7E0000
FC0000
FFFFE0
FFFFE0
FFFFE0
FFFFE0
FFFFE0
ENDCHAR
STARTCHAR zcaron
ENCODING 382
SWIDTH 585 0
DWIDTH 25 0
BBX 18 33 3 0
BITMAP
7F1F80
3F1F00
1F3F00
1FBE00
0FFE00
07FC00
07F800
03F800
000000
000000
000000
FFFFC0
FFFFC0
FFFFC0
FFFFC0
FFFFC0
001F80
003F00
007E00
00FE00
01FC00
03F800
07F000
07E000
0FC000
1F8000
3F0000
7F0000
FFFFC0
FFFFC0
FFFFC0
FFFFC0
FFFFC0
ENDCHAR
STARTCHAR longs
ENCODING 383
SWIDTH 585 0
DWIDTH 25 0
BBX 23 31 1 0
BITMAP
0003FE
000FFE
001FFE
003FFE
007FFC
007F04
007E00
00FC00
00FC00
00FC00
00F800
00F800
00F800
00F800
FFF800
FFF800
FFF800
FFF800
FFF800
00F800
00F800
00F800
00F800
00F800
00F800
00F800
00F800
00F800
00F800
00F800
00F800
ENDCHAR
STARTCHAR uni0186
ENCODING 390
SWIDTH 585 0
DWIDTH 25 0
BBX 23 29 0 0
BITMAP
07FC00
3FFF80
3FFFE0
3FFFF0
1FFFF8
1C0FF8
0003FC
0001FC
0000FE
00007E
00007E
00007E
00003E
00003E
00003E
00003E
00003E
00007E
00007E
00007E
0000FE
1000FC
1801FC
3E07F8
7FFFF8
FFFFF0
3FFFE0
1FFF80
03FC00
ENDCHAR
STARTCHAR uni018E
ENCODING 398
SWIDTH 585 0
DWIDTH 25 0
BBX 20 29 2 0
BITMAP
FFFFF0
FFFFF0
FFFFF0
FFFFF0
FFFFF0
0003F0
0003F0
0003F0
0003F0
0003F0
0003F0
0003F0
1FFFF0
1FFFF0
1FFFF0
1FFFF0
1FFFF0
0003F0
0003F0
0003F0
0003F0
0003F0
0003F0
0003F0
FFFFF0
FFFFF0
FFFFF0
FFFFF0
FFFFF0
ENDCHAR
STARTCHAR uni018F
ENCODING 399
SWIDTH 585 0
DWIDTH 25 0
BBX 22 29 1 0
BITMAP
0FFC00
3FFF00
3FFFC0
3FFFE0
1FFFF0
180FF0
0003F8
0001F8
0000FC
0000FC
0000FC
0000FC
FFFFFC
FFFFFC
FFFFFC
FFFFFC
FFFFFC
FC007C
FC00FC
7C00FC
7E00FC
7E01FC
7F01F8
3F87F8
3FFFF0
1FFFF0
0FFFE0
07FF80
01FE00
ENDCHAR
STARTCHAR uni0190
ENCODING 400
SWIDTH 585 0
DWIDTH 25 0
BBX 21 29 2 0
BITMAP
01FF00
0FFFE0
1FFFF0
3FFFF8
3FFFF0
3F81F0
7E0060
7E0000
3E0000
3F0000
1FE000
0FFE00
03FE00
01FE00
0FFE00
3FFE00
3F8000
7E0000
7C0000
FC0000
FC0000
FC0000
FE0000
7F8070
7FFFF0
3FFFF8
1FFFF8
07FFF8
01FFC0
ENDCHAR
STARTCHAR florin
ENCODING 402
SWIDTH 585 0
DWIDTH 25 0
BBX 23 39 1 -10
BITMAP
0003FE
001FFE
003FFC
007FFC
00FFFC
00FF00
00FC00
01F800
01F800
01F800
01F000
01F000
01F000
01F000
7FFFF8
7FFFF8
7FFFF8
7FFFF8
7FFFF8
01F000
01F000
01F000
01F000
01F000
01F000
01F000
01F000
01F000
01F000
01F000
01F000
03F000
03F000
07F000
FFE000
FFE000
FFC000
FF0000
FC0000
ENDCHAR
STARTCHAR uni0194
ENCODING 404
SWIDTH 585 0
DWIDTH 25 0
BBX 23 39 1 -10
BITMAP
F8007E
FC007E
FC007C
FC007C
7C00FC
7E00FC
7E00F8
7E00F8
3E01F8
3E01F8
3F01F0
1F01F0
1F03F0
1F03F0
1F83E0
0F83E0
0F87E0
0F87E0
0FC7C0
07C7C0
07CFC0
07CFC0
07EF80
03EF80
03EF80
03FF80
03FF00
01FF00
01FF00
03EF80
07CFC0
0FC7C0
0F87E0
0F87E0
0FFFE0
0FFFC0
07FFC0
03FF80
00FE00
ENDCHAR
STARTCHAR uni0196
ENCODING 406
SWIDTH 585 0
DWIDTH 25 0
BBX 20 31 2 0
BITMAP
FFE000
FFE000
FFE000
FFE000
FFE000
03E000
03E000
03E000
03E000
03E000
03E000
03E000
03E000
03E000
03E000
03E000
03E000
03E000
03E000
03E000
03E000
03E000
03E000
03F000
03F010
03FFF0
03FFF0
01FFF0
01FFF0
00FFF0
003FE0
ENDCHAR
STARTCHAR uni019A
ENCODING 410
SWIDTH 585 0
DWIDTH 25 0
BBX 20 31 2 0
BITMAP
FFE000
FFE000
FFE000
FFE000
FFE000
03E000
03E000
03E000
03E000
03E000
03E000
03E000
03E000
FFFF80
FFFF80
FFFF80
FFFF80
FFFF80
03E000
03E000
03E000
03E000
03E000
03F000
03F000
03FFF0
03FFF0
01FFF0
01FFF0
00FFF0
003FE0
ENDCHAR
STARTCHAR uni019B
ENCODING 411
SWIDTH 585 0
DWIDTH 25 0
BBX 23 31 1 0
BITMAP
1F8000
1FE000
0FF000
0FF010
0FF8F0
01FFF8
00FFF8
03FFF8
3FFFE0
FFFE00
FFFE00
FFFE00
78FE00
41FF00
01FF00
03FF00
03DF00
03DF80
07DF80
07CF80
0FCFC0
0FCFC0
1FC7C0
1F87C0
1F87E0
3F07F0
3F03FE
7F03FE
7E01FE
7E00FE
FE003E
ENDCHAR
STARTCHAR uni019D
ENCODING 413
SWIDTH 585 0
DWIDTH 25 0
BBX 24 39 -2 -10
BITMAP
07F81F
07F81F
07F81F
07FC1F
07FC1F
07FC1F
07DC1F
07DE1F
07DE1F
07DE1F
07CE1F
07CE1F
07CF1F
07CF1F
07C71F
07C71F
07C79F
07C79F
07C79F
07C39F
07C39F
07C3DF
07C3DF
07C1FF
07C1FF
07C1FF
07C1FF
07C1FF
07C0FF
07C000
07C000
07C000
0FC000
0FC000
FF8000
FF8000
FF8000
FF0000
FC0000
ENDCHAR
STARTCHAR Ohorn
ENCODING 416
SWIDTH 585 0
DWIDTH 25 0
BBX 25 34 1 0
BITMAP
00000F80
00001F80
00001F80
00001F80
00003F00
00FFFF00
07FFFE00
0FFFFC00
1FFFF000
3FFFF000
3F87F800
7F01F800
7E01F800
7E00FC00
7E00FC00
FC00FC00
FC007C00
FC007C00
FC007C00
FC007C00
FC007C00
FC007C00
FC007C00
FC00FC00
7C00FC00
7E00FC00
7E01FC00
7F01F800
3F87F800
3FFFF000
1FFFF000
0FFFE000
07FF8000
01FE0000
ENDCHAR
STARTCHAR ohorn
ENCODING 417
SWIDTH 585 0
DWIDTH 25 0
BBX 23 27 2 0
BITMAP
00003E
00003E
00007E
00007E
0000FC
01FFFC
07FFF8
1FFFF0
3FFFC0
3FFFE0
7F9FE0
7F07F0
7E03F0
7E03F0
FC03F0
FC03F0
FC03F0
FC03F0
7E03F0
7E03F0
7F07F0
7F8FE0
3FFFE0
3FFFC0
1FFF80
07FF00
01FC00
ENDCHAR
STARTCHAR uni01A9
ENCODING 425
SWIDTH 585 0
DWIDTH 25 0
BBX 19 29 3 0
BITMAP
FFFFE0
FFFFE0
FFFFE0
FFFFE0
FFFFE0
FE0000
7F0000
3F8000
1FC000
0FE000
07E000
07F000
03F800
01FC00
00FE00
01FC00
03F800
07F000
0FE000
0FC000
1FC000
3F8000
7F0000
FE0000
FFFFE0
FFFFE0
FFFFE0
FFFFE0
FFFFE0
ENDCHAR
STARTCHAR Uhorn
ENCODING 431
SWIDTH 585 0
DWIDTH 25 0
BBX 24 34 3 0
BITMAP
00003F
00003F
00003E
00003E
00007E
F803FC
F803FC
F803F8
F803E0
F803E0
F803E0
F803E0
F803E0
F803E0
F803E0
F803E0
F803E0
F803E0
F803E0
F803E0
F803E0
F803E0
F803E0
F803E0
F803E0
F803E0
F807E0
FC07E0
FE1FE0
FFFFC0
7FFFC0
3FFF80
1FFE00
07F800
ENDCHAR
STARTCHAR uhorn
ENCODING 432
SWIDTH 585 0
DWIDTH 25 0
BBX 22 28 3 0
BITMAP
00007C
00007C
0000FC
0000FC
0000FC
0001F8
F80FF8
F80FF0
F80FE0
F80FC0
F80FC0
F80FC0
F80FC0
F80FC0
F80FC0
F80FC0
F80FC0
F80FC0
F80FC0
F80FC0
F80FC0
FC1FC0
FE3FC0
FFFFF8
FFEFF8
7FE7F8
3FC7F8
1F87F8
ENDCHAR
STARTCHAR uni01B1
ENCODING 433
SWIDTH 585 0
DWIDTH 25 0
BBX 22 29 1 0
BITMAP
7FE7FC
7FE7FC
7FE7FC
7FE7FC
7FE7FC
07C7C0
0703C0
1F01F0
3E00F0
3E00F8
7C00F8
7C00FC
7C007C
FC007C
FC007C
FC007C
FC007C
FC007C
FC00FC
FC00FC
7E00FC
7E01FC
7F01F8
3F87F8
3FFFF0
1FFFF0
0FFFE0
07FF80
01FE00
ENDCHAR
STARTCHAR uni01B2
ENCODING 434
SWIDTH 585 0
DWIDTH 25 0
BBX 19 29 3 0
BITMAP
F87F00
F87FC0
F87FC0
F87FE0
F87FE0
F807E0
F807E0
F803E0
F803E0
F803E0
F803E0
F803E0
F803E0
F803E0
F803E0
F803E0
F803E0
F803E0
F803E0
F803E0
F803E0
F807E0
FC07E0
FE1FC0
FFFFC0
7FFFC0
3FFF80
1FFE00
07F800
ENDCHAR
STARTCHAR uni01B7
ENCODING 439
SWIDTH 585 0
DWIDTH 25 0
BBX 22 29 1 0
BITMAP
3FFFF0
3FFFF0
3FFFF0
3FFFF0
3FFFF0
0007F0
001FE0
003FC0
007F80
00FF00
01FC00
03F800
03FF80
03FFC0
03FFE0
03FFF0
0007F8
0001F8
0001F8
0000F8
0000FC
0800F8
1C01F8
3F07F8
7FFFF0
FFFFF0
7FFFE0
1FFF80
03FE00
ENDCHAR
STARTCHAR uni01CD
ENCODING 461
SWIDTH 585 0
DWIDTH 25 0
BBX 23 37 1 0
BITMAP
0FCFE0
07EF80
03FF00
01FF00
00FE00
000000
000000
000000
00FE00
00FE00
01FE00
01FF00
01FF00
03FF00
03FF80
03EF80
03EF80
07EF80
07CFC0
07C7C0
0FC7C0
0FC7E0
0F87E0
1F83E0
1F83E0
1F83F0
1F03F0
3FFFF0
3FFFF8
3FFFF8
7FFFF8
7FFFF8
7E00FC
7C00FC
FC00FC
FC007E
FC007E
ENDCHAR
STARTCHAR uni01CE
ENCODING 462
SWIDTH 585 0
DWIDTH 25 0
BBX 22 33 2 0
BITMAP
3F0FC0
1F9F80
1F9F00
0FBF00
07FE00
07FC00
03FC00
01F800
000000
000000
000000
1FF000
1FFE00
3FFF80
3FFF80
3FFFC0
001FE0
0007E0
0003E0
07FFE0
1FFFE0
7FFFE0
7FFFE0
FFFFE0
FC03E0
F807E0
F807E0
FC0FE0
FFFBFC
FFFBFC
7FFBFC
3FF3FC
0FC3FC
ENDCHAR
STARTCHAR uni01DD
ENCODING 477
SWIDTH 585 0
DWIDTH 25 0
BBX 20 22 2 0
BITMAP
7FF800
3FFE00
3FFF80
3FFFC0
3FFFC0
301FE0
0007E0
0003F0
0003F0
FFFFF0
FFFFF0
FFFFF0
FFFFF0
7C03F0
7C03F0
7E03F0
7F0FE0
3FFFE0
3FFFC0
1FFF80
0FFF00
03FC00
ENDCHAR
STARTCHAR uni01E4
ENCODING 484
SWIDTH 585 0
DWIDTH 25 0
BBX 24 29 1 0
BITMAP
007F80
03FFF0
07FFF8
0FFFFC
1FFFFC
3FE0F8
3F8030
7F0020
7E0000
7E0000
FC0000
FC0000
FC0000
FC00F8
FC00F8
FC00F8
FC0FFF
FC0FFF
FC0FFF
FE0FFF
7E0FFF
7F00F8
7F80F8
3FE0F8
1FFFF8
1FFFF8
07FFF8
03FFF8
007FC0
ENDCHAR
STARTCHAR uni01E5
ENCODING 485
SWIDTH 585 0
DWIDTH 25 0
BBX 23 32 1 -10
BITMAP
03F1F8
0FF9F8
1FFDF8
3FFDF8
3FFFF8
7F8FF8
7F03F8
7E03F8
7E01F8
7E01F8
7C01F8
7C01F8
7E01F8
7E01F8
7E03F8
7F03F8
7F87F8
3FFFF8
3FFDF8
1FFDF8
0FF9F8
03F1F8
0001F0
0001F0
FFFFFE
FFFFFE
0007F0
1FFFE0
1FFFC0
1FFF80
1FFF00
1FF800
ENDCHAR
STARTCHAR Gcaron
ENCODING 486
SWIDTH 585 0
DWIDTH 25 0
BBX 22 37 1 0
BITMAP
07F3F8
01F7E0
00FFC0
007F80
003F00
000000
000000
000000
007F80
03FFF0
07FFF8
0FFFFC
1FFFFC
3FE0F8
3F8030
7F0020
7E0000
7E0000
FC0000
FC0000
FC0000
FC0000
FC0FFC
FC0FFC
FC0FFC
FC0FFC
FC0FFC
FE00FC
7E00FC
7F00FC
7F80FC
3FE0FC
1FFFFC
1FFFFC
07FFFC
03FFFC
007FE0
ENDCHAR
STARTCHAR gcaron
ENCODING 487
SWIDTH 585 0
DWIDTH 25 0
BBX 20 43 2 -10
BITMAP
3F0FC0
1F9F80
1F9F00
0FBF00
07FE00
07FC00
03FC00
01F800
000000
000000
000000
07E3F0
1FF3F0
3FFBF0
7FFBF0
7FFFF0
FF1FF0
FE07F0
FC07F0
FC03F0
FC03F0
F803F0
F803F0
FC03F0
FC03F0
FC07F0
FE07F0
FF0FF0
7FFFF0
7FFBF0
3FFBF0
1FF3F0
07E3E0
0003E0
0003E0
0007E0
0007E0
000FC0
3FFFC0
3FFF80
3FFF00
3FFE00
3FF000
ENDCHAR
STARTCHAR uni01EA
ENCODING 490
SWIDTH 585 0
DWIDTH 25 0
BBX 22 38 1 -9
BITMAP
00FE00
07FF80
0FFFE0
1FFFE0
3FFFF0
3F87F8
7F01F8
7E01F8
7E00FC
7C00FC
FC00FC
FC00FC
FC007C
FC007C
FC007C
FC007C
FC007C
FC007C
FC00FC
FC00FC
7E00FC
7E00FC
7E01F8
3F03F8
3FFFF8
1FFFF0
1FFFE0
0FFFC0
03FF80
007C00
007800
00F000
01F000
01FA00
01FE00
01FE00
00FE00
003E00
ENDCHAR
STARTCHAR uni01EB
ENCODING 491
SWIDTH 585 0
DWIDTH 25 0
BBX 20 31 2 -9
BITMAP
01FC00
07FF00
1FFF80
1FFFC0
3FFFE0
7F9FE0
7F07F0
7E03F0
7E03F0
FC03F0
FC03F0
FC03F0
FC03F0
7E03F0
7E03F0
7E07F0
7F07E0
3FFFE0
3FFFC0
1FFFC0
0FFF80
07FE00
007800
00E000
01E000
01E000
01FC00
01FC00
01FC00
00FC00
007C00
ENDCHAR
STARTCHAR uni01F0
ENCODING 496
SWIDTH 585 0
DWIDTH 25 0
BBX 21 43 3 -10
BITMAP
07E3F8
03E3F0
03F3E0
01F7E0
00FFC0
00FF80
007F80
007F00
000000
000000
000000
3FFF00
3FFF00
3FFF00
3FFF00
3FFF00
003F00
003F00
003F00
003F00
003F00
003F00
003F00
003F00
003F00
003F00
003F00
003F00
003F00
003F00
003F00
003F00
003F00
003E00
003E00
007E00
007E00
01FE00
FFFC00
7FF800
7FF800
7FE000
7F8000
ENDCHAR
STARTCHAR Aringacute
ENCODING 506
SWIDTH 585 0
DWIDTH 25 0
BBX 23 43 1 0
BITMAP
001FE0
003FC0
007F00
007E00
00FC00
01FF00
03FF80
07C780
07C780
07C780
03FF80
01FF00
00FC00
000000
00FE00
00FE00
01FE00
01FF00
01FF00
03FF00
03FF80
03EF80
03EF80
07EF80
07CFC0
07C7C0
0FC7C0
0FC7E0
0F87E0
1F83E0
1F83E0
1F83F0
1F03F0
3FFFF0
3FFFF8
3FFFF8
7FFFF8
7FFFF8
7E00FC
7C00FC
FC00FC
FC007E
FC007E
ENDCHAR
STARTCHAR aringacute
ENCODING 507
SWIDTH 585 0
DWIDTH 25 0
BBX 22 39 2 0
BITMAP
003F00
003E00
007E00
007C00
00FC00
00F800
01F800
07FE00
07FE00
0F9F00
0F1F00
0F9F00
07FE00
07FC00
01F800
000000
000000
1FF000
1FFE00
3FFF80
3FFF80
3FFFC0
001FE0
0007E0
0003E0
07FFE0
1FFFE0
7FFFE0
7FFFE0
FFFFE0
FC03E0
F807E0
F807E0
FC0FE0
FFFBFC
FFFBFC
7FFBFC
3FF3FC
0FC3FC
ENDCHAR
STARTCHAR AEacute
ENCODING 508
SWIDTH 585 0
DWIDTH 25 0
BBX 22 38 1 0
BITMAP
0007F8
0007F0
000FE0
001FC0
003F80
007F00
000000
000000
000000
03FFFC
03FFFC
03FFFC
03FFFC
07FFFC
07DF00
07DF00
079F00
0F9F00
0F9F00
0F9F00
0F9F00
1F1FF8
1F1FF8
1F1FF8
1F1FF8
3F1FF8
3E1F00
3E1F00
3E1F00
3E1F00
7FFF00
7FFF00
7FFF00
7FFFFC
FFFFFC
FC1FFC
F81FFC
F81FFC
ENDCHAR
STARTCHAR aeacute
ENCODING 509
SWIDTH 585 0
DWIDTH 25 0
BBX 24 33 0 0
BITMAP
0007E0
0007E0
000FC0
000F80
001F80
001F00
003F00
007E00
000000
000000
000000
1F00F8
1FC1FC
1FE3FE
3FF7FE
3FF7FF
01FF3F
007E1F
003E1F
003E1F
07FFFF
1FFFFF
7FFFFF
7FFFFF
FC3E00
FC3F00
F83F80
FC77C0
FFF7FE
FFF7FE
7FE3FE
3FC1FE
1F807F
ENDCHAR
STARTCHAR Oslashacute
ENCODING 510
SWIDTH 585 0
DWIDTH 25 0
BBX 22 40 1 -2
BITMAP
0007F0
000FE0
001FC0
003F80
007F00
00FE00
000000
000020
00007C
00FE78
07FFF8
0FFFF0
1FFFF0
3FFFF0
3F87F8
7F03F8
7E07F8
7E0FFC
7E0FFC
FC1FFC
FC1E7C
FC3E7C
FC3C7C
FC7C7C
FC787C
FCF07C
FCF07C
FDE0FC
7FE0FC
7FC0FC
7FC1FC
7F81F8
3F87F8
3FFFF0
1FFFF0
3FFFE0
3FFF80
7DFE00
F80000
380000
ENDCHAR
STARTCHAR oslashacute
ENCODING 511
SWIDTH 585 0
DWIDTH 25 0
BBX 20 35 2 -2
BITMAP
001F80
001F80
003F00
003E00
007E00
007C00
00FC00
01F800
000000
0000C0
0001E0
01FDE0
07FFC0
1FFF80
3FFFC0
3FFFE0
7F9FE0
7F1FF0
7E1FF0
7E3FF0
FC7BF0
FC7BF0
FCF3F0
FCE3F0
7DE3F0
7FC3F0
7F87F0
7F8FE0
3FFFE0
1FFFC0
1FFF80
1FFF00
3DFC00
780000
180000
ENDCHAR
STARTCHAR uni0218
ENCODING 536
SWIDTH 585 0
DWIDTH 25 0
BBX 20 39 2 -10
BITMAP
01FE00
0FFF80
1FFFE0
3FFFF0
3FFFE0
7F87E0
7E01C0
7E0080
7E0000
7E0000
3F0000
3FC000
1FF000
0FFC00
07FF00
03FF80
00FFC0
001FE0
0007E0
0003F0
0003F0
0003F0
4003F0
7C0FF0
7FFFE0
7FFFE0
FFFFC0
7FFF00
0FFC00
000000
000000
000000
01FC00
01F800
01F800
01F000
01F000
03F000
03E000
ENDCHAR
STARTCHAR uni0219
ENCODING 537
SWIDTH 585 0
DWIDTH 25 0
BBX 19 32 3 -10
BITMAP
01FFC0
0FFFC0
3FFFC0
7FFFC0
7FFFC0
FF0000
FC0000
FC0000
FF8000
7FF800
3FFF00
1FFF80
03FFC0
003FC0
000FE0
0007E0
F01FE0
FFFFC0
FFFFC0
FFFF80
FFFF00
7FF800
000000
000000
000000
03F000
03F000
03E000
07E000
07E000
07C000
07C000
ENDCHAR
STARTCHAR uni021A
ENCODING 538
SWIDTH 585 0
DWIDTH 25 0
BBX 22 39 1 -10
BITMAP
FFFFFC
FFFFFC
FFFFFC
FFFFFC
FFFFFC
007C00
007C00
007C00
007C00
007C00
007C00
007C00
007C00
007C00
007C00
007C00
007C00
007C00
007C00
007C00
007C00
007C00
007C00
007C00
007C00
007C00
007C00
007C00
007C00
000000
000000
000000
00FC00
00FC00
00F800
01F800
01F800
01F000
01F000
ENDCHAR
STARTCHAR uni021B
ENCODING 539
SWIDTH 585 0
DWIDTH 25 0
BBX 21 39 1 -10
BITMAP
07E000
07E000
07E000
07E000
07E000
07E000
07E000
FFFFF0
FFFFF0
FFFFF0
FFFFF0
FFFFF0
07E000
07E000
07E000
07E000
07E000
07E000
07E000
07E000
07E000
07E000
03F000
03FC08
03FFF8
01FFF8
00FFF8
007FF8
001FF8
000000
000000
000000
003F00
007E00
007E00
007C00
007C00
00FC00
00F800
ENDCHAR
STARTCHAR uni021E
ENCODING 542
SWIDTH 585 0
DWIDTH 25 0
BBX 19 37 3 0
BITMAP
3F3F80
1FBE00
0FFC00
07FC00
03F800
000000
000000
000000
F803E0
F803E0
F803E0
F803E0
F803E0
F803E0
F803E0
F803E0
F803E0
F803E0
F803E0
F803E0
FFFFE0
FFFFE0
FFFFE0
FFFFE0
FFFFE0
F803E0
F803E0
F803E0
F803E0
F803E0
F803E0
F803E0
F803E0
F803E0
F803E0
F803E0
F803E0
ENDCHAR
STARTCHAR uni021F
ENCODING 543
SWIDTH 585 0
DWIDTH 25 0
BBX 24 39 -2 0
BITMAP
FE7F00
3EFC00
1FF800
0FF000
07E000
000000
000000
000000
07E000
07E000
07E000
07E000
07E000
07E000
07E000
07E000
07E000
07E3E0
07EFF8
07EFFC
07FFFE
07FFFE
07F8FE
07F07E
07E03F
07E03F
07E03F
07E03F
07E03F
07E03F
07E03F
07E03F
07E03F
07E03F
07E03F
07E03F
07E03F
07E03F
07E03F
ENDCHAR
STARTCHAR uni0232
ENCODING 562
SWIDTH 585 0
DWIDTH 25 0
BBX 24 37 0 0
BITMAP
0FFFF0
0FFFF0
0FFFF0
0FFFF0
0FFFF0
000000
000000
000000
FC003F
7E003F
7E007E
3F007E
3F00FC
1F80FC
1F80F8
0FC1F8
0FC1F0
07C3F0
07E3E0
03E7E0
03F7C0
01FFC0
01FFC0
00FF80
00FF80
007F00
007F00
007E00
003E00
003E00
003E00
003E00
003E00
003E00
003E00
003E00
003E00
ENDCHAR
STARTCHAR uni0233
ENCODING 563
SWIDTH 585 0
DWIDTH 25 0
BBX 22 40 1 -10
BITMAP
1FFFF0
1FFFF0
1FFFF0
1FFFF0
1FFFF0
000000
000000
000000
FC00FC
FC00FC
7C00F8
7E01F8
7E01F8
3E01F8
3F01F0
3F03F0
1F03F0
1F83E0
1F87E0
0F87E0
0FC7C0
0FC7C0
07CFC0
07EF80
07EF80
03FF80
03FF80
03FF00
01FF00
01FF00
003E00
007E00
00FC00
01FC00
0FF800
FFF000
FFE000
FFC000
FF0000
E00000
ENDCHAR
STARTCHAR uni0237
ENCODING 567
SWIDTH 585 0
DWIDTH 25 0
BBX 16 32 3 -10
BITMAP
3FFF
3FFF
3FFF
3FFF
3FFF
003F
003F
003F
003F
003F
003F
003F
003F
003F
003F
003F
003F
003F
003F
003F
003F
003F
003E
003E
007E
007E
01FE
FFFC
7FF8
7FF8
7FE0
7F80
ENDCHAR
STARTCHAR uni023A
ENCODING 570
SWIDTH 585 0
DWIDTH 25 0
BBX 23 42 1 -7
BITMAP
0007C0
000780
000780
000780
000780
000F80
00FF00
00FF00
01FF00
01FF00
01FF00
03FF00
03FF80
03EF80
03EF80
07FF80
07DFC0
07DFC0
0FDFC0
0F9FE0
0F9FE0
1FBBE0
1FBBE0
1F33F0
1FFFF0
3FFFF0
3FFFF8
3FFFF8
7FFFF8
7EF0F8
7EF0FC
7CF0FC
FCF07C
FDF07E
FDF07E
01E000
01E000
01E000
01E000
03E000
03C000
00C000
ENDCHAR
STARTCHAR uni023B
ENCODING 571
SWIDTH 585 0
DWIDTH 25 0
BBX 22 41 1 -6
BITMAP
000320
0003C0
0003C0
0003C0
0003C0
0007C0
007FC0
01FFF0
07FFF8
0FFFFC
1FFFFC
1FEFF8
3F8F30
3F0F00
7F0F00
7E0F00
7E1F00
7C1E00
FC1E00
FC1E00
FC1E00
FC1E00
FC3E00
7C3C00
7E3C00
7E3C00
7E3C00
3F3C00
3FF800
3FF838
1FFFF8
0FFFF8
07FFFC
01FFFC
00FFE0
00F000
00F000
00F000
01F000
01F000
01E000
ENDCHAR
STARTCHAR uni023D
ENCODING 573
SWIDTH 585 0
DWIDTH 25 0
BBX 23 29 0 0
BITMAP
1F0000
1F0000
1F0000
1F0000
1F0000
1F0000
1F0000
1F0000
1F0000
1F0000
1F0000
FFFF80
FFFF80
FFFF80
FFFF80
FFFF80
1F0000
1F0000
1F0000
1F0000
1F0000
1F0000
1F0000
1F0000
1FFFFE
1FFFFE
1FFFFE
1FFFFE
1FFFFE
ENDCHAR
STARTCHAR uni023E
ENCODING 574
SWIDTH 585 0
DWIDTH 25 0
BBX 22 42 1 -7
BITMAP
000074
000078
000078
0000F8
0000F0
0000F0
FFFFFC
FFFFFC
FFFFFC
FFFFFC
FFFFFC
007FC0
007FC0
007F80
007F80
007F80
007F00
007F00
007F00
007E00
007E00
007C00
007C00
007C00
007C00
007C00
007C00
00FC00
00FC00
00FC00
01FC00
01FC00
01FC00
03FC00
03FC00
03C000
078000
078000
078000
0F0000
0F0000
030000
ENDCHAR
STARTCHAR uni0245
ENCODING 581
SWIDTH 585 0
DWIDTH 25 0
BBX 23 29 1 0
BITMAP
00FE00
00FE00
01FE00
01FF00
01FF00
03FF00
03FF80
03EF80
03EF80
07EF80
07CFC0
07C7C0
0FC7C0
0F87E0
0F87E0
1F83E0
1F83E0
1F03F0
1F03F0
3F01F0
3F01F8
3E01F8
7E01F8
7E00F8
7E00FC
7C00FC
FC007C
FC007E
FC007E
ENDCHAR
STARTCHAR uni0251
ENCODING 593
SWIDTH 585 0
DWIDTH 25 0
BBX 23 22 1 0
BITMAP
03E3F0
0FFBF0
1FFBF0
3FFFF0
7FFFF0
7F8FF0
7E07F0
FE03F0
FC03F0
FC03F0
FC03F0
FC03F0
FC03F0
FC03F0
FC03F0
FE07F0
7F8FF0
7FFFFE
3FFDFE
3FF9FE
0FF9FE
07E1FE
ENDCHAR
STARTCHAR uni0254
ENCODING 596
SWIDTH 585 0
DWIDTH 25 0
BBX 20 22 2 0
BITMAP
1FF800
7FFE00
3FFF80
3FFFC0
3FFFC0
383FE0
000FE0
0007F0
0003F0
0003F0
0003F0
0003F0
0003F0
0003F0
0007F0
1007E0
3C3FE0
3FFFC0
7FFFC0
FFFF80
3FFE00
0FF000
ENDCHAR
STARTCHAR uni0259
ENCODING 601
SWIDTH 585 0
DWIDTH 25 0
BBX 20 22 2 0
BITMAP
7FF800
3FFE00
3FFF80
3FFFC0
3FFFC0
301FE0
0007E0
0003F0
0003F0
FFFFF0
FFFFF0
FFFFF0
FFFFF0
7C03F0
7C03F0
7E03F0
7F0FE0
3FFFE0
3FFFC0
1FFF80
0FFF00
03FC00
ENDCHAR
STARTCHAR uni025B
ENCODING 603
SWIDTH 585 0
DWIDTH 25 0
BBX 19 22 3 0
BITMAP
07FF80
1FFFE0
7FFFC0
7FFFC0
7FFFC0
7F01C0
7E0000
3F0000
1FFC00
07FC00
01FC00
0FFC00
3FFC00
7F0000
FC0000
FC0000
FF07C0
FFFFC0
7FFFC0
7FFFC0
3FFFE0
07FF80
ENDCHAR
STARTCHAR uni0262
ENCODING 610
SWIDTH 585 0
DWIDTH 25 0
BBX 22 22 1 0
BITMAP
007FE0
03FFFC
0FFFFC
1FFFF8
3FFFF8
3FE070
7F8000
7E0000
7E0000
FC07FC
FC07FC
FC07FC
FC07FC
7E07FC
7E007C
7F007C
7FF07C
3FFFFC
1FFFFC
0FFFFC
07FFFC
00FFF0
ENDCHAR
STARTCHAR uni0263
ENCODING 611
SWIDTH 585 0
DWIDTH 25 0
BBX 22 32 1 -10
BITMAP
FC00FC
7C00FC
7E00F8
7E00F8
3E01F8
3F01F8
3F01F0
1F03F0
1F03F0
1F83E0
0F83E0
0F87E0
0FC7C0
07C7C0
07CFC0
07EF80
03EF80
03FF80
03FF00
01FF00
01FF00
03FF00
03EF80
07CFC0
0FC7C0
0F87E0
0F87E0
0FFFE0
0FFFC0
07FFC0
03FF80
00FE00
ENDCHAR
STARTCHAR uni0269
ENCODING 617
SWIDTH 585 0
DWIDTH 25 0
BBX 20 22 2 0
BITMAP
FFF000
FFF000
FFF000
FFF000
FFF000
03F000
03F000
03F000
03F000
03F000
03F000
03F000
03F000
03F000
03F000
03F000
03FC30
01FFF0
01FFF0
00FFF0
00FFF0
003FE0
ENDCHAR
STARTCHAR uni026A
ENCODING 618
SWIDTH 585 0
DWIDTH 25 0
BBX 18 22 3 0
BITMAP
FFFFC0
FFFFC0
FFFFC0
FFFFC0
FFFFC0
01F000
01F000
01F000
01F000
01F000
01F000
01F000
01F000
01F000
01F000
01F000
01F000
FFFFC0
FFFFC0
FFFFC0
FFFFC0
FFFFC0
ENDCHAR
STARTCHAR uni026B
ENCODING 619
SWIDTH 585 0
DWIDTH 25 0
BBX 21 31 1 0
BITMAP
7FF000
7FF000
7FF000
7FF000
7FF000
01F000
01F000
01F000
01F000
01F000
01F000
0FF3E0
7FF3E0
7FF3E0
FFFFE0
FFFFE0
F9FFC0
F9FFC0
F9F600
01F000
01F000
01F000
01F000
01F800
01F808
01FFF8
01FFF8
00FFF8
00FFF8
007FF8
001FF0
ENDCHAR
STARTCHAR uni026C
ENCODING 620
SWIDTH 585 0
DWIDTH 25 0
BBX 22 31 0 0
BITMAP
3FF800
3FF800
3FF800
3FF800
3FF800
00F800
00F800
00F800
3EF800
7EF800
FFF800
FFF800
FCF800
F8F800
F8F800
FCF800
FFFFF0
7FFFF0
7FFFF0
3FFFF0
0FFFF0
00F800
00F800
00FC00
00FC00
00FFFC
00FFFC
007FFC
007FFC
003FFC
000FF8
ENDCHAR
STARTCHAR uni0272
ENCODING 626
SWIDTH 585 0
DWIDTH 25 0
BBX 24 32 -2 -10
BITMAP
07C3E0
07CFF8
07CFFC
07DFFE
07FFFE
07F8FE
07F07E
07E03F
07E03F
07E03F
07E03F
07E03F
07E03F
07E03F
07E03F
07E03F
07E03F
07E03F
07E03F
07E03F
07E03F
07E03F
07E000
07C000
0FC000
1FC000
FF8000
FF8000
FF0000
FE0000
F80000
800000
ENDCHAR
STARTCHAR uni0283
ENCODING 643
SWIDTH 585 0
DWIDTH 25 0
BBX 22 41 2 -10
BITMAP
0003FC
001FFC
003FFC
007FFC
00FFFC
00FF00
01FC00
01F800
01F800
01F000
01F000
01F000
01F000
01F000
01F000
01F000
01F000
01F000
01F000
01F000
01F000
01F000
01F000
01F000
01F000
01F000
01F000
01F000
01F000
01F000
01F000
01F000
03F000
03F000
07E000
7FE000
FFC000
FFC000
FF8000
FE0000
C00000
ENDCHAR
STARTCHAR uni028A
ENCODING 650
SWIDTH 585 0
DWIDTH 25 0
BBX 22 22 1 0
BITMAP
7FE7FC
7FE7FC
7FE7FC
7FE7FC
7FE7FC
0783C0
0F01E0
1E00F0
3E00F8
7C00FC
7C00FC
FC007C
FC00FC
FC00FC
FE00FC
FF01FC
7FC7FC
7FFFF8
3FFFF8
1FFFF0
0FFFC0
01FF00
ENDCHAR
STARTCHAR uni028B
ENCODING 651
SWIDTH 585 0
DWIDTH 25 0
BBX 19 22 3 0
BITMAP
F87F00
F87FC0
F87FC0
F87FE0
F87FE0
F80FE0
F807E0
F807E0
F807E0
F807E0
F807E0
F807E0
F807E0
F807E0
FC07E0
FC07E0
FF1FC0
7FFFC0
7FFF80
3FFF80
1FFE00
07F800
ENDCHAR
STARTCHAR uni028C
ENCODING 652
SWIDTH 585 0
DWIDTH 25 0
BBX 22 22 1 0
BITMAP
00FE00
01FE00
01FF00
01FF00
03FF00
03EF80
03EF80
07CF80
07C7C0
07C7C0
0FC7C0
0F83E0
0F83E0
1F83E0
1F03F0
1F01F0
3F01F0
3E01F8
3E00F8
7E00F8
7C00FC
FC00FC
ENDCHAR
STARTCHAR uni0292
ENCODING 658
SWIDTH 585 0
DWIDTH 25 0
BBX 21 32 1 -10
BITMAP
3FFFF0
3FFFF0
3FFFF0
3FFFF0
3FFFF0
0007F0
000FE0
001FC0
003F80
007F00
00FE00
01FC00
03F800
03FF00
03FFC0
03FFE0
03FFF0
003FF0
0007F8
0003F8
0001F8
0001F8
0001F8
0001F8
1001F8
3803F8
7F0FF0
7FFFF0
FFFFE0
3FFFC0
1FFF80
03FC00
ENDCHAR
STARTCHAR uni0294
ENCODING 660
SWIDTH 585 0
DWIDTH 25 0
BBX 19 31 2 0
BITMAP
03FC00
0FFF00
3FFF80
7FFFC0
FFFFC0
7F1FE0
7807E0
3007E0
1007E0
0007E0
0007E0
0007E0
000FC0
001FC0
003F80
007F00
007F00
00FE00
00FC00
01F800
01F800
01F800
01F800
01F800
01F800
01F800
01F800
01F800
01F800
01F800
01F800
ENDCHAR
STARTCHAR uni0295
ENCODING 661
SWIDTH 585 0
DWIDTH 25 0
BBX 20 31 3 0
BITMAP
03F800
0FFF00
3FFF80
3FFFE0
7FFFF0
7F0FE0
7E03C0
FC0180
FC0080
FC0000
7E0000
7E0000
7F0000
3F8000
3FC000
1FC000
0FE000
07F000
03F000
03F000
01F800
01F800
01F800
01F800
01F800
01F800
01F800
01F800
01F800
01F800
01F800
ENDCHAR
STARTCHAR uni029F
ENCODING 671
SWIDTH 585 0
DWIDTH 25 0
BBX 20 22 3 0
BITMAP
F80000
F80000
F80000
F80000
F80000
F80000
F80000
F80000
F80000
F80000
F80000
F80000
F80000
F80000
F80000
F80000
F80000
FFFFF0
FFFFF0
FFFFF0
FFFFF0
FFFFF0
ENDCHAR
STARTCHAR uni02A7
ENCODING 679
SWIDTH 585 0
DWIDTH 25 0
BBX 26 39 0 -10
BITMAP
00001FC0
0F807FC0
0F80FF80
0F80FF80
0F81FF80
0F81FC00
0F81F800
FFFFF800
FFFFF800
FFFFF800
FFFFF800
FFFFF800
0F81F800
0F81F800
0F81F800
0F81F800
0F81F800
0F81F800
0F81F800
0F81F800
0F81F800
0F81F800
0FC1F800
0FF9F800
0FF9F800
0FF9F800
07F9F800
07F9F800
01F9F800
0001F800
0001F800
0003F000
0007F000
00FFF000
00FFF000
00FFE000
00FFC000
00FF8000
00FC0000
ENDCHAR
STARTCHAR uni02B7
ENCODING 695
SWIDTH 585 0
DWIDTH 25 0
BBX 18 13 3 16
BITMAP
F8C7C0
78C7C0
78E780
78E780
7DE780
7DA780
7DAF80
3D2F80
3F3F00
3F3F00
3F3F00
3F3F00
3F3F00
ENDCHAR
STARTCHAR uni02B8
ENCODING 696
SWIDTH 585 0
DWIDTH 25 0
BBX 15 19 5 10
BITMAP
F83E
FC3E
7C7E
7C7C
7C7C
7C7C
3EFC
3EF8
3EF8
1FF8
1FF0
1FF0
1FF0
03F0
0FE0
FFE0
FFC0
FF80
FE00
ENDCHAR
STARTCHAR uni02BB
ENCODING 699
SWIDTH 585 0
DWIDTH 25 0
BBX 12 14 7 16
BITMAP
01F0
03E0
03E0
07E0
07C0
0FC0
0FC0
1F80
1F80
3F80
3F80
7F00
7F00
FF00
ENDCHAR
STARTCHAR uni02BC
ENCODING 700
SWIDTH 585 0
DWIDTH 25 0
BBX 10 16 7 13
BITMAP
FC00
FF00
FF80
FF80
FF80
1FC0
0FC0
0FC0
0F80
0F80
1F80
3F00
7F00
7E00
3C00
0800
ENDCHAR
STARTCHAR uni02C0
ENCODING 704
SWIDTH 585 0
DWIDTH 25 0
BBX 15 16 4 16
BITMAP
1FE0
7FF8
FFFC
7FFE
7FFE
387E
007E
007E
007E
01FC
03F8
07F0
07E0
07C0
07C0
07C0
ENDCHAR
STARTCHAR circumflex
ENCODING 710
SWIDTH 585 0
DWIDTH 25 0
BBX 16 8 4 25
BITMAP
07E0
07F0
0FF8
1FF8
1F7C
3F7E
7E3E
FE3F
ENDCHAR
STARTCHAR caron
ENCODING 711
SWIDTH 585 0
DWIDTH 25 0
BBX 16 8 4 25
BITMAP
FE3F
7E3E
3E7E
3F7C
1FFC
0FF8
0FF0
07F0
ENDCHAR
STARTCHAR uni02C9
ENCODING 713
SWIDTH 585 0
DWIDTH 25 0
BBX 18 5 3 25
BITMAP
FFFFC0
FFFFC0
FFFFC0
FFFFC0
FFFFC0
ENDCHAR
STARTCHAR uni02D0
ENCODING 720
SWIDTH 585 0
DWIDTH 25 0
BBX 11 22 7 0
BITMAP
FFE0
7FC0
7F80
3F80
3F00
1F00
0E00
0C00
0400
0000
0000
0000
0000
0400
0C00
0E00
1E00
1F00
3F80
7F80
7FC0
FFE0
ENDCHAR
STARTCHAR breve
ENCODING 728
SWIDTH 585 0
DWIDTH 25 0
BBX 16 8 4 25
BITMAP
FC1F
FC1F
FC1F
7C3F
7FFF
3FFE
1FFC
07F0
ENDCHAR
STARTCHAR dotaccent
ENCODING 729
SWIDTH 585 0
DWIDTH 25 0
BBX 7 7 9 24
BITMAP
38
FC
FE
FE
FE
FC
78
ENDCHAR
STARTCHAR ring
ENCODING 730
SWIDTH 585 0
DWIDTH 25 0
BBX 11 9 7 24
BITMAP
3F00
7FC0
FFE0
F3E0
F1E0
F3E0
FFE0
7FC0
3F00
ENDCHAR
STARTCHAR ogonek
ENCODING 731
SWIDTH 585 0
DWIDTH 25 0
BBX 7 9 8 -9
BITMAP
3E
38
F0
F0
FA
FE
FE
FE
3E
ENDCHAR
STARTCHAR tilde
ENCODING 732
SWIDTH 585 0
DWIDTH 25 0
BBX 16 7 4 26
BITMAP
1C1F
7F1F
7FFF
FFFF
FFFF
FCFE
F81C
ENDCHAR
STARTCHAR hungarumlaut
ENCODING 733
SWIDTH 585 0
DWIDTH 25 0
BBX 18 8 4 25
BITMAP
0FCFC0
1F9F80
1F9F00
1F3F00
3F3E00
3E7E00
7E7C00
FCFC00
ENDCHAR
STARTCHAR gravecomb
ENCODING 768
SWIDTH 0 0
DWIDTH 0 0
BBX 9 8 7 25
BITMAP
FC00
FC00
7E00
7E00
3F00
1F00
1F80
0F80
ENDCHAR
STARTCHAR acutecomb
ENCODING 769
SWIDTH 0 0
DWIDTH 0 0
BBX 10 8 8 25
BITMAP
0FC0
1F80
1F80
3F00
3F00
7E00
7E00
FC00
ENDCHAR
STARTCHAR uni0302
ENCODING 770
SWIDTH 0 0
DWIDTH 0 0
BBX 16 8 4 25
BITMAP
07E0
07F0
0FF8
1FF8
1F7C
3F7E
7E3E
FE3F
ENDCHAR
STARTCHAR tildecomb
ENCODING 771
SWIDTH 0 0
DWIDTH 0 0
BBX 16 7 4 26
BITMAP
1C1F
7F1F
7FFF
FFFF
FFFF
FCFE
F81C
ENDCHAR
STARTCHAR uni0304
ENCODING 772
SWIDTH 0 0
DWIDTH 0 0
BBX 18 5 3 25
BITMAP
FFFFC0
FFFFC0
FFFFC0
FFFFC0
FFFFC0
ENDCHAR
STARTCHAR uni0306
ENCODING 774
SWIDTH 0 0
DWIDTH 0 0
BBX 16 8 4 25
BITMAP
FC1F
FC1F
FC1F
7C3F
7FFF
3FFE
1FFC
07F0
ENDCHAR
STARTCHAR uni0307
ENCODING 775
SWIDTH 0 0
DWIDTH 0 0
BBX 7 7 9 24
BITMAP
38
FC
FE
FE
FE
FC
78
ENDCHAR
STARTCHAR uni0308
ENCODING 776
SWIDTH 0 0
DWIDTH 0 0
BBX 16 6 4 25
BITMAP
7C1E
7E3F
FE3F
7E3F
7C3F
381E
ENDCHAR
STARTCHAR hookabovecomb
ENCODING 777
SWIDTH 0 0
DWIDTH 0 0
BBX 10 9 7 26
BITMAP
1E00
FF80
FFC0
7FC0
47C0
0F80
1F80
1F00
1E00
ENDCHAR
STARTCHAR uni030A
ENCODING 778
SWIDTH 0 0
DWIDTH 0 0
BBX 11 9 7 24
BITMAP
3F00
7FC0
FFE0
F3E0
F1E0
F3E0
FFE0
7FC0
3F00
ENDCHAR
STARTCHAR uni030B
ENCODING 779
SWIDTH 0 0
DWIDTH 0 0
BBX 18 8 4 25
BITMAP
0FCFC0
1F9F80
1F9F00
1F3F00
3F3E00
3E7E00
7E7C00
FCFC00
ENDCHAR
STARTCHAR uni030C
ENCODING 780
SWIDTH 0 0
DWIDTH 0 0
BBX 16 8 4 25
BITMAP
FE3F
7E3E
3E7E
3F7C
1FFC
0FF8
0FF0
07F0
ENDCHAR
STARTCHAR uni0312
ENCODING 786
SWIDTH 0 0
DWIDTH 0 0
BBX 7 8 9 25
BITMAP
3E
3E
3E
7E
7E
7C
7C
FC
ENDCHAR
STARTCHAR uni0313
ENCODING 787
SWIDTH 0 0
DWIDTH 0 0
BBX 7 8 9 25
BITMAP
7E
7E
7E
7C
7C
7C
7C
F8
ENDCHAR
STARTCHAR uni0315
ENCODING 789
SWIDTH 0 0
DWIDTH 0 0
BBX 7 8 9 25
BITMAP
7E
7E
7E
7C
7C
7C
7C
F8
ENDCHAR
STARTCHAR uni031B
ENCODING 795
SWIDTH 0 0
DWIDTH 0 0
BBX 10 10 7 17
BITMAP
07C0
07C0
0FC0
0FC0
1FC0
FF80
FF00
FE00
F800
8000
ENDCHAR
STARTCHAR dotbelowcomb
ENCODING 803
SWIDTH 0 0
DWIDTH 0 0
BBX 7 7 9 -9
BITMAP
38
FC
FE
FE
FE
FC
78
ENDCHAR
STARTCHAR uni0325
ENCODING 805
SWIDTH 0 0
DWIDTH 0 0
BBX 11 9 7 -11
BITMAP
3F00
7FC0
FFE0
F3E0
F1E0
F3E0
FFE0
7FC0
3F00
ENDCHAR
STARTCHAR uni0326
ENCODING 806
SWIDTH 0 0
DWIDTH 0 0
BBX 7 7 8 -10
BITMAP
7E
7E
7C
7C
FC
F8
F8
ENDCHAR
STARTCHAR uni0327
ENCODING 807
SWIDTH 0 0
DWIDTH 0 0
BBX 9 10 8 -10
BITMAP
3C00
7C00
7C00
FF00
1F00
1F80
3F00
FF00
FE00
F800
ENDCHAR
STARTCHAR uni0328
ENCODING 808
SWIDTH 0 0
DWIDTH 0 0
BBX 7 9 8 -9
BITMAP
3E
38
F0
F0
FA
FE
FE
FE
3E
ENDCHAR
STARTCHAR uni0331
ENCODING 817
SWIDTH 0 0
DWIDTH 0 0
BBX 25 5 0 -9
BITMAP
FFFFFF80
FFFFFF80
FFFFFF80
FFFFFF80
FFFFFF80
ENDCHAR
STARTCHAR uni0332
ENCODING 818
SWIDTH 0 0
DWIDTH 0 0
BBX 25 5 0 -9
BITMAP
FFFFFF80
FFFFFF80
FFFFFF80
FFFFFF80
FFFFFF80
ENDCHAR
STARTCHAR uni0340
ENCODING 832
SWIDTH 0 0
DWIDTH 0 0
BBX 9 8 7 25
BITMAP
FC00
FC00
7E00
7E00
3F00
1F00
1F80
0F80
ENDCHAR
STARTCHAR uni0341
ENCODING 833
SWIDTH 0 0
DWIDTH 0 0
BBX 10 8 8 25
BITMAP
0FC0
1F80
1F80
3F00
3F00
7E00
7E00
FC00
ENDCHAR
STARTCHAR uni0342
ENCODING 834
SWIDTH 0 0
DWIDTH 0 0
BBX 16 7 4 26
BITMAP
1C1F
7F1F
7FFF
FFFF
FFFF
FCFE
F81C
ENDCHAR
STARTCHAR uni0374
ENCODING 884
SWIDTH 585 0
DWIDTH 25 0
BBX 10 16 7 13
BITMAP
FC00
FF00
FF80
FF80
FF80
1FC0
0FC0
0FC0
0F80
0F80
1F80
3F00
7F00
7E00
3C00
0800
ENDCHAR
STARTCHAR uni0375
ENCODING 885
SWIDTH 585 0
DWIDTH 25 0
BBX 8 14 8 -9
BITMAP
7F
7E
7E
7E
7E
7E
7C
7C
FC
FC
FC
FC
F8
F8
ENDCHAR
STARTCHAR uni037E
ENCODING 894
SWIDTH 585 0
DWIDTH 25 0
BBX 8 31 8 -9
BITMAP
3C
7E
7F
FF
FF
7F
7F
3C
00
00
00
00
00
00
00
00
00
7F
7E
7E
7E
7E
7E
7C
7C
FC
FC
FC
FC
F8
F8
ENDCHAR
STARTCHAR tonos
ENCODING 900
SWIDTH 585 0
DWIDTH 25 0
BBX 10 8 8 25
BITMAP
0FC0
1F80
1F80
3F00
3F00
7E00
7E00
FC00
ENDCHAR
STARTCHAR dieresistonos
ENCODING 901
SWIDTH 585 0
DWIDTH 25 0
BBX 21 8 2 25
BITMAP
007E00
007C00
78FCF0
FCFDF8
FCF9F8
FDF9F8
FDF9F8
79F0F0
ENDCHAR
STARTCHAR Alphatonos
ENCODING 902
SWIDTH 585 0
DWIDTH 25 0
BBX 24 29 0 0
BITMAP
7E1FC0
7C1FC0
7C3FC0
7C3FC0
FC3FE0
F83FE0
F83FE0
F87DE0
007DF0
007DF0
007DF0
00F9F0
00F9F0
00F8F8
00F8F8
00F8F8
01F8F8
01F8FC
01F0FC
01FFFC
01FFFC
03FFFC
03FFFE
03FFFE
03E07E
07E03E
07E03E
07E03F
07E03F
ENDCHAR
STARTCHAR anoteleia
ENCODING 903
SWIDTH 585 0
DWIDTH 25 0
BBX 7 7 9 15
BITMAP
7C
FE
FE
FE
FE
FC
78
ENDCHAR
STARTCHAR Epsilontonos
ENCODING 904
SWIDTH 585 0
DWIDTH 25 0
BBX 23 29 0 0
BITMAP
7DFFFE
FDFFFE
FDFFFE
F9FFFE
F9FFFE
F9F000
F9F000
F9F000
01F000
01F000
01F000
01F000
01FFE0
01FFE0
01FFE0
01FFE0
01FFE0
01F000
01F000
01F000
01F000
01F000
01F000
01F000
01FFFE
01FFFE
01FFFE
01FFFE
01FFFE
ENDCHAR
STARTCHAR Etatonos
ENCODING 905
SWIDTH 585 0
DWIDTH 25 0
BBX 22 29 0 0
BITMAP
7DF07C
FDF07C
FDF07C
F9F07C
F9F07C
F9F07C
F9F07C
F9F07C
01F07C
01F07C
01F07C
01F07C
01FFFC
01FFFC
01FFFC
01FFFC
01FFFC
01F07C
01F07C
01F07C
01F07C
01F07C
01F07C
01F07C
01F07C
01F07C
01F07C
01F07C
01F07C
ENDCHAR
STARTCHAR Iotatonos
ENCODING 906
SWIDTH 585 0
DWIDTH 25 0
BBX 22 29 0 0
BITMAP
7DFFFC
FDFFFC
FDFFFC
F9FFFC
F9FFFC
F80F80
F80F80
F80F80
000F80
000F80
000F80
000F80
000F80
000F80
000F80
000F80
000F80
000F80
000F80
000F80
000F80
000F80
000F80
000F80
01FFFC
01FFFC
01FFFC
01FFFC
01FFFC
ENDCHAR
STARTCHAR Omicrontonos
ENCODING 908
SWIDTH 585 0
DWIDTH 25 0
BBX 23 29 0 0
BITMAP
7C1F80
FC7FE0
FCFFF0
F8FFF8
F9FFFC
F9F8FC
FBF0FC
FBF07E
03F07E
03E07E
07E07E
07E03E
07E03E
07E03E
07E03E
07E03E
07E03E
07E03E
07E03E
03E07E
03F07E
03F07E
03F0FC
01F9FC
01FFFC
00FFF8
00FFF0
007FE0
001F80
ENDCHAR
STARTCHAR Upsilontonos
ENCODING 910
SWIDTH 585 0
DWIDTH 25 0
BBX 24 29 0 0
BITMAP
7DF83F
FDF83F
FDF83F
F8F83E
F8FC7E
F8FC7E
F87C7C
F87C7C
007EFC
003EF8
003EF8
003EF8
001FF0
001FF0
001FF0
001FE0
000FE0
000FE0
000FC0
0007C0
0007C0
0007C0
0007C0
0007C0
0007C0
0007C0
0007C0
0007C0
0007C0
ENDCHAR
STARTCHAR Omegatonos
ENCODING 911
SWIDTH 585 0
DWIDTH 25 0
BBX 23 29 0 0
BITMAP
7C1FC0
FC7FE0
FCFFF8
F9FFF8
F9FFFC
FBF8FC
FBF0FE
FBF07E
03E07E
07E07E
07E03E
07E03E
07E03E
07E03E
07E03E
07E03E
07E03E
03E03E
03E07E
03E07E
03F07C
01F07C
00F078
0038F0
03FDFE
03FDFE
03FDFE
03FDFE
03FDFE
ENDCHAR
STARTCHAR iotadieresistonos
ENCODING 912
SWIDTH 585 0
DWIDTH 25 0
BBX 21 33 1 0
BITMAP
007E00
007E00
7CFCF0
FCFDF8
FCFDF8
FCF9F8
7DF9F8
39F0F0
000000
000000
000000
7FF800
7FF800
7FF800
7FF800
7FF800
01F800
01F800
01F800
01F800
01F800
01F800
01F800
01F800
01F800
01F800
01F800
01FE18
00FFF8
00FFF8
007FF8
007FF8
001FF0
ENDCHAR
STARTCHAR Alpha
ENCODING 913
SWIDTH 585 0
DWIDTH 25 0
BBX 23 29 1 0
BITMAP
00FE00
00FE00
01FE00
01FF00
01FF00
03FF00
03FF80
03EF80
03EF80
07EF80
07CFC0
07C7C0
0FC7C0
0FC7E0
0F87E0
1F83E0
1F83E0
1F83F0
1F03F0
3FFFF0
3FFFF8
3FFFF8
7FFFF8
7FFFF8
7E00FC
7C00FC
FC00FC
FC007E
FC007E
ENDCHAR
STARTCHAR Beta
ENCODING 914
SWIDTH 585 0
DWIDTH 25 0
BBX 21 29 3 0
BITMAP
FFF800
FFFE00
FFFF80
FFFFC0
FFFFC0
F80FC0
F807E0
F807E0
F807C0
F80FC0
F81FC0
FFFF80
FFFE00
FFF000
FFFF80
FFFFC0
F807E0
F803F0
F801F0
F801F0
F801F8
F801F8
F803F8
F807F0
FFFFF0
FFFFE0
FFFFE0
FFFF80
FFFE00
ENDCHAR
STARTCHAR Gamma
ENCODING 915
SWIDTH 585 0
DWIDTH 25 0
BBX 19 29 3 0
BITMAP
FFFFE0
FFFFE0
FFFFE0
FFFFE0
FFFFE0
FC0000
FC0000
FC0000
FC0000
FC0000
FC0000
FC0000
FC0000
FC0000
FC0000
FC0000
FC0000
FC0000
FC0000
FC0000
FC0000
FC0000
FC0000
FC0000
FC0000
FC0000
FC0000
FC0000
FC0000
ENDCHAR
STARTCHAR uni0394
ENCODING 916
SWIDTH 585 0
DWIDTH 25 0
BBX 23 29 1 0
BITMAP
00FE00
00FE00
01FE00
01FF00
01FF00
03FF00
03FF80
03EF80
03EF80
07EF80
07CFC0
07C7C0
0FC7C0
0F87E0
0F87E0
1F83E0
1F83E0
1F03F0
1F03F0
3F01F0
3F01F8
3E01F8
7E01F8
7E00F8
7FFFFC
7FFFFC
FFFFFC
FFFFFE
FFFFFE
ENDCHAR
STARTCHAR Epsilon
ENCODING 917
SWIDTH 585 0
DWIDTH 25 0
BBX 20 29 3 0
BITMAP
FFFFF0
FFFFF0
FFFFF0
FFFFF0
FFFFF0
F80000
F80000
F80000
F80000
F80000
F80000
F80000
FFFF00
FFFF00
FFFF00
FFFF00
FFFF00
F80000
F80000
F80000
F80000
F80000
F80000
F80000
FFFFF0
FFFFF0
FFFFF0
FFFFF0
FFFFF0
ENDCHAR
STARTCHAR Zeta
ENCODING 918
SWIDTH 585 0
DWIDTH 25 0
BBX 19 29 3 0
BITMAP
FFFFE0
FFFFE0
FFFFE0
FFFFE0
FFFFE0
000FC0
000FC0
001F80
003F00
007F00
007E00
00FC00
01FC00
01F800
03F000
07F000
07E000
0FC000
1FC000
1F8000
3F0000
7E0000
7E0000
FC0000
FFFFE0
FFFFE0
FFFFE0
FFFFE0
FFFFE0
ENDCHAR
STARTCHAR Eta
ENCODING 919
SWIDTH 585 0
DWIDTH 25 0
BBX 19 29 3 0
BITMAP
F803E0
F803E0
F803E0
F803E0
F803E0
F803E0
F803E0
F803E0
F803E0
F803E0
F803E0
F803E0
FFFFE0
FFFFE0
FFFFE0
FFFFE0
FFFFE0
F803E0
F803E0
F803E0
F803E0
F803E0
F803E0
F803E0
F803E0
F803E0
F803E0
F803E0
F803E0
ENDCHAR
STARTCHAR Theta
ENCODING 920
SWIDTH 585 0
DWIDTH 25 0
BBX 22 29 1 0
BITMAP
00FE00
07FF80
0FFFE0
1FFFE0
3FFFF0
3F87F8
7F01F8
7E01F8
7E00FC
7C00FC
FC00FC
FC007C
FFFFFC
FFFFFC
FFFFFC
FFFFFC
FC007C
FC00FC
FC00FC
7C00FC
7E00FC
7E01FC
7F01F8
3F87F8
3FFFF0
1FFFF0
0FFFE0
07FF80
01FE00
ENDCHAR
STARTCHAR Iota
ENCODING 921
SWIDTH 585 0
DWIDTH 25 0
BBX 19 29 3 0
BITMAP
FFFFE0
FFFFE0
FFFFE0
FFFFE0
FFFFE0
01F000
01F000
01F000
01F000
01F000
01F000
01F000
01F000
01F000
01F000
01F000
01F000
01F000
01F000
01F000
01F000
01F000
01F000
01F000
FFFFE0
FFFFE0
FFFFE0
FFFFE0
FFFFE0
ENDCHAR
STARTCHAR Kappa
ENCODING 922
SWIDTH 585 0
DWIDTH 25 0
BBX 21 29 3 0
BITMAP
F803F0
F803F0
F803F0
F803F0
F803E0
F803E0
F807E0
F807E0
F80FC0
F80FC0
F81F80
F83F80
F87F00
F9FF00
FFFE00
FFFC00
FFFE00
FFFE00
FFBF00
FC3F00
F81F80
F81F80
F80FC0
F80FC0
F80FE0
F807E0
F807F0
F803F0
F803F8
ENDCHAR
STARTCHAR Lambda
ENCODING 923
SWIDTH 585 0
DWIDTH 25 0
BBX 23 29 1 0
BITMAP
00FE00
00FE00
01FE00
01FF00
01FF00
03FF00
03FF80
03EF80
03EF80
07EF80
07CFC0
07C7C0
0FC7C0
0F87E0
0F87E0
1F83E0
1F83E0
1F03F0
1F03F0
3F01F0
3F01F8
3E01F8
7E01F8
7E00F8
7E00FC
7C00FC
FC007C
FC007E
FC007E
ENDCHAR
STARTCHAR Mu
ENCODING 924
SWIDTH 585 0
DWIDTH 25 0
BBX 20 29 2 0
BITMAP
FF07F0
FF0FF0
FF0FF0
FF8FF0
FF8FF0
FB8FF0
FB8DF0
FB9DF0
F99DF0
F9DDF0
F9DDF0
F9DDF0
F9D9F0
F9F9F0
F8F9F0
F8F9F0
F8F9F0
F8F1F0
F8F1F0
F801F0
F801F0
F801F0
F801F0
F801F0
F801F0
F801F0
F801F0
F801F0
F801F0
ENDCHAR
STARTCHAR Nu
ENCODING 925
SWIDTH 585 0
DWIDTH 25 0
BBX 19 29 3 0
BITMAP
FF03E0
FF03E0
FF03E0
FF83E0
FF83E0
FF83E0
FB83E0
FBC3E0
FBC3E0
FBC3E0
F9C3E0
F9C3E0
F9E3E0
F9E3E0
F8E3E0
F8E3E0
F8F3E0
F8F3E0
F8F3E0
F873E0
F873E0
F87BE0
F87BE0
F83FE0
F83FE0
F83FE0
F83FE0
F83FE0
F81FE0
ENDCHAR
STARTCHAR Xi
ENCODING 926
SWIDTH 585 0
DWIDTH 25 0
BBX 21 29 2 0
BITMAP
FFFFF8
FFFFF8
FFFFF8
FFFFF8
FFFFF8
000000
000000
000000
000000
000000
000000
000000
3FFFE0
3FFFE0
3FFFE0
3FFFE0
3FFFE0
000000
000000
000000
000000
000000
000000
000000
FFFFF8
FFFFF8
FFFFF8
FFFFF8
FFFFF8
ENDCHAR
STARTCHAR Omicron
ENCODING 927
SWIDTH 585 0
DWIDTH 25 0
BBX 22 29 1 0
BITMAP
00FE00
07FF80
0FFFE0
1FFFE0
3FFFF0
3F87F8
7F01F8
7E01F8
7E00FC
7E00FC
FC00FC
FC007C
FC007C
FC007C
FC007C
FC007C
FC007C
FC007C
FC00FC
7C00FC
7E00FC
7E01FC
7F01F8
3F87F8
3FFFF0
1FFFF0
0FFFE0
07FF80
01FE00
ENDCHAR
STARTCHAR Pi
ENCODING 928
SWIDTH 585 0
DWIDTH 25 0
BBX 19 29 3 0
BITMAP
FFFFE0
FFFFE0
FFFFE0
FFFFE0
FFFFE0
F803E0
F803E0
F803E0
F803E0
F803E0
F803E0
F803E0
F803E0
F803E0
F803E0
F803E0
F803E0
F803E0
F803E0
F803E0
F803E0
F803E0
F803E0
F803E0
F803E0
F803E0
F803E0
F803E0
F803E0
ENDCHAR
STARTCHAR Rho
ENCODING 929
SWIDTH 585 0
DWIDTH 25 0
BBX 20 29 3 0
BITMAP
FFF800
FFFF00
FFFF80
FFFFC0
FFFFE0
F80FE0
F807F0
F803F0
F803F0
F803F0
F803F0
F803F0
F803F0
F803F0
F807F0
F81FE0
FFFFE0
FFFFC0
FFFF80
FFFE00
FFF800
F80000
F80000
F80000
F80000
F80000
F80000
F80000
F80000
ENDCHAR
STARTCHAR Sigma
ENCODING 931
SWIDTH 585 0
DWIDTH 25 0
BBX 19 29 3 0
BITMAP
FFFFE0
FFFFE0
FFFFE0
FFFFE0
FFFFE0
FE0000
7F0000
3F8000
1FC000
0FE000
07E000
07F000
03F800
01FC00
00FE00
01FC00
03F800
07F000
0FE000
0FC000
1FC000
3F8000
7F0000
FE0000
FFFFE0
FFFFE0
FFFFE0
FFFFE0
FFFFE0
ENDCHAR
STARTCHAR Tau
ENCODING 932
SWIDTH 585 0
DWIDTH 25 0
BBX 22 29 1 0
BITMAP
FFFFFC
FFFFFC
FFFFFC
FFFFFC
FFFFFC
007C00
007C00
007C00
007C00
007C00
007C00
007C00
007C00
007C00
007C00
007C00
007C00
007C00
007C00
007C00
007C00
007C00
007C00
007C00
007C00
007C00
007C00
007C00
007C00
ENDCHAR
STARTCHAR Upsilon
ENCODING 933
SWIDTH 585 0
DWIDTH 25 0
BBX 24 29 0 0
BITMAP
FC003F
7E003F
7E007E
3F007E
3F00FC
1F80FC
1F80F8
0FC1F8
0FC1F0
07C3F0
07E3E0
03E7E0
03F7C0
01FFC0
01FFC0
00FF80
00FF80
007F00
007F00
007E00
003E00
003E00
003E00
003E00
003E00
003E00
003E00
003E00
003E00
ENDCHAR
STARTCHAR Phi
ENCODING 934
SWIDTH 585 0
DWIDTH 25 0
BBX 22 30 1 0
BITMAP
007C00
007C00
007C00
03FF80
0FFFE0
1FFFF0
3FFFF0
3FFFF8
7F79F8
7E78FC
7E78FC
FC78FC
FC787C
FC787C
FC787C
FC787C
FC787C
FC787C
FC78FC
7E78FC
7E78FC
7F79F8
3FFFF8
3FFFF0
1FFFF0
0FFFE0
03FF80
007C00
007C00
007C00
ENDCHAR
STARTCHAR Chi
ENCODING 935
SWIDTH 585 0
DWIDTH 25 0
BBX 23 29 1 0
BITMAP
FE00FE
7E01FC
7F01F8
3F03F8
3F83F0
1F87F0
0FC7E0
0FCFC0
07EFC0
03FF80
03FF80
01FF00
01FE00
00FE00
007C00
00FC00
00FE00
01FF00
03FF00
03FF80
07EFC0
0FCFC0
0FC7E0
1F87E0
3F83F0
3F03F8
7F01F8
7E01FC
FE00FE
ENDCHAR
STARTCHAR Psi
ENCODING 936
SWIDTH 585 0
DWIDTH 25 0
BBX 22 29 1 0
BITMAP
FC7C7C
FC7C7C
FC7C7C
FC7C7C
FC7C7C
FC7C7C
FC7C7C
FC7C7C
FC7C7C
FC7C7C
FC7C7C
FC7C7C
FC7C7C
FC7C7C
FC7C7C
FC7CFC
7E7CFC
7F7DFC
7FFFF8
3FFFF8
1FFFF0
0FFFE0
03FF80
007C00
007C00
007C00
007C00
007C00
007C00
ENDCHAR
STARTCHAR uni03A9
ENCODING 937
SWIDTH 585 0
DWIDTH 25 0
BBX 22 29 1 0
BITMAP
01FE00
07FFC0
0FFFE0
1FFFF0
3FFFF0
3F87F8
7F01F8
7E01FC
7E00FC
FC00FC
FC00FC
FC007C
FC007C
FC007C
FC007C
FC007C
FC007C
7C00FC
7C00FC
7E00F8
3E00F8
1F01F0
0F01E0
07C3C0
7FE7FC
7FE7FC
7FE7FC
7FE7FC
7FE7FC
ENDCHAR
STARTCHAR Iotadieresis
ENCODING 938
SWIDTH 585 0
DWIDTH 25 0
BBX 19 39 3 0
BITMAP
1C0700
7E1F80
7F1FC0
7F1FC0
7F1FC0
7E1F80
1C0F00
000000
000000
000000
FFFFE0
FFFFE0
FFFFE0
FFFFE0
FFFFE0
01F000
01F000
01F000
01F000
01F000
01F000
01F000
01F000
01F000
01F000
01F000
01F000
01F000
01F000
01F000
01F000
01F000
01F000
01F000
FFFFE0
FFFFE0
FFFFE0
FFFFE0
FFFFE0
ENDCHAR
STARTCHAR Upsilondieresis
ENCODING 939
SWIDTH 585 0
DWIDTH 25 0
BBX 24 39 0 0
BITMAP
0380E0
0FC3F0
0FE3F8
0FE3F8
0FE3F8
0FC3F0
0381E0
000000
000000
000000
FC003F
7E003F
7E007E
3F007E
3F00FC
1F80FC
1F80F8
0FC1F8
0FC1F0
07C3F0
07E3E0
03E7E0
03F7C0
01FFC0
01FFC0
00FF80
00FF80
007F00
007F00
007E00
003E00
003E00
003E00
003E00
003E00
003E00
003E00
003E00
003E00
ENDCHAR
STARTCHAR alphatonos
ENCODING 940
SWIDTH 585 0
DWIDTH 25 0
BBX 23 33 1 0
BITMAP
000FC0
001F80
001F00
003F00
003E00
007E00
007C00
00FC00
000000
000000
000000
03E3F0
0FFBF0
1FFBF0
3FFFF0
7FFFF0
7F8FF0
7E07F0
FE03F0
FC03F0
FC03F0
FC03F0
FC03F0
FC03F0
FC03F0
FC03F0
FE07F0
7F8FF0
7FFFFE
3FFDFE
3FF9FE
0FF9FE
07E1FE
ENDCHAR
STARTCHAR epsilontonos
ENCODING 941
SWIDTH 585 0
DWIDTH 25 0
BBX 19 33 3 0
BITMAP
001F80
003F00
003F00
003E00
007E00
007C00
00FC00
01F800
000000
000000
000000
07FF80
1FFFE0
7FFFC0
7FFFC0
7FFFC0
7F01C0
7E0000
3F0000
1FFC00
07FC00
01FC00
0FFC00
3FFC00
7F0000
FC0000
FC0000
FF07C0
FFFFC0
7FFFC0
7FFFC0
3FFFE0
07FF80
ENDCHAR
STARTCHAR etatonos
ENCODING 942
SWIDTH 585 0
DWIDTH 25 0
BBX 19 42 3 -9
BITMAP
003F00
007E00
007E00
00FC00
00FC00
01F800
01F800
03F000
000000
000000
000000
F87C00
F9FF00
F9FF80
FBFFC0
FFFFC0
FF1FC0
FE0FC0
FC07E0
FC07E0
FC07E0
FC07E0
FC07E0
FC07E0
FC07E0
FC07E0
FC07E0
FC07E0
FC07E0
FC07E0
FC07E0
FC07E0
FC07E0
0007E0
0007E0
0007E0
0007E0
0007E0
0007E0
0007E0
0007E0
0007E0
ENDCHAR
STARTCHAR iotatonos
ENCODING 943
SWIDTH 585 0
DWIDTH 25 0
BBX 20 33 2 0
BITMAP
003F00
007E00
007E00
00FC00
00FC00
01F800
01F000
03F000
000000
000000
000000
FFF000
FFF000
FFF000
FFF000
FFF000
03F000
03F000
03F000
03F000
03F000
03F000
03F000
03F000
03F000
03F000
03F000
03FC30
01FFF0
01FFF0
00FFF0
00FFF0
003FE0
ENDCHAR
STARTCHAR upsilondieresistonos
ENCODING 944
SWIDTH 585 0
DWIDTH 25 0
BBX 24 33 0 0
BITMAP
001F80
001F80
1F1FBE
1FBF7E
3FBF7F
3FBE7E
1F3E3E
0E7E1C
000000
000000
000000
FE00FC
FF80FC
FFC0FC
FFC0FC
FFC0FC
0FC0FC
0FC0FC
0FC0FC
0FC0FC
0FC0FC
0FC0FC
0FC0FC
0FC0FC
0FC0FC
07C0FC
07E0FC
07F1F8
07FFF8
03FFF8
03FFF0
01FFE0
003F80
ENDCHAR
STARTCHAR alpha
ENCODING 945
SWIDTH 585 0
DWIDTH 25 0
BBX 23 22 1 0
BITMAP
03E3F0
0FFBF0
1FFBF0
3FFFF0
7FFFF0
7F8FF0
7E07F0
FE03F0
FC03F0
FC03F0
FC03F0
FC03F0
FC03F0
FC03F0
FC03F0
FE07F0
7F8FF0
7FFFFE
3FFDFE
3FF9FE
0FF9FE
07E1FE
ENDCHAR
STARTCHAR beta
ENCODING 946
SWIDTH 585 0
DWIDTH 25 0
BBX 19 38 3 -9
BITMAP
03FC00
0FFF00
3FFF80
7FFFC0
7FFFC0
7F1FC0
FE0FE0
FC07E0
FC0FC0
FC1FC0
F9FF80
F9FF00
F9F000
F9FE00
F9FF80
F81FC0
F807E0
F807E0
F807E0
FC07E0
FC07E0
FC07E0
FE07E0
FF1FE0
FFFFE0
FBFFC0
F9FF80
F9FF00
F87E00
F80000
F80000
F80000
F80000
F80000
F80000
F80000
F80000
F80000
ENDCHAR
STARTCHAR gamma
ENCODING 947
SWIDTH 585 0
DWIDTH 25 0
BBX 24 32 0 -9
BITMAP
100000
18003F
3C003E
7E003E
FF003E
7F803E
3F803E
1F807E
0FC07E
0FC07E
0FC07E
07C0FC
07E0FC
07E1FC
07E1F8
07E3F8
07EFF0
07FFE0
07FFE0
07FFC0
07FF00
07FE00
07F000
07E000
07E000
07E000
07E000
07E000
07E000
07E000
07E000
07E000
ENDCHAR
STARTCHAR delta
ENCODING 948
SWIDTH 585 0
DWIDTH 25 0
BBX 21 29 2 0
BITMAP
01FE00
07FFC0
1FFFF0
1FFFE0
3FFFE0
3F87C0
3F0040
3F0000
3F0000
3FC000
1FFC00
07FF00
01FFC0
0FFFE0
3FFFE0
7F0FF0
7E03F0
7C03F0
FC01F8
FC01F8
FC01F8
FE03F0
7E03F0
7F8FF0
7FFFE0
3FFFE0
1FFFC0
0FFF00
01FC00
ENDCHAR
STARTCHAR epsilon
ENCODING 949
SWIDTH 585 0
DWIDTH 25 0
BBX 19 22 3 0
BITMAP
07FF80
1FFFE0
7FFFC0
7FFFC0
7FFFC0
7F01C0
7E0000
3F0000
1FFC00
07FC00
01FC00
0FFC00
3FFC00
7F0000
FC0000
FC0000
FF07C0
FFFFC0
7FFFC0
7FFFC0
3FFFE0
07FF80
ENDCHAR
STARTCHAR zeta
ENCODING 950
SWIDTH 585 0
DWIDTH 25 0
BBX 20 40 3 -9
BITMAP
7FFFE0
7FFFE0
7FFFE0
7FFFE0
7FFFE0
000FE0
001F80
007F00
00FC00
03F800
07F000
0FE000
1FC000
3F8000
3F0000
7F0000
7E0000
7E0000
FC0000
FC0000
FC0000
FC0000
FC0000
7E0000
7F0000
7FE000
3FFF00
3FFFC0
1FFFE0
07FFE0
01FFE0
0007E0
0003F0
0007E0
000FE0
007FE0
007FC0
003FC0
003F00
001C00
ENDCHAR
STARTCHAR eta
ENCODING 951
SWIDTH 585 0
DWIDTH 25 0
BBX 19 31 3 -9
BITMAP
F87C00
F9FF00
F9FF80
FBFFC0
FFFFC0
FF1FC0
FE0FC0
FC07E0
FC07E0
FC07E0
FC07E0
FC07E0
FC07E0
FC07E0
FC07E0
FC07E0
FC07E0
FC07E0
FC07E0
FC07E0
FC07E0
FC07E0
0007E0
0007E0
0007E0
0007E0
0007E0
0007E0
0007E0
0007E0
0007E0
ENDCHAR
STARTCHAR theta
ENCODING 952
SWIDTH 585 0
DWIDTH 25 0
BBX 20 29 2 0
BITMAP
01FC00
07FF00
0FFF80
1FFFC0
3FFFC0
3F8FE0
7F07E0
7E03E0
7E03F0
7E03F0
7C03F0
7C03F0
FFFFF0
FFFFF0
FFFFF0
FFFFF0
FFFFF0
7C03F0
7C03F0
7C03F0
7E03F0
7E03E0
7F07E0
3F8FE0
3FFFC0
1FFFC0
0FFF80
07FF00
01FC00
ENDCHAR
STARTCHAR iota
ENCODING 953
SWIDTH 585 0
DWIDTH 25 0
BBX 20 22 2 0
BITMAP
FFF000
FFF000
FFF000
FFF000
FFF000
03F000
03F000
03F000
03F000
03F000
03F000
03F000
03F000
03F000
03F000
03F000
03FC30
01FFF0
01FFF0
00FFF0
00FFF0
003FE0
ENDCHAR
STARTCHAR kappa
ENCODING 954
SWIDTH 585 0
DWIDTH 25 0
BBX 21 22 3 0
BITMAP
F80180
F801C0
F803F0
F807F0
F80FE0
F81FC0
F81FC0
F83F80
F87F00
F8FE00
F8FC00
F9FC00
F9FE00
FBFE00
FBFF00
FBFF80
FF9F80
FF9FC0
FF0FE0
FE07E0
FC07F0
F803F8
ENDCHAR
STARTCHAR lambda
ENCODING 955
SWIDTH 585 0
DWIDTH 25 0
BBX 23 31 1 0
BITMAP
1F8000
1FE000
0FF000
0FF800
0FF800
01F800
00FC00
00FC00
00FC00
007C00
00FE00
00FE00
00FE00
01FF00
01FF00
03FF00
03DF00
03DF80
07DF80
07CF80
0FCFC0
0FCFC0
1FC7C0
1F87C0
1F87E0
3F07F0
3F03FE
7F03FE
7E01FE
7E00FE
FE003E
ENDCHAR
STARTCHAR uni03BC
ENCODING 956
SWIDTH 585 0
DWIDTH 25 0
BBX 21 31 3 -9
BITMAP
F80FC0
F80FC0
F80FC0
F80FC0
F80FC0
F80FC0
F80FC0
F80FC0
F80FC0
F80FC0
F80FC0
F80FC0
F80FC0
F80FC0
FC0FC0
FC1FC0
FF3FC0
FFF7F8
FFF7F8
FBF7F8
FBE7F8
F9C7F8
F80000
F80000
F80000
F80000
F80000
F80000
F80000
F80000
FC0000
ENDCHAR
STARTCHAR nu
ENCODING 957
SWIDTH 585 0
DWIDTH 25 0
BBX 23 22 0 0
BITMAP
38007E
7C007E
7E007C
FF007C
FF00FC
3F80F8
1F80F8
1FC1F8
0FC1F0
07C1F0
07C1F0
07E3E0
03E3E0
03E3E0
03E7C0
01F7C0
01F7C0
01FF80
01FF80
00FF80
00FF00
00FF00
ENDCHAR
STARTCHAR xi
ENCODING 958
SWIDTH 585 0
DWIDTH 25 0
BBX 19 40 3 -9
BITMAP
FFFFE0
FFFFE0
FFFFE0
FFFFE0
FFFFE0
03C000
0F0000
3E0000
7E0000
7C0000
FE0000
7E0000
7F8000
7FF000
3FFFC0
01FFC0
00FFC0
0FFFC0
1FFF80
7F8000
7E0000
FC0000
FC0000
FC0000
FC0000
FF0000
FFFF00
7FFFC0
7FFFC0
1FFFE0
07FFE0
0007E0
0007E0
0007E0
000FE0
003FE0
001FC0
001FC0
001F00
000E00
ENDCHAR
STARTCHAR omicron
ENCODING 959
SWIDTH 585 0
DWIDTH 25 0
BBX 20 22 2 0
BITMAP
01FC00
07FF00
1FFF80
3FFFC0
3FFFE0
7F9FE0
7F07F0
7E03F0
7E03F0
FC03F0
FC03F0
FC03F0
FC03F0
7E03F0
7E03F0
7F07F0
7F8FE0
3FFFE0
3FFFC0
1FFF80
07FF00
01FC00
ENDCHAR
STARTCHAR pi
ENCODING 960
SWIDTH 585 0
DWIDTH 25 0
BBX 22 22 1 0
BITMAP
FFFFFC
FFFFFC
FFFFFC
FFFFFC
FFFFFC
1F87C0
1F87C0
1F87C0
1F87C0
1F87C0
1F87C0
1F87C0
1F87C0
1F87C0
1F87C0
1F87E0
1F87E0
1F87FC
1F87FC
1F83FC
1F83FC
1F80FC
ENDCHAR
STARTCHAR rho
ENCODING 961
SWIDTH 585 0
DWIDTH 25 0
BBX 20 31 3 -9
BITMAP
03FC00
0FFF00
1FFF80
3FFFC0
7FFFE0
7F1FE0
FE07E0
FC07F0
FC03F0
FC03F0
FC03F0
FC03F0
FC03F0
FC03F0
FC03F0
FC07F0
FF0FE0
FFFFE0
FFFFC0
FDFFC0
FDFF80
FC7E00
FC0000
FC0000
FC0000
FC0000
FC0000
FC0000
FC0000
FC0000
FC0000
ENDCHAR
STARTCHAR uni03C2
ENCODING 962
SWIDTH 585 0
DWIDTH 25 0
BBX 21 31 2 -9
BITMAP
00FF00
07FFC0
0FFFE0
1FFFF0
3FFFF8
3FC7F0
7F01E0
7E0040
7E0000
FC0000
FC0000
FC0000
FC0000
7E0000
7E0000
7F0000
7FC000
3FFF00
3FFFC0
1FFFC0
07FFE0
01FFE0
0007E0
0007E0
0007E0
000FE0
003FE0
003FC0
001F80
001F00
000C00
ENDCHAR
STARTCHAR sigma
ENCODING 963
SWIDTH 585 0
DWIDTH 25 0
BBX 22 22 2 0
BITMAP
03FFFC
0FFFFC
1FFFFC
3FFFFC
7FFFFC
7F1C00
FE0F00
FC0780
FC07C0
FC07C0
FC07E0
FC07E0
FC07E0
FC07E0
FC07E0
FE0FE0
7F1FE0
7FFFC0
3FFFC0
1FFF80
0FFE00
03F800
ENDCHAR
STARTCHAR tau
ENCODING 964
SWIDTH 585 0
DWIDTH 25 0
BBX 20 22 2 0
BITMAP
FFFFF0
FFFFF0
FFFFF0
FFFFF0
FFFFF0
03E000
03E000
03E000
03E000
03E000
03E000
03E000
03E000
03E000
03F000
03F000
03F860
03FFE0
01FFF0
01FFF0
00FFF0
003FC0
ENDCHAR
STARTCHAR upsilon
ENCODING 965
SWIDTH 585 0
DWIDTH 25 0
BBX 22 22 0 0
BITMAP
FE00FC
FF80FC
FFC0FC
FFC0FC
FFC0FC
0FC0FC
0FC0FC
0FC0FC
0FC0FC
0FC0FC
0FC0FC
0FC0FC
0FC0FC
0FC0FC
07C0FC
07E0FC
07F1F8
07FFF8
03FFF8
03FFF0
01FFE0
003F80
ENDCHAR
STARTCHAR phi
ENCODING 966
SWIDTH 585 0
DWIDTH 25 0
BBX 22 40 1 -9
BITMAP
00FC00
007C00
007C00
007C00
007C00
007C00
007C00
007C00
007C00
00FE00
07FF80
0FFFE0
1FFFF0
3FFFF8
7F7BF8
7E79F8
7E78FC
7E78FC
FC78FC
FC78FC
FC78FC
FC78FC
7C78FC
7E78FC
7E78FC
7F79F8
3FFBF8
3FFFF0
1FFFE0
0FFFC0
03FF00
007C00
007C00
007C00
007C00
007C00
007C00
007C00
007C00
00FC00
ENDCHAR
STARTCHAR chi
ENCODING 967
SWIDTH 585 0
DWIDTH 25 0
BBX 23 31 1 -9
BITMAP
F800FC
FE01F8
FF01F8
FF83F0
FF83F0
1FC3E0
0FC7E0
07C7C0
07EFC0
03EF80
03FF00
01FF00
01FE00
00FE00
00FC00
00FC00
00FC00
00FE00
01FE00
01FE00
03FF00
07FF00
07DF80
0FCF80
0F8FC0
1F87E0
1F87FC
3F03FC
3F03FC
7E01FC
FE007E
ENDCHAR
STARTCHAR psi
ENCODING 968
SWIDTH 585 0
DWIDTH 25 0
BBX 21 40 2 -9
BITMAP
00F800
00F800
00F800
00F800
00F800
00F800
00F800
00F800
00F800
F8F9F8
F8F9F8
F8F9F8
F8F9F8
F8F9F8
F8F9F8
F8F9F8
F8F9F8
F8F9F8
F8F9F8
F8F9F8
F8F9F8
F8F1F8
FCF1F8
FCF1F0
FCF3F0
7EF7F0
7FFFF0
3FFFE0
3FFFC0
1FFF80
07FF00
00F800
00F800
00F800
00F800
00F800
00F800
00F800
00F800
00F800
ENDCHAR
STARTCHAR omega
ENCODING 969
SWIDTH 585 0
DWIDTH 25 0
BBX 21 22 2 0
BITMAP
F801F8
F801F8
F801F8
F801F8
F8F1F8
F8F1F8
F8F1F8
F8F1F8
F8F1F8
F8F1F8
F8F1F8
F8F1F8
F8F1F8
F8F1F8
F8F1F8
F8F1F8
FDDBF0
FFDFF0
FF9FF0
7F8FF0
7F0FE0
3E07C0
ENDCHAR
STARTCHAR iotadieresis
ENCODING 970
SWIDTH 585 0
DWIDTH 25 0
BBX 20 31 2 0
BITMAP
3E1F00
7E1F80
7F3F80
7F3F80
3E1F00
1C0E00
000000
000000
000000
FFF000
FFF000
FFF000
FFF000
FFF000
03F000
03F000
03F000
03F000
03F000
03F000
03F000
03F000
03F000
03F000
03F000
03FC30
01FFF0
01FFF0
00FFF0
00FFF0
003FE0
ENDCHAR
STARTCHAR upsilondieresis
ENCODING 971
SWIDTH 585 0
DWIDTH 25 0
BBX 22 31 0 0
BITMAP
07C1E0
07E3F0
07E3F0
07E3F0
07C3F0
03C1E0
000000
000000
000000
FE00FC
FF80FC
FFC0FC
FFC0FC
FFC0FC
0FC0FC
0FC0FC
0FC0FC
0FC0FC
0FC0FC
0FC0FC
0FC0FC
0FC0FC
0FC0FC
07C0FC
07E0FC
07F1F8
07FFF8
03FFF8
03FFF0
01FFE0
003F80
ENDCHAR
STARTCHAR omicrontonos
ENCODING 972
SWIDTH 585 0
DWIDTH 25 0
BBX 20 33 2 0
BITMAP
001F80
001F80
003F00
003E00
007E00
007C00
00FC00
01F800
000000
000000
000000
01FC00
07FF00
1FFF80
3FFFC0
3FFFE0
7F9FE0
7F07F0
7E03F0
7E03F0
FC03F0
FC03F0
FC03F0
FC03F0
7E03F0
7E03F0
7F07F0
7F8FE0
3FFFE0
3FFFC0
1FFF80
07FF00
01FC00
ENDCHAR
STARTCHAR upsilontonos
ENCODING 973
SWIDTH 585 0
DWIDTH 25 0
BBX 22 33 0 0
BITMAP
0007E0
0007E0
000FC0
000F80
001F80
001F00
003F00
007E00
000000
000000
000000
FE00FC
FF80FC
FFC0FC
FFC0FC
FFC0FC
0FC0FC
0FC0FC
0FC0FC
0FC0FC
0FC0FC
0FC0FC
0FC0FC
0FC0FC
0FC0FC
07C0FC
07E0FC
07F1F8
07FFF8
03FFF8
03FFF0
01FFE0
003F80
ENDCHAR
STARTCHAR omegatonos
ENCODING 974
SWIDTH 585 0
DWIDTH 25 0
BBX 21 33 2 0
BITMAP
001F80
001F80
003F00
003E00
007E00
007C00
00FC00
01F800
000000
000000
000000
F801F8
F801F8
F801F8
F801F8
F8F1F8
F8F1F8
F8F1F8
F8F1F8
F8F1F8
F8F1F8
F8F1F8
F8F1F8
F8F1F8
F8F1F8
F8F1F8
F8F1F8
FDDBF0
FFDFF0
FF9FF0
7F8FF0
7F0FE0
3E07C0
ENDCHAR
STARTCHAR uni03CF
ENCODING 975
SWIDTH 585 0
DWIDTH 25 0
BBX 21 37 3 -8
BITMAP
F803F0
F803F0
F803F0
F803F0
F803E0
F803E0
F807E0
F807E0
F80FC0
F80FC0
F81F80
F83F80
F87F00
F9FF00
FFFE00
FFFC00
FFFE00
FFFF00
FFBF00
FC1F80
F81F80
F80FC0
F80FE0
F807E0
F803F0
F803F0
F801F8
F801F8
F800F8
0000F8
0000F8
0000F8
0000F8
0000F8
0000F8
0000F8
0000F8
ENDCHAR
STARTCHAR uni03D7
ENCODING 983
SWIDTH 585 0
DWIDTH 25 0
BBX 20 30 3 -8
BITMAP
F80180
F801C0
F803F0
F807F0
F80FE0
F81FC0
F81FC0
F83F80
F87F00
F8FE00
F8FC00
F9FC00
F9FE00
FBFF00
FBFF80
FBDF80
FF8FC0
FF8FE0
FF07E0
FE03F0
FC03F0
F803F0
0003F0
0003F0
0003F0
0003F0
0003F0
0003F0
0003F0
0003F0
ENDCHAR
STARTCHAR uni0400
ENCODING 1024
SWIDTH 585 0
DWIDTH 25 0
BBX 20 38 3 0
BITMAP
7F8000
3FC000
0FE000
07E000
03F000
01F800
000000
000000
000000
FFFFF0
FFFFF0
FFFFF0
FFFFF0
FFFFF0
F80000
F80000
F80000
F80000
F80000
F80000
F80000
FFFF00
FFFF00
FFFF00
FFFF00
FFFF00
F80000
F80000
F80000
F80000
F80000
F80000
F80000
FFFFF0
FFFFF0
FFFFF0
FFFFF0
FFFFF0
ENDCHAR
STARTCHAR uni0401
ENCODING 1025
SWIDTH 585 0
DWIDTH 25 0
BBX 20 39 3 0
BITMAP
1E0780
3F0FC0
3F0FC0
7F1FC0
3F0FC0
3F0FC0
1E0780
000000
000000
000000
FFFFF0
FFFFF0
FFFFF0
FFFFF0
FFFFF0
F80000
F80000
F80000
F80000
F80000
F80000
F80000
FFFF00
FFFF00
FFFF00
FFFF00
FFFF00
F80000
F80000
F80000
F80000
F80000
F80000
F80000
FFFFF0
FFFFF0
FFFFF0
FFFFF0
FFFFF0
ENDCHAR
STARTCHAR uni0402
ENCODING 1026
SWIDTH 585 0
DWIDTH 25 0
BBX 24 29 -1 0
BITMAP
FFFFC0
FFFFC0
FFFFC0
FFFFC0
07E000
07E000
07E000
07E000
07E000
07E000
07FFC0
07FFF0
07FFF8
07FFFC
07FFFE
07E0FE
07E07E
07E03E
07E03E
07E03F
07E03F
07E03E
07E07E
07E1FE
07E7FC
07E7FC
07E7F8
07E7F0
07E780
ENDCHAR
STARTCHAR uni0403
ENCODING 1027
SWIDTH 585 0
DWIDTH 25 0
BBX 19 38 3 0
BITMAP
001FE0
003FC0
007F00
007E00
00FC00
01F800
000000
000000
000000
FFFFE0
FFFFE0
FFFFE0
FFFFE0
FFFFE0
FC0000
FC0000
FC0000
FC0000
FC0000
FC0000
FC0000
FC0000
FC0000
FC0000
FC0000
FC0000
FC0000
FC0000
FC0000
FC0000
FC0000
FC0000
FC0000
FC0000
FC0000
FC0000
FC0000
FC0000
ENDCHAR
STARTCHAR uni0404
ENCODING 1028
SWIDTH 585 0
DWIDTH 25 0
BBX 22 29 2 0
BITMAP
007F80
03FFE0
07FFF8
1FFFFC
3FFFF8
3FC0F0
7F0020
7E0000
FC0000
FC0000
F80000
FFFF00
FFFF00
FFFF00
FFFF00
FFFF00
F80000
FC0000
FC0000
FC0000
FE0000
7F0000
7F8000
3FE070
3FFFF0
1FFFF8
0FFFF8
03FFF8
007FC0
ENDCHAR
STARTCHAR uni0405
ENCODING 1029
SWIDTH 585 0
DWIDTH 25 0
BBX 20 29 2 0
BITMAP
01FE00
0FFF80
1FFFE0
3FFFF0
3FFFE0
7F87E0
7E01C0
7E0080
7E0000
7E0000
3F0000
3FC000
1FF000
0FFC00
07FF00
03FF80
00FFC0
001FE0
0007E0
0003F0
0003F0
0003F0
4003F0
7C0FF0
7FFFE0
7FFFE0
FFFFC0
7FFF00
0FFC00
ENDCHAR
STARTCHAR uni0406
ENCODING 1030
SWIDTH 585 0
DWIDTH 25 0
BBX 19 29 3 0
BITMAP
FFFFE0
FFFFE0
FFFFE0
FFFFE0
FFFFE0
01F000
01F000
01F000
01F000
01F000
01F000
01F000
01F000
01F000
01F000
01F000
01F000
01F000
01F000
01F000
01F000
01F000
01F000
01F000
FFFFE0
FFFFE0
FFFFE0
FFFFE0
FFFFE0
ENDCHAR
STARTCHAR uni0407
ENCODING 1031
SWIDTH 585 0
DWIDTH 25 0
BBX 19 39 3 0
BITMAP
1C0700
7E1F80
7F1FC0
7F1FC0
7F1FC0
7E1F80
1C0F00
000000
000000
000000
FFFFE0
FFFFE0
FFFFE0
FFFFE0
FFFFE0
01F000
01F000
01F000
01F000
01F000
01F000
01F000
01F000
01F000
01F000
01F000
01F000
01F000
01F000
01F000
01F000
01F000
01F000
01F000
FFFFE0
FFFFE0
FFFFE0
FFFFE0
FFFFE0
ENDCHAR
STARTCHAR uni0408
ENCODING 1032
SWIDTH 585 0
DWIDTH 25 0
BBX 21 29 1 0
BITMAP
007FF8
007FF8
007FF8
007FF8
007FF8
0000F8
0000F8
0000F8
0000F8
0000F8
0000F8
0000F8
0000F8
0000F8
0000F8
0000F8
0000F8
0000F8
0000F8
FC00F8
FC00F8
7E01F8
7E01F8
7F87F0
3FFFF0
3FFFE0
1FFFC0
07FF80
01FE00
ENDCHAR
STARTCHAR uni0409
ENCODING 1033
SWIDTH 585 0
DWIDTH 25 0
BBX 22 29 1 0
BITMAP
1FFC00
1FFC00
1FFC00
1FFC00
1FFC00
1F3C00
1F3C00
1F3C00
1F3C00
1F3C00
1F3FC0
1F3FF0
1F3FF0
1F3FF8
1F3FFC
1F3CFC
1F3CFC
1F3C7C
1F3C7C
1F3C7C
1F3C7C
1F3C7C
3F3CFC
7E3DFC
FE3FF8
FE3FF8
FC3FF0
FC3FE0
F03FC0
ENDCHAR
STARTCHAR uni040A
ENCODING 1034
SWIDTH 585 0
DWIDTH 25 0
BBX 21 29 2 0
BITMAP
FCF800
FCF800
FCF800
FCF800
FCF800
FCF800
FCF800
FCF800
FCF800
FCF800
FCFF80
FCFFE0
FFFFE0
FFFFF0
FFFFF8
FFF9F8
FFF9F8
FCF8F8
FCF8F8
FCF8F8
FCF8F8
FCF8F8
FCF9F8
FCF9F8
FCFFF0
FCFFF0
FCFFE0
FCFFC0
FCFF80
ENDCHAR
STARTCHAR uni040B
ENCODING 1035
SWIDTH 585 0
DWIDTH 25 0
BBX 22 29 0 0
BITMAP
FFFFC0
FFFFC0
FFFFC0
FFFFC0
FFFFC0
0FC000
0FC000
0FC000
0FC000
0FC000
0FC000
0FFFC0
0FFFF0
0FFFF8
0FFFF8
0FFFFC
0FC1FC
0FC0FC
0FC07C
0FC07C
0FC07C
0FC07C
0FC07C
0FC07C
0FC07C
0FC07C
0FC07C
0FC07C
0FC07C
ENDCHAR
STARTCHAR uni040C
ENCODING 1036
SWIDTH 585 0
DWIDTH 25 0
BBX 21 38 3 0
BITMAP
001FC0
003F80
007F00
00FE00
01FC00
03F800
000000
000000
000000
F801F0
F807F0
F80FF0
F80FF0
F80FF0
F81F80
F81F80
F81F80
F81F80
F81F80
F81F80
F83F00
FFFF00
FFFE00
FFC000
FFFE00
FFFF00
F83F80
F81F80
F81F80
F81F80
F80F80
F80F80
F80FC0
F80FF8
F80FF8
F80FF8
F807F8
F801F8
ENDCHAR
STARTCHAR uni040D
ENCODING 1037
SWIDTH 585 0
DWIDTH 25 0
BBX 19 38 3 0
BITMAP
7F0000
3F8000
1FC000
0FE000
07F000
03F800
000000
000000
000000
F807E0
F807E0
F80FE0
F80FE0
F81FE0
F81FE0
F81FE0
F83FE0
F83FE0
F83BE0
F87BE0
F873E0
F8F3E0
F8E3E0
F8E3E0
F9E3E0
F9C3E0
FBC3E0
FB83E0
FB83E0
FF83E0
FF03E0
FF03E0
FF03E0
FE03E0
FE03E0
FC03E0
FC03E0
FC03E0
ENDCHAR
STARTCHAR uni040E
ENCODING 1038
SWIDTH 585 0
DWIDTH 25 0
BBX 23 39 1 0
BITMAP
0FC1F0
0FC3F0
0FC3F0
07FFE0
07FFE0
01FFC0
00FF00
000000
000000
000000
FC007E
7E007E
7E007E
3F00FC
3F00FC
3F00FC
1F80F8
1F81F8
0F81F8
0FC1F0
0FC1F0
07C3F0
07E3E0
07E3E0
03E3E0
03F7E0
01F7C0
01F7C0
01FFC0
00FF80
00FF80
00FF80
007F00
007F00
1FFE00
1FFE00
1FFC00
1FF000
1F8000
ENDCHAR
STARTCHAR uni040F
ENCODING 1039
SWIDTH 585 0
DWIDTH 25 0
BBX 19 35 3 -6
BITMAP
F803E0
F803E0
F803E0
F803E0
F803E0
F803E0
F803E0
F803E0
F803E0
F803E0
F803E0
F803E0
F803E0
F803E0
F803E0
F803E0
F803E0
F803E0
F803E0
F803E0
F803E0
F803E0
F803E0
F803E0
FFFFE0
FFFFE0
FFFFE0
FFFFE0
FFFFE0
01F000
01F000
01F000
01F000
01F000
01F000
ENDCHAR
STARTCHAR uni0410
ENCODING 1040
SWIDTH 585 0
DWIDTH 25 0
BBX 23 29 1 0
BITMAP
00FE00
00FE00
01FE00
01FF00
01FF00
03FF00
03FF80
03EF80
03EF80
07EF80
07CFC0
07C7C0
0FC7C0
0FC7E0
0F87E0
1F83E0
1F83E0
1F83F0
1F03F0
3FFFF0
3FFFF8
3FFFF8
7FFFF8
7FFFF8
7E00FC
7C00FC
FC00FC
FC007E
FC007E
ENDCHAR
STARTCHAR uni0411
ENCODING 1041
SWIDTH 585 0
DWIDTH 25 0
BBX 20 29 3 0
BITMAP
FFFFC0
FFFFC0
FFFFC0
FFFFC0
FFFFC0
F80000
F80000
F80000
F80000
F80000
F80000
FFFE00
FFFF80
FFFFC0
FFFFE0
FFFFE0
F807F0
F803F0
F803F0
F801F0
F801F0
F803F0
F803F0
F807F0
FFFFE0
FFFFE0
FFFFC0
FFFF80
FFFE00
ENDCHAR
STARTCHAR uni0412
ENCODING 1042
SWIDTH 585 0
DWIDTH 25 0
BBX 21 29 3 0
BITMAP
FFF800
FFFE00
FFFF80
FFFFC0
FFFFC0
F80FC0
F807E0
F807E0
F807C0
F80FC0
F81FC0
FFFF80
FFFE00
FFF000
FFFF80
FFFFC0
F807E0
F803F0
F801F0
F801F0
F801F8
F801F8
F803F8
F807F0
FFFFF0
FFFFE0
FFFFE0
FFFF80
FFFE00
ENDCHAR
STARTCHAR uni0413
ENCODING 1043
SWIDTH 585 0
DWIDTH 25 0
BBX 19 29 3 0
BITMAP
FFFFE0
FFFFE0
FFFFE0
FFFFE0
FFFFE0
FC0000
FC0000
FC0000
FC0000
FC0000
FC0000
FC0000
FC0000
FC0000
FC0000
FC0000
FC0000
FC0000
FC0000
FC0000
FC0000
FC0000
FC0000
FC0000
FC0000
FC0000
FC0000
FC0000
FC0000
ENDCHAR
STARTCHAR uni0414
ENCODING 1044
SWIDTH 585 0
DWIDTH 25 0
BBX 24 35 0 -6
BITMAP
0FFFFC
0FFFFC
0FFFFC
0FFFFC
0FFFFC
0FC0FC
0FC0FC
0FC0FC
0FC0FC
0FC0FC
0FC0FC
0FC0FC
0FC0FC
0FC0FC
0FC0FC
0FC0FC
0F80FC
0F80FC
0F80FC
0F80FC
1F80FC
1F80FC
1F00FC
3F00FC
FFFFFF
FFFFFF
FFFFFF
FFFFFF
FFFFFF
FC001F
FC001F
FC001F
FC001F
FC001F
FC001F
ENDCHAR
STARTCHAR uni0415
ENCODING 1045
SWIDTH 585 0
DWIDTH 25 0
BBX 20 29 3 0
BITMAP
FFFFF0
FFFFF0
FFFFF0
FFFFF0
FFFFF0
F80000
F80000
F80000
F80000
F80000
F80000
F80000
FFFF00
FFFF00
FFFF00
FFFF00
FFFF00
F80000
F80000
F80000
F80000
F80000
F80000
F80000
FFFFF0
FFFFF0
FFFFF0
FFFFF0
FFFFF0
ENDCHAR
STARTCHAR uni0416
ENCODING 1046
SWIDTH 585 0
DWIDTH 25 0
BBX 23 29 1 0
BITMAP
F0781E
FC787E
FC787E
FC787E
FC787E
7C787C
7C787C
7C787C
7C787C
7C787C
7E787C
7E78FC
7FFFFC
3FFFF0
03FF80
3FFFF8
7FFFFC
7E78FC
7C787C
7C787C
7C787C
7C787C
7C787C
7C787C
FC787E
FC787E
FC787E
FC787E
F0781E
ENDCHAR
STARTCHAR uni0417
ENCODING 1047
SWIDTH 585 0
DWIDTH 25 0
BBX 21 29 1 0
BITMAP
2FFC00
1FFF80
1FFFC0
1FFFE0
1FFFF0
180FF0
0003F0
0003F0
0003F0
0003E0
000FE0
03FF80
03FE00
03F800
01FF80
01FFE0
0007F0
0001F8
0001F8
0000F8
0000F8
0001F8
1801F8
3E07F8
7FFFF0
FFFFF0
7FFFE0
1FFF80
03FE00
ENDCHAR
STARTCHAR uni0418
ENCODING 1048
SWIDTH 585 0
DWIDTH 25 0
BBX 19 29 3 0
BITMAP
F807E0
F807E0
F80FE0
F80FE0
F81FE0
F81FE0
F81FE0
F83FE0
F83FE0
F83BE0
F87BE0
F873E0
F8F3E0
F8E3E0
F8E3E0
F9E3E0
F9C3E0
FBC3E0
FB83E0
FB83E0
FF83E0
FF03E0
FF03E0
FF03E0
FE03E0
FE03E0
FC03E0
FC03E0
FC03E0
ENDCHAR
STARTCHAR uni0419
ENCODING 1049
SWIDTH 585 0
DWIDTH 25 0
BBX 19 39 3 0
BITMAP
7E0F80
7E0F80
3E1F80
3FFF80
1FFF00
0FFE00
03F800
000000
000000
000000
F807E0
F807E0
F80FE0
F80FE0
F81FE0
F81FE0
F81FE0
F83FE0
F83FE0
F83BE0
F87BE0
F873E0
F8F3E0
F8E3E0
F8E3E0
F9E3E0
F9C3E0
FBC3E0
FB83E0
FB83E0
FF83E0
FF03E0
FF03E0
FF03E0
FE03E0
FE03E0
FC03E0
FC03E0
FC03E0
ENDCHAR
STARTCHAR uni041A
ENCODING 1050
SWIDTH 585 0
DWIDTH 25 0
BBX 21 29 3 0
BITMAP
F801F0
F807F0
F80FF0
F80FF0
F80FF0
F81F80
F81F80
F81F80
F81F80
F81F80
F81F80
F83F00
FFFF00
FFFE00
FFC000
FFFE00
FFFF00
F83F80
F81F80
F81F80
F81F80
F80F80
F80F80
F80FC0
F80FF8
F80FF8
F80FF8
F807F8
F801F8
ENDCHAR
STARTCHAR uni041B
ENCODING 1051
SWIDTH 585 0
DWIDTH 25 0
BBX 22 29 0 0
BITMAP
07FFFC
07FFFC
07FFFC
07FFFC
07FFFC
07C07C
07C07C
07C07C
07C07C
07C07C
07C07C
07C07C
07C07C
07C07C
07C07C
07C07C
07C07C
07C07C
07C07C
0FC07C
0FC07C
0FC07C
0FC07C
1F807C
FF807C
FF807C
FF007C
FE007C
F8007C
ENDCHAR
STARTCHAR uni041C
ENCODING 1052
SWIDTH 585 0
DWIDTH 25 0
BBX 20 29 2 0
BITMAP
FF07F0
FF0FF0
FF0FF0
FF8FF0
FF8FF0
FB8FF0
FB8DF0
FB9DF0
F99DF0
F9DDF0
F9DDF0
F9DDF0
F9D9F0
F9F9F0
F8F9F0
F8F9F0
F8F9F0
F8F1F0
F8F1F0
F801F0
F801F0
F801F0
F801F0
F801F0
F801F0
F801F0
F801F0
F801F0
F801F0
ENDCHAR
STARTCHAR uni041D
ENCODING 1053
SWIDTH 585 0
DWIDTH 25 0
BBX 19 29 3 0
BITMAP
F803E0
F803E0
F803E0
F803E0
F803E0
F803E0
F803E0
F803E0
F803E0
F803E0
F803E0
F803E0
FFFFE0
FFFFE0
FFFFE0
FFFFE0
FFFFE0
F803E0
F803E0
F803E0
F803E0
F803E0
F803E0
F803E0
F803E0
F803E0
F803E0
F803E0
F803E0
ENDCHAR
STARTCHAR uni041E
ENCODING 1054
SWIDTH 585 0
DWIDTH 25 0
BBX 22 29 1 0
BITMAP
00FE00
07FF80
0FFFE0
1FFFE0
3FFFF0
3F87F8
7F01F8
7E01F8
7E00FC
7E00FC
FC00FC
FC007C
FC007C
FC007C
FC007C
FC007C
FC007C
FC007C
FC00FC
7C00FC
7E00FC
7E01FC
7F01F8
3F87F8
3FFFF0
1FFFF0
0FFFE0
07FF80
01FE00
ENDCHAR
STARTCHAR uni041F
ENCODING 1055
SWIDTH 585 0
DWIDTH 25 0
BBX 19 29 3 0
BITMAP
FFFFE0
FFFFE0
FFFFE0
FFFFE0
FFFFE0
F803E0
F803E0
F803E0
F803E0
F803E0
F803E0
F803E0
F803E0
F803E0
F803E0
F803E0
F803E0
F803E0
F803E0
F803E0
F803E0
F803E0
F803E0
F803E0
F803E0
F803E0
F803E0
F803E0
F803E0
ENDCHAR
STARTCHAR uni0420
ENCODING 1056
SWIDTH 585 0
DWIDTH 25 0
BBX 20 29 3 0
BITMAP
FFF800
FFFF00
FFFF80
FFFFC0
FFFFE0
F80FE0
F807F0
F803F0
F803F0
F803F0
F803F0
F803F0
F803F0
F803F0
F807F0
F81FE0
FFFFE0
FFFFC0
FFFF80
FFFE00
FFF800
F80000
F80000
F80000
F80000
F80000
F80000
F80000
F80000
ENDCHAR
STARTCHAR uni0421
ENCODING 1057
SWIDTH 585 0
DWIDTH 25 0
BBX 22 29 1 0
BITMAP
003FC0
01FFF0
07FFF8
0FFFFC
1FFFFC
1FE0F8
3F8030
3F0010
7E0000
7E0000
7E0000
7C0000
FC0000
FC0000
FC0000
FC0000
FC0000
7C0000
7E0000
7E0000
7F0000
7F0000
3FC000
3FF038
1FFFF8
0FFFF8
07FFFC
01FFFC
003FE0
ENDCHAR
STARTCHAR uni0422
ENCODING 1058
SWIDTH 585 0
DWIDTH 25 0
BBX 22 29 1 0
BITMAP
FFFFFC
FFFFFC
FFFFFC
FFFFFC
FFFFFC
007C00
007C00
007C00
007C00
007C00
007C00
007C00
007C00
007C00
007C00
007C00
007C00
007C00
007C00
007C00
007C00
007C00
007C00
007C00
007C00
007C00
007C00
007C00
007C00
ENDCHAR
STARTCHAR uni0423
ENCODING 1059
SWIDTH 585 0
DWIDTH 25 0
BBX 23 29 1 0
BITMAP
FC007E
7E007E
7E007E
3F00FC
3F00FC
3F00FC
1F80F8
1F81F8
0F81F8
0FC1F0
0FC1F0
07C3F0
07E3E0
07E3E0
03E3E0
03F7E0
01F7C0
01F7C0
01FFC0
00FF80
00FF80
00FF80
007F00
007F00
1FFE00
1FFE00
1FFC00
1FF000
1F8000
ENDCHAR
STARTCHAR uni0424
ENCODING 1060
SWIDTH 585 0
DWIDTH 25 0
BBX 22 30 1 0
BITMAP
007C00
007C00
007C00
03FF80
0FFFE0
1FFFF0
3FFFF0
3FFFF8
7F79F8
7E78FC
7E78FC
FC78FC
FC787C
FC787C
FC787C
FC787C
FC787C
FC787C
FC78FC
7E78FC
7E78FC
7F79F8
3FFFF8
3FFFF0
1FFFF0
0FFFE0
03FF80
007C00
007C00
007C00
ENDCHAR
STARTCHAR uni0425
ENCODING 1061
SWIDTH 585 0
DWIDTH 25 0
BBX 23 29 1 0
BITMAP
FE00FE
7E01FC
7F01F8
3F03F8
3F83F0
1F87F0
0FC7E0
0FCFC0
07EFC0
03FF80
03FF80
01FF00
01FE00
00FE00
007C00
00FC00
00FE00
01FF00
03FF00
03FF80
07EFC0
0FCFC0
0FC7E0
1F87E0
3F83F0
3F03F8
7F01F8
7E01FC
FE00FE
ENDCHAR
STARTCHAR uni0426
ENCODING 1062
SWIDTH 585 0
DWIDTH 25 0
BBX 21 35 3 -6
BITMAP
F807E0
F807E0
F807E0
F807E0
F807E0
F807E0
F807E0
F807E0
F807E0
F807E0
F807E0
F807E0
F807E0
F807E0
F807E0
F807E0
F807E0
F807E0
F807E0
F807E0
F807E0
F807E0
F807E0
F807E0
FFFFF8
FFFFF8
FFFFF8
FFFFF8
FFFFF8
0000F8
0000F8
0000F8
0000F8
0000F8
0000F8
ENDCHAR
STARTCHAR uni0427
ENCODING 1063
SWIDTH 585 0
DWIDTH 25 0
BBX 20 29 1 0
BITMAP
FC01F0
FC01F0
FC01F0
FC01F0
FC01F0
FC01F0
FC01F0
FC01F0
FC01F0
7C01F0
7C01F0
7E01F0
7F01F0
7FFFF0
3FFFF0
3FFFF0
1FFFF0
07FFF0
0001F0
0001F0
0001F0
0001F0
0001F0
0001F0
0001F0
0001F0
0001F0
0001F0
0001F0
ENDCHAR
STARTCHAR uni0428
ENCODING 1064
SWIDTH 585 0
DWIDTH 25 0
BBX 20 29 2 0
BITMAP
FCF1F0
FCF1F0
FCF1F0
FCF1F0
FCF1F0
FCF1F0
FCF1F0
FCF1F0
FCF1F0
FCF1F0
FCF1F0
FCF1F0
FCF1F0
FCF1F0
FCF1F0
FCF1F0
FCF1F0
FCF1F0
FCF1F0
FCF1F0
FCF1F0
FCF1F0
FCF1F0
FCF1F0
FFFFF0
FFFFF0
FFFFF0
FFFFF0
FFFFF0
ENDCHAR
STARTCHAR uni0429
ENCODING 1065
SWIDTH 585 0
DWIDTH 25 0
BBX 22 35 2 -6
BITMAP
FCF1F0
FCF1F0
FCF1F0
FCF1F0
FCF1F0
FCF1F0
FCF1F0
FCF1F0
FCF1F0
FCF1F0
FCF1F0
FCF1F0
FCF1F0
FCF1F0
FCF1F0
FCF1F0
FCF1F0
FCF1F0
FCF1F0
FCF1F0
FCF1F0
FCF1F0
FCF1F0
FCF1F0
FFFFFC
FFFFFC
FFFFFC
FFFFFC
FFFFFC
00007C
00007C
00007C
00007C
00007C
00007C
ENDCHAR
STARTCHAR uni042A
ENCODING 1066
SWIDTH 585 0
DWIDTH 25 0
BBX 23 29 0 0
BITMAP
FFC000
FFC000
FFC000
FFC000
FFC000
07C000
07C000
07C000
07C000
07C000
07FFC0
07FFF0
07FFF8
07FFFC
07FFFC
07C1FE
07C07E
07C07E
07C03E
07C03E
07C03E
07C07E
07C07E
07C0FE
07FFFC
07FFFC
07FFF8
07FFF0
07FF80
ENDCHAR
STARTCHAR uni042B
ENCODING 1067
SWIDTH 585 0
DWIDTH 25 0
BBX 20 29 2 0
BITMAP
FC01F0
FC01F0
FC01F0
FC01F0
FC01F0
FC01F0
FC01F0
FC01F0
FC01F0
FC01F0
FFC1F0
FFE1F0
FFF1F0
FFF1F0
FFF9F0
FCF9F0
FCFDF0
FC7DF0
FC7DF0
FC7DF0
FC7DF0
FC7DF0
FCF9F0
FCF9F0
FFF9F0
FFF1F0
FFF1F0
FFE1F0
FF81F0
ENDCHAR
STARTCHAR uni042C
ENCODING 1068
SWIDTH 585 0
DWIDTH 25 0
BBX 20 29 3 0
BITMAP
F80000
F80000
F80000
F80000
F80000
F80000
F80000
F80000
F80000
F80000
FFFC00
FFFF00
FFFF80
FFFFC0
FFFFE0
F80FE0
F803F0
F803F0
F803F0
F801F0
F803F0
F803F0
F803F0
F80FE0
FFFFE0
FFFFC0
FFFF80
FFFF00
FFFC00
ENDCHAR
STARTCHAR uni042D
ENCODING 1069
SWIDTH 585 0
DWIDTH 25 0
BBX 23 29 0 0
BITMAP
0FFC00
3FFF80
3FFFC0
3FFFE0
1FFFF0
180FF8
0003F8
0000FC
0000FC
00007C
00007E
01FFFE
01FFFE
01FFFE
01FFFE
01FFFE
00007E
00007E
00007E
0000FC
0000FC
0001FC
1003F8
3C0FF8
7FFFF0
FFFFE0
7FFFC0
1FFF80
07FC00
ENDCHAR
STARTCHAR uni042E
ENCODING 1070
SWIDTH 585 0
DWIDTH 25 0
BBX 22 29 1 0
BITMAP
FC0FC0
FC1FE0
FC3FF0
FC7FF8
FC7FF8
FCFCF8
FCF8FC
FCF8FC
FCF87C
FCF87C
FCF87C
FDF87C
FFF87C
FFF87C
FFF87C
FFF87C
FFF87C
FDF87C
FDF87C
FCF87C
FCF87C
FCF8FC
FCF8FC
FCFCF8
FC7FF8
FC7FF8
FC3FF0
FC1FE0
FC0FC0
ENDCHAR
STARTCHAR uni042F
ENCODING 1071
SWIDTH 585 0
DWIDTH 25 0
BBX 21 29 1 0
BITMAP
01FFF8
07FFF8
1FFFF8
3FFFF8
3FFFF8
7F80F8
7E00F8
7E00F8
7E00F8
7E00F8
7E00F8
7E00F8
3F00F8
3F80F8
1FFFF8
07FFF8
007FF8
03FFF8
07FFF8
0FC0F8
0F80F8
0F80F8
1F80F8
1F80F8
FF80F8
FF00F8
FF00F8
FE00F8
F800F8
ENDCHAR
STARTCHAR uni0430
ENCODING 1072
SWIDTH 585 0
DWIDTH 25 0
BBX 22 22 2 0
BITMAP
1FF000
1FFE00
3FFF80
3FFF80
3FFFC0
001FE0
0007E0
0003E0
07FFE0
1FFFE0
7FFFE0
7FFFE0
FFFFE0
FC03E0
F807E0
F807E0
FC0FE0
FFFBFC
FFFBFC
7FFBFC
3FF3FC
0FC3FC
ENDCHAR
STARTCHAR uni0431
ENCODING 1073
SWIDTH 585 0
DWIDTH 25 0
BBX 21 29 2 0
BITMAP
0000F0
003FF0
01FFF0
07FFF0
0FFFF0
1FFFE0
3FF800
3F8000
7E0000
7E0000
7C3F80
7CFFC0
FCFFE0
FDFFF0
FDFFF0
FF07F0
FE03F8
FE01F8
FC01F8
FC01F8
FC01F8
7E01F8
7E03F0
7F8FF0
3FFFF0
3FFFE0
1FFFC0
07FF80
01FC00
ENDCHAR
STARTCHAR uni0432
ENCODING 1074
SWIDTH 585 0
DWIDTH 25 0
BBX 20 22 3 0
BITMAP
FFFE00
FFFF80
FFFFC0
FFFFC0
FFFFE0
FC0FE0
FC07E0
FC07E0
FC07C0
FFFF80
FFF800
FFFC00
FFFFC0
FC07E0
FC03E0
FC03F0
FC0FF0
FFFFF0
FFFFE0
FFFFE0
FFFFC0
FFFF00
ENDCHAR
STARTCHAR uni0433
ENCODING 1075
SWIDTH 585 0
DWIDTH 25 0
BBX 16 22 5 0
BITMAP
FFFF
FFFF
FFFF
FFFF
FFFF
FC00
FC00
FC00
FC00
FC00
FC00
FC00
FC00
FC00
FC00
FC00
FC00
FC00
FC00
FC00
FC00
FC00
ENDCHAR
STARTCHAR uni0434
ENCODING 1076
SWIDTH 585 0
DWIDTH 25 0
BBX 24 27 0 -5
BITMAP
07FFF8
07FFF8
07FFF8
07FFF8
07FFF8
07C1F8
07C1F8
07C1F8
07C1F8
07C1F8
07C1F8
07C1F8
07C1F8
0FC1F8
0FC1F8
0FC1F8
1F81F8
FFFFFF
FFFFFF
FFFFFF
FFFFFF
FFFFFF
FC003F
FC003F
FC003F
FC003F
FC003F
ENDCHAR
STARTCHAR uni0435
ENCODING 1077
SWIDTH 585 0
DWIDTH 25 0
BBX 20 22 2 0
BITMAP
01FC00
07FF00
1FFF80
1FFFC0
3FFFE0
7F07E0
7E03F0
7C03F0
7C01F0
FFFFF0
FFFFF0
FFFFF0
FFFFF0
7C0000
7E0000
7F0000
3FC060
3FFFE0
1FFFE0
0FFFE0
07FFE0
00FFE0
ENDCHAR
STARTCHAR uni0436
ENCODING 1078
SWIDTH 585 0
DWIDTH 25 0
BBX 24 22 0 0
BITMAP
FC3C3F
FE3C7F
FF3C7F
FF3C7F
FF3C7F
1F3C7C
1F3C7C
1F3C7C
1FFFFC
0FFFF8
03FFC0
0FFFF8
1FFFF8
1F3C7C
1F3C7C
1F3C7C
1F3C7C
FF3C7F
FF3C7F
FF3C7F
FE3C7F
FC3C1F
ENDCHAR
STARTCHAR uni0437
ENCODING 1079
SWIDTH 585 0
DWIDTH 25 0
BBX 20 22 2 0
BITMAP
3FFC00
3FFF00
3FFFC0
3FFFC0
3FFFE0
301FE0
0007E0
000FC0
03FF80
03FF00
03F800
03FF80
03FFC0
000FE0
0003E0
2003F0
3C0FF0
7FFFE0
7FFFE0
FFFFC0
3FFF00
0FFC00
ENDCHAR
STARTCHAR uni0438
ENCODING 1080
SWIDTH 585 0
DWIDTH 25 0
BBX 19 22 3 0
BITMAP
FC07E0
FC0FE0
FC0FE0
FC1FE0
FC1FE0
FC3FE0
FC7FE0
FC7FE0
FCFFE0
FCF7E0
FDF7E0
FDE7E0
FFE7E0
FFC7E0
FFC7E0
FF87E0
FF87E0
FF07E0
FF07E0
FE07E0
FE07E0
FC07E0
ENDCHAR
STARTCHAR uni0439
ENCODING 1081
SWIDTH 585 0
DWIDTH 25 0
BBX 19 33 3 0
BITMAP
7E0F80
7E0F80
7E0F80
3F1F80
3FFF80
1FFF00
0FFE00
03F800
000000
000000
000000
FC07E0
FC0FE0
FC0FE0
FC1FE0
FC1FE0
FC3FE0
FC7FE0
FC7FE0
FCFFE0
FCF7E0
FDF7E0
FDE7E0
FFE7E0
FFC7E0
FFC7E0
FF87E0
FF87E0
FF07E0
FF07E0
FE07E0
FE07E0
FC07E0
ENDCHAR
STARTCHAR uni043A
ENCODING 1082
SWIDTH 585 0
DWIDTH 25 0
BBX 19 22 3 0
BITMAP
F803E0
F807E0
F80FE0
F81FE0
F81FE0
F81F00
F83F00
F83F00
F87E00
FFFE00
FFFC00
FFE000
FFFC00
FFFE00
F83F00
F83F00
F81F80
F81FE0
F81FE0
F81FE0
F80FE0
F803E0
ENDCHAR
STARTCHAR uni043B
ENCODING 1083
SWIDTH 585 0
DWIDTH 25 0
BBX 21 22 1 0
BITMAP
0FFFF8
0FFFF8
0FFFF8
0FFFF8
0FFFF8
0F81F8
0F81F8
0F81F8
0F81F8
0F81F8
0F81F8
0F81F8
0F81F8
0F81F8
0F81F8
1F81F8
3F81F8
FF81F8
FF01F8
FF01F8
FE01F8
F001F8
ENDCHAR
STARTCHAR uni043C
ENCODING 1084
SWIDTH 585 0
DWIDTH 25 0
BBX 20 22 2 0
BITMAP
FF0FF0
FF0FF0
FF0FF0
FF8FF0
FF8FF0
FB8DF0
FB9DF0
F99DF0
F9DDF0
F9DDF0
F9D9F0
F9F9F0
F8F9F0
F8F9F0
F8F9F0
F8F9F0
F8F1F0
F801F0
F801F0
F801F0
F801F0
F801F0
ENDCHAR
STARTCHAR uni043D
ENCODING 1085
SWIDTH 585 0
DWIDTH 25 0
BBX 19 22 3 0
BITMAP
FC07E0
FC07E0
FC07E0
FC07E0
FC07E0
FC07E0
FC07E0
FC07E0
FC07E0
FFFFE0
FFFFE0
FFFFE0
FFFFE0
FFFFE0
FC07E0
FC07E0
FC07E0
FC07E0
FC07E0
FC07E0
FC07E0
FC07E0
ENDCHAR
STARTCHAR uni043E
ENCODING 1086
SWIDTH 585 0
DWIDTH 25 0
BBX 20 22 2 0
BITMAP
01FC00
07FF00
1FFF80
3FFFC0
3FFFE0
7F9FE0
7F07F0
7E03F0
7E03F0
FC03F0
FC03F0
FC03F0
FC03F0
7E03F0
7E03F0
7F07F0
7F8FE0
3FFFE0
3FFFC0
1FFF80
07FF00
01FC00
ENDCHAR
STARTCHAR uni043F
ENCODING 1087
SWIDTH 585 0
DWIDTH 25 0
BBX 19 22 3 0
BITMAP
FFFFE0
FFFFE0
FFFFE0
FFFFE0
FFFFE0
FC07E0
FC07E0
FC07E0
FC07E0
FC07E0
FC07E0
FC07E0
FC07E0
FC07E0
FC07E0
FC07E0
FC07E0
FC07E0
FC07E0
FC07E0
FC07E0
FC07E0
ENDCHAR
STARTCHAR uni0440
ENCODING 1088
SWIDTH 585 0
DWIDTH 25 0
BBX 20 32 3 -10
BITMAP
F87C00
F9FF00
F9FF80
FFFFC0
FFFFE0
FF1FE0
FE07E0
FC07F0
FC03F0
FC03F0
FC03F0
FC03F0
FC03F0
FC03F0
FC03F0
FE07E0
FF0FE0
FFFFE0
FFFFC0
FDFF80
FDFF00
FC7C00
FC0000
FC0000
FC0000
FC0000
FC0000
FC0000
FC0000
FC0000
FC0000
FC0000
ENDCHAR
STARTCHAR uni0441
ENCODING 1089
SWIDTH 585 0
DWIDTH 25 0
BBX 21 22 2 0
BITMAP
00FF00
07FFC0
0FFFE0
1FFFF0
3FFFF8
3FC7F0
7F01E0
7E00C0
7E0000
FC0000
FC0000
FC0000
FC0000
7E0000
7E0000
7F0000
3FC020
3FFFE0
1FFFE0
0FFFE0
03FFF0
00FFF0
ENDCHAR
STARTCHAR uni0442
ENCODING 1090
SWIDTH 585 0
DWIDTH 25 0
BBX 22 22 1 0
BITMAP
FFFFFC
FFFFFC
FFFFFC
FFFFFC
FFFFFC
007C00
007C00
007C00
007C00
007C00
007C00
007C00
007C00
007C00
007C00
007C00
007C00
007C00
007C00
007C00
007C00
007C00
ENDCHAR
STARTCHAR uni0443
ENCODING 1091
SWIDTH 585 0
DWIDTH 25 0
BBX 22 32 1 -10
BITMAP
FC00FC
FC00FC
7C00F8
7E01F8
7E01F8
3E01F8
3F01F0
3F03F0
1F03F0
1F83E0
1F87E0
0F87E0
0FC7C0
0FC7C0
07CFC0
07EF80
07EF80
03FF80
03FF80
03FF00
01FF00
01FF00
003E00
007E00
00FC00
01FC00
0FF800
FFF000
FFE000
FFC000
FF0000
E00000
ENDCHAR
STARTCHAR uni0444
ENCODING 1092
SWIDTH 585 0
DWIDTH 25 0
BBX 23 40 1 -9
BITMAP
007C00
007C00
007C00
007C00
007C00
007C00
007C00
007C00
007C00
1C7CF0
7E7DF8
7F7DFC
FF7FFC
FFFFFC
FCFCFE
FC7C7E
F87C7E
F8787E
F8787E
F8787E
F8787E
F8787E
F8787E
F87C7E
FC7C7E
FCFEFE
FFFFFC
FF7FFC
7F7DFC
7F7DF8
1C7CF0
007C00
007C00
007C00
007C00
007C00
007C00
007C00
007C00
007C00
ENDCHAR
STARTCHAR uni0445
ENCODING 1093
SWIDTH 585 0
DWIDTH 25 0
BBX 21 22 2 0
BITMAP
FE03F8
7E07F0
7F07E0
3F0FC0
1F8FC0
0F9F80
0FDF00
07FE00
03FE00
03FC00
01F800
01F800
01FC00
03FE00
07FE00
0FFF00
0F9F80
1F8FC0
3F0FC0
7F07E0
7E07F0
FE03F8
ENDCHAR
STARTCHAR uni0446
ENCODING 1094
SWIDTH 585 0
DWIDTH 25 0
BBX 21 27 3 -5
BITMAP
F80FC0
F80FC0
F80FC0
F80FC0
F80FC0
F80FC0
F80FC0
F80FC0
F80FC0
F80FC0
F80FC0
F80FC0
F80FC0
F80FC0
F80FC0
F80FC0
F80FC0
FFFFF8
FFFFF8
FFFFF8
FFFFF8
FFFFF8
0001F8
0001F8
0001F8
0001F8
0001F8
ENDCHAR
STARTCHAR uni0447
ENCODING 1095
SWIDTH 585 0
DWIDTH 25 0
BBX 19 22 2 0
BITMAP
FC03E0
FC03E0
FC03E0
FC03E0
FC03E0
FC03E0
FC03E0
FC03E0
FC03E0
7F03E0
7FFFE0
7FFFE0
3FFFE0
1FFFE0
07FFE0
0003E0
0003E0
0003E0
0003E0
0003E0
0003E0
0003E0
ENDCHAR
STARTCHAR uni0448
ENCODING 1096
SWIDTH 585 0
DWIDTH 25 0
BBX 21 22 2 0
BITMAP
FCF1F8
FCF1F8
FCF1F8
FCF1F8
FCF1F8
FCF1F8
FCF1F8
FCF1F8
FCF1F8
FCF1F8
FCF1F8
FCF1F8
FCF1F8
FCF1F8
FCF1F8
FCF1F8
FCF1F8
FFFFF8
FFFFF8
FFFFF8
FFFFF8
FFFFF8
ENDCHAR
STARTCHAR uni0449
ENCODING 1097
SWIDTH 585 0
DWIDTH 25 0
BBX 22 27 2 -5
BITMAP
FCF1F0
FCF1F0
FCF1F0
FCF1F0
FCF1F0
FCF1F0
FCF1F0
FCF1F0
FCF1F0
FCF1F0
FCF1F0
FCF1F0
FCF1F0
FCF1F0
FCF1F0
FCF1F0
FCF1F0
FFFFFC
FFFFFC
FFFFFC
FFFFFC
FFFFFC
00003C
00003C
00003C
00003C
00003C
ENDCHAR
STARTCHAR uni044A
ENCODING 1098
SWIDTH 585 0
DWIDTH 25 0
BBX 23 22 0 0
BITMAP
FFC000
FFC000
FFC000
FFC000
FFC000
07C000
07C000
07FFE0
07FFF8
07FFFC
07FFFC
07FFFE
07C0FE
07C07E
07C07E
07C07E
07C0FE
07FFFE
07FFFC
07FFF8
07FFF0
07FFE0
ENDCHAR
STARTCHAR uni044B
ENCODING 1099
SWIDTH 585 0
DWIDTH 25 0
BBX 21 22 2 0
BITMAP
FC01F8
FC01F8
FC01F8
FC01F8
FC01F8
FC01F8
FC01F8
FFC1F8
FFE1F8
FFF1F8
FFF9F8
FFF9F8
FCFDF8
FCFDF8
FCFDF8
FCFDF8
FCFDF8
FFF9F8
FFF9F8
FFF1F8
FFE1F8
FFC1F8
ENDCHAR
STARTCHAR uni044C
ENCODING 1100
SWIDTH 585 0
DWIDTH 25 0
BBX 20 22 3 0
BITMAP
FC0000
FC0000
FC0000
FC0000
FC0000
FC0000
FC0000
FFFF00
FFFFC0
FFFFE0
FFFFE0
FFFFF0
FC07F0
FC03F0
FC03F0
FC03F0
FC07F0
FFFFF0
FFFFE0
FFFFC0
FFFF80
FFFF00
ENDCHAR
STARTCHAR uni044D
ENCODING 1101
SWIDTH 585 0
DWIDTH 25 0
BBX 20 22 2 0
BITMAP
3FF000
3FFE00
3FFF80
3FFFC0
3FFFC0
203FE0
0007E0
0003F0
01FFF0
01FFF0
01FFF0
01FFF0
01FFF0
0003F0
0003F0
1007E0
3E1FE0
7FFFE0
7FFFC0
FFFF80
3FFE00
0FF800
ENDCHAR
STARTCHAR uni044E
ENCODING 1102
SWIDTH 585 0
DWIDTH 25 0
BBX 21 22 2 0
BITMAP
F81F80
F83FE0
F87FF0
F8FFF0
F8FFF8
F8F9F8
F8F9F8
F9F1F8
FFF1F8
FFF0F8
FFF0F8
FFF0F8
FFF0F8
F9F1F8
F8F1F8
F8F1F8
F8F9F8
F8FFF8
F87FF0
F87FF0
F83FE0
F81F80
ENDCHAR
STARTCHAR uni044F
ENCODING 1103
SWIDTH 585 0
DWIDTH 25 0
BBX 19 22 2 0
BITMAP
03FFE0
1FFFE0
3FFFE0
3FFFE0
7FFFE0
7F03E0
7E03E0
7E03E0
7E03E0
7F03E0
3FFFE0
1FFFE0
01FFE0
07FFE0
0FFFE0
1FC3E0
1F83E0
FF03E0
FF03E0
FF03E0
FE03E0
F803E0
ENDCHAR
STARTCHAR uni0450
ENCODING 1104
SWIDTH 585 0
DWIDTH 25 0
BBX 20 33 2 0
BITMAP
0FC000
07C000
07E000
03E000
03F000
01F000
01F800
00FC00
000000
000000
000000
01FC00
07FF00
1FFF80
1FFFC0
3FFFE0
7F07E0
7E03F0
7C03F0
7C01F0
FFFFF0
FFFFF0
FFFFF0
FFFFF0
7C0000
7E0000
7F0000
3FC060
3FFFE0
1FFFE0
0FFFE0
07FFE0
00FFE0
ENDCHAR
STARTCHAR uni0451
ENCODING 1105
SWIDTH 585 0
DWIDTH 25 0
BBX 20 31 2 0
BITMAP
0F0780
1F8FC0
1F8FC0
1F8FC0
1F8FC0
0F0780
000000
000000
000000
01FC00
07FF00
1FFF80
1FFFC0
3FFFE0
7F07E0
7E03F0
7C03F0
7C01F0
FFFFF0
FFFFF0
FFFFF0
FFFFF0
7C0000
7E0000
7F0000
3FC060
3FFFE0
1FFFE0
0FFFE0
07FFE0
00FFE0
ENDCHAR
STARTCHAR uni0452
ENCODING 1106
SWIDTH 585 0
DWIDTH 25 0
BBX 22 41 0 -10
BITMAP
0F8000
0F8000
0F8000
FFFF00
FFFF00
FFFF00
FFFF00
FFFF00
0F8000
0F8000
0F8000
0F8000
0F8FC0
0F9FF0
0FBFF0
0FBFF8
0FFFF8
0FE1F8
0FC1F8
0FC0FC
0FC0FC
0FC0FC
0F80FC
0F80FC
0F80FC
0F80FC
0F80FC
0F80FC
0F80FC
0F80FC
0F80FC
0000FC
0000F8
0001F8
0003F8
003FF8
003FF0
003FF0
003FE0
003F80
003800
ENDCHAR
STARTCHAR uni0453
ENCODING 1107
SWIDTH 585 0
DWIDTH 25 0
BBX 16 33 5 0
BITMAP
003F
003E
007E
007C
00FC
00F8
01F8
03F0
0000
0000
0000
FFFF
FFFF
FFFF
FFFF
FFFF
FC00
FC00
FC00
FC00
FC00
FC00
FC00
FC00
FC00
FC00
FC00
FC00
FC00
FC00
FC00
FC00
FC00
ENDCHAR
STARTCHAR uni0454
ENCODING 1108
SWIDTH 585 0
DWIDTH 25 0
BBX 21 22 2 0
BITMAP
00FF00
07FFC0
0FFFE0
1FFFF0
3FFFF8
3FC3F0
7F00E0
7E0040
7FFC00
FFFC00
FFFC00
FFFC00
FFFC00
7E0000
7F0000
7F0000
3FE020
3FFFE0
1FFFE0
0FFFE0
03FFF0
00FFF0
ENDCHAR
STARTCHAR uni0455
ENCODING 1109
SWIDTH 585 0
DWIDTH 25 0
BBX 19 22 3 0
BITMAP
01FFC0
0FFFC0
3FFFC0
7FFFC0
7FFFC0
FF0000
FC0000
FC0000
FF8000
7FF800
3FFF00
1FFF80
03FFC0
003FC0
000FE0
0007E0
F01FE0
FFFFC0
FFFFC0
FFFF80
FFFF00
7FF800
ENDCHAR
STARTCHAR uni0456
ENCODING 1110
SWIDTH 585 0
DWIDTH 25 0
BBX 20 32 3 0
BITMAP
007000
01F800
01FC00
01FC00
01FC00
01FC00
00F800
000000
000000
000000
7FFC00
7FFC00
7FFC00
7FFC00
7FFC00
00FC00
00FC00
00FC00
00FC00
00FC00
00FC00
00FC00
00FC00
00FC00
00FC00
00FC00
00FC00
FFFFF0
FFFFF0
FFFFF0
FFFFF0
FFFFF0
ENDCHAR
STARTCHAR uni0457
ENCODING 1111
SWIDTH 585 0
DWIDTH 25 0
BBX 20 31 3 0
BITMAP
1F0780
1F8FC0
1F8FC0
1F8FC0
1F0FC0
0F0780
000000
000000
000000
7FFC00
7FFC00
7FFC00
7FFC00
7FFC00
00FC00
00FC00
00FC00
00FC00
00FC00
00FC00
00FC00
00FC00
00FC00
00FC00
00FC00
00FC00
FFFFF0
FFFFF0
FFFFF0
FFFFF0
FFFFF0
ENDCHAR
STARTCHAR uni0458
ENCODING 1112
SWIDTH 585 0
DWIDTH 25 0
BBX 16 41 3 -10
BITMAP
003C
007E
007F
007F
007F
007E
003C
0000
0000
3FFF
3FFF
3FFF
3FFF
3FFF
003F
003F
003F
003F
003F
003F
003F
003F
003F
003F
003F
003F
003F
003F
003F
003F
003F
003E
003E
007E
007E
01FE
FFFC
7FF8
7FF8
7FE0
7F80
ENDCHAR
STARTCHAR uni0459
ENCODING 1113
SWIDTH 585 0
DWIDTH 25 0
BBX 23 22 1 0
BITMAP
3FFE00
3FFE00
3FFE00
3FFE00
3F3E00
3F3E00
3F3E00
3F3FE0
3F3FF8
3F3FFC
3F3FFE
3F3FFE
3F3E7E
3F3E3E
3F3E3E
3F3E3E
3F3E7E
FF3FFE
FE3FFC
FE3FFC
FC3FF8
F03FE0
ENDCHAR
STARTCHAR uni045A
ENCODING 1114
SWIDTH 585 0
DWIDTH 25 0
BBX 23 22 1 0
BITMAP
FC7E00
FC7E00
FC7E00
FC7E00
FC7E00
FC7E00
FC7E00
FFFFC0
FFFFF8
FFFFFC
FFFFFC
FFFFFE
FC7C7E
FC7C3E
FC7C3E
FC7C3E
FC7C7E
FC7FFE
FC7FFC
FC7FFC
FC7FF8
FC7FE0
ENDCHAR
STARTCHAR uni045B
ENCODING 1115
SWIDTH 585 0
DWIDTH 25 0
BBX 22 31 0 0
BITMAP
0F8000
0F8000
0F8000
FFFF00
FFFF00
FFFF00
FFFF00
FFFF00
0F8000
0F8000
0F8000
0F8000
0F8FC0
0F9FF0
0FBFF0
0FBFF8
0FFFF8
0FE1F8
0FC1F8
0FC0FC
0FC0FC
0FC0FC
0F80FC
0F80FC
0F80FC
0F80FC
0F80FC
0F80FC
0F80FC
0F80FC
0F80FC
ENDCHAR
STARTCHAR uni045C
ENCODING 1116
SWIDTH 585 0
DWIDTH 25 0
BBX 19 33 3 0
BITMAP
003F00
007E00
007E00
00FC00
00F800
01F800
01F000
03F000
000000
000000
000000
F803E0
F807E0
F80FE0
F81FE0
F81FE0
F81F00
F83F00
F83F00
F87E00
FFFE00
FFFC00
FFE000
FFFC00
FFFE00
F83F00
F83F00
F81F80
F81FE0
F81FE0
F81FE0
F80FE0
F803E0
ENDCHAR
STARTCHAR uni045D
ENCODING 1117
SWIDTH 585 0
DWIDTH 25 0
BBX 19 33 3 0
BITMAP
1F8000
1F8000
0FC000
07C000
07E000
03E000
03F000
01F000
000000
000000
000000
FC07E0
FC0FE0
FC0FE0
FC1FE0
FC1FE0
FC3FE0
FC7FE0
FC7FE0
FCFFE0
FCF7E0
FDF7E0
FDE7E0
FFE7E0
FFC7E0
FFC7E0
FF87E0
FF87E0
FF07E0
FF07E0
FE07E0
FE07E0
FC07E0
ENDCHAR
STARTCHAR uni045E
ENCODING 1118
SWIDTH 585 0
DWIDTH 25 0
BBX 22 43 1 -10
BITMAP
1F83F0
1F83F0
0F83F0
0FC7E0
0FFFE0
07FFC0
03FF80
00FE00
000000
000000
000000
FC00FC
FC00FC
7C00F8
7E01F8
7E01F8
3E01F8
3F01F0
3F03F0
1F03F0
1F83E0
1F87E0
0F87E0
0FC7C0
0FC7C0
07CFC0
07EF80
07EF80
03FF80
03FF80
03FF00
01FF00
01FF00
003E00
007E00
00FC00
01FC00
0FF800
FFF000
FFE000
FFC000
FF0000
E00000
ENDCHAR
STARTCHAR uni045F
ENCODING 1119
SWIDTH 585 0
DWIDTH 25 0
BBX 18 27 3 -5
BITMAP
FC07C0
FC07C0
FC07C0
FC07C0
FC07C0
FC07C0
FC07C0
FC07C0
FC07C0
FC07C0
FC07C0
FC07C0
FC07C0
FC07C0
FC07C0
FC07C0
FC07C0
FFFFC0
FFFFC0
FFFFC0
FFFFC0
FFFFC0
01F000
01F000
01F000
01F000
01F000
ENDCHAR
STARTCHAR uni0490
ENCODING 1168
SWIDTH 585 0
DWIDTH 25 0
BBX 20 36 3 0
BITMAP
0003F0
0003F0
0003F0
0003F0
0003F0
0003F0
0003F0
FFFFF0
FFFFF0
FFFFF0
FFFFF0
FFFFF0
FC0000
FC0000
FC0000
FC0000
FC0000
FC0000
FC0000
FC0000
FC0000
FC0000
FC0000
FC0000
FC0000
FC0000
FC0000
FC0000
FC0000
FC0000
FC0000
FC0000
FC0000
FC0000
FC0000
FC0000
ENDCHAR
STARTCHAR uni0491
ENCODING 1169
SWIDTH 585 0
DWIDTH 25 0
BBX 17 27 5 0
BITMAP
001F80
001F80
001F80
001F80
001F80
FFFF80
FFFF80
FFFF80
FFFF80
FFFF80
FC0000
FC0000
FC0000
FC0000
FC0000
FC0000
FC0000
FC0000
FC0000
FC0000
FC0000
FC0000
FC0000
FC0000
FC0000
FC0000
FC0000
ENDCHAR
STARTCHAR uni0492
ENCODING 1170
SWIDTH 585 0
DWIDTH 25 0
BBX 22 29 0 0
BITMAP
1FFFFC
1FFFFC
1FFFFC
1FFFFC
1FFFFC
1F8000
1F8000
1F8000
1F8000
1F8000
1F8000
1F8000
1F8000
FFFE00
FFFE00
FFFE00
FFFE00
FFFE00
1F8000
1F8000
1F8000
1F8000
1F8000
1F8000
1F8000
1F8000
1F8000
1F8000
1F8000
ENDCHAR
STARTCHAR uni0493
ENCODING 1171
SWIDTH 585 0
DWIDTH 25 0
BBX 20 22 1 0
BITMAP
0FFFF0
0FFFF0
0FFFF0
0FFFF0
0FFFF0
0FC000
0FC000
0FC000
0FC000
0FC000
FFFE00
FFFE00
FFFE00
FFFE00
FFFE00
0FC000
0FC000
0FC000
0FC000
0FC000
0FC000
0FC000
ENDCHAR
STARTCHAR uni0496
ENCODING 1174
SWIDTH 585 0
DWIDTH 25 0
BBX 24 35 1 -6
BITMAP
F0F87C
F8F8FC
FCF9FC
FCF9FC
FCF9FC
7CF9F0
7CF9F0
7CF9F0
7CF9F0
7CF9F0
7CF9F0
7CF9F0
7FFFF0
3FFFE0
03FE00
3FFFE0
7FFFF0
7EFBF0
7CF9F0
7CF9F0
7CF9F0
7CF9F0
7CF9F0
7CF9F0
FCF9FF
FCF9FF
FCF9FF
F8F8FF
F0F87F
00003F
00003F
00003F
00003F
00003F
00003F
ENDCHAR
STARTCHAR uni0497
ENCODING 1175
SWIDTH 585 0
DWIDTH 25 0
BBX 24 27 0 -5
BITMAP
FC387E
FE38FE
FF39FE
FF39FE
FF39FE
1F39F0
1F39F0
1F39F0
1F39F0
1FFFF0
0FFFE0
03FF80
0FFFE0
1FFFF0
1F39F0
1F39F0
1F39F0
FF39FF
FF39FF
FF39FF
FE38FF
FC387F
00001F
00001F
00001F
00001F
00001F
ENDCHAR
STARTCHAR uni049A
ENCODING 1178
SWIDTH 585 0
DWIDTH 25 0
BBX 21 35 3 -6
BITMAP
F801F0
F807F0
F80FF0
F80FF0
F80FF0
F81F80
F81F80
F81F80
F81F80
F81F80
F81F80
F83F00
FFFF00
FFFE00
FFC000
FFFE00
FFFF00
F83F80
F81F80
F81F80
F81F80
F80F80
F80F80
F80FC0
F80FF8
F80FF8
F80FF8
F807F8
F801F8
0000F8
0000F8
0000F8
0000F8
0000F8
0000F8
ENDCHAR
STARTCHAR uni049B
ENCODING 1179
SWIDTH 585 0
DWIDTH 25 0
BBX 21 28 3 -6
BITMAP
F803E0
F807E0
F80FE0
F81FE0
F81FE0
F81F00
F83F00
F83F00
F87E00
FFFE00
FFFC00
FFE000
FFFC00
FFFE00
F83F00
F83F00
F81F80
F81FF8
F81FF8
F81FF8
F80FF8
F803F8
0000F8
0000F8
0000F8
0000F8
0000F8
0000F8
ENDCHAR
STARTCHAR uni04A2
ENCODING 1186
SWIDTH 585 0
DWIDTH 25 0
BBX 21 35 3 -6
BITMAP
F803E0
F803E0
F803E0
F803E0
F803E0
F803E0
F803E0
F803E0
F803E0
F803E0
F803E0
F803E0
FFFFE0
FFFFE0
FFFFE0
FFFFE0
FFFFE0
F803E0
F803E0
F803E0
F803E0
F803E0
F803E0
F803E0
F803F8
F803F8
F803F8
F803F8
F803F8
0000F8
0000F8
0000F8
0000F8
0000F8
0000F8
ENDCHAR
STARTCHAR uni04A3
ENCODING 1187
SWIDTH 585 0
DWIDTH 25 0
BBX 21 28 3 -6
BITMAP
FC07E0
FC07E0
FC07E0
FC07E0
FC07E0
FC07E0
FC07E0
FC07E0
FC07E0
FFFFE0
FFFFE0
FFFFE0
FFFFE0
FFFFE0
FC07E0
FC07E0
FC07E0
FC07F8
FC07F8
FC07F8
FC07F8
FC07F8
0000F8
0000F8
0000F8
0000F8
0000F8
0000F8
ENDCHAR
STARTCHAR uni04AE
ENCODING 1198
SWIDTH 585 0
DWIDTH 25 0
BBX 24 29 0 0
BITMAP
FC003F
7E003F
7E007E
3F007E
3F00FC
1F80FC
1F80F8
0FC1F8
0FC1F0
07C3F0
07E3E0
03E7E0
03F7C0
01FFC0
01FFC0
00FF80
00FF80
007F00
007F00
007E00
003E00
003E00
003E00
003E00
003E00
003E00
003E00
003E00
003E00
ENDCHAR
STARTCHAR uni04AF
ENCODING 1199
SWIDTH 585 0
DWIDTH 25 0
BBX 22 31 1 -9
BITMAP
FC00FC
7C00FC
7E00F8
3E01F8
3F01F8
3F01F0
1F03F0
1F83E0
0F83E0
0F87E0
0FC7C0
07C7C0
07CFC0
07EF80
03FF80
03FF00
01FF00
01FF00
01FE00
00FE00
00FC00
007C00
007C00
007C00
007C00
007C00
007C00
007C00
007C00
007C00
007C00
ENDCHAR
STARTCHAR uni04B0
ENCODING 1200
SWIDTH 585 0
DWIDTH 25 0
BBX 24 29 0 0
BITMAP
FC003F
7E003F
7E007E
3F007E
3F00FC
1F80FC
1F80F8
0F81F8
0FC1F0
07C3F0
07E3F0
03E7E0
03F7E0
03F7C0
01FFC0
01FF80
00FF80
00FF00
007F00
07FFF0
07FFF0
07FFF0
07FFF0
07FFF0
003E00
003E00
003E00
003E00
003E00
ENDCHAR
STARTCHAR uni04B1
ENCODING 1201
SWIDTH 585 0
DWIDTH 25 0
BBX 22 31 1 -9
BITMAP
FC00FC
7C00FC
7E00F8
3E01F8
3F01F8
3F01F0
1F03F0
1F83F0
0F83E0
0F87E0
0FC7C0
07C7C0
07CFC0
07EF80
03EF80
03FF80
01FF00
01FF00
01FE00
00FE00
00FE00
00FC00
1FFFF0
1FFFF0
1FFFF0
1FFFF0
1FFFF0
007C00
007C00
007C00
007C00
ENDCHAR
STARTCHAR uni04B2
ENCODING 1202
SWIDTH 585 0
DWIDTH 25 0
BBX 23 35 1 -6
BITMAP
FE00FE
7E01FC
7F01F8
3F03F8
3F83F0
1F87F0
0FC7E0
0FCFC0
07EFC0
03FF80
03FF00
01FF00
01FE00
00FE00
007C00
00FC00
01FE00
01FF00
03FF00
03FF80
07EFC0
0FCFC0
0FC7E0
1F87F0
3F83FE
3F03FE
7F01FE
7E01FE
FE00FE
00003E
00003E
00003E
00003E
00003E
00003E
ENDCHAR
STARTCHAR uni04B3
ENCODING 1203
SWIDTH 585 0
DWIDTH 25 0
BBX 22 28 2 -6
BITMAP
FE03F8
7E07F0
7F07E0
3F0FC0
1F8FC0
0F9F80
0FDF00
07FF00
03FE00
03FC00
01F800
01F800
01FC00
03FE00
07FE00
0FFF00
0FDF80
1F8FFC
3F0FFC
3F07FC
7E07FC
FE03FC
00007C
00007C
00007C
00007C
00007C
00007C
ENDCHAR
STARTCHAR uni04B6
ENCODING 1206
SWIDTH 585 0
DWIDTH 25 0
BBX 23 35 1 -6
BITMAP
FC01F0
FC01F0
FC01F0
FC01F0
FC01F0
FC01F0
FC01F0
FC01F0
FC01F0
7C01F0
7C01F0
7E01F0
7F01F0
7FFFF0
3FFFF0
3FFFF0
1FFFF0
07FFF0
0001F0
0001F0
0001F0
0001F0
0001F0
0001F0
0001FE
0001FE
0001FE
0001FE
0001FE
00003E
00003E
00003E
00003E
00003E
00003E
ENDCHAR
STARTCHAR uni04B7
ENCODING 1207
SWIDTH 585 0
DWIDTH 25 0
BBX 22 28 2 -6
BITMAP
FC03E0
FC03E0
FC03E0
FC03E0
FC03E0
FC03E0
FC03E0
FC03E0
FC03E0
7F03E0
7FFFE0
7FFFE0
3FFFE0
1FFFE0
07FFE0
0003E0
0003E0
0003FC
0003FC
0003FC
0003FC
0003FC
00007C
00007C
00007C
00007C
00007C
00007C
ENDCHAR
STARTCHAR uni04BA
ENCODING 1210
SWIDTH 585 0
DWIDTH 25 0
BBX 19 29 3 0
BITMAP
F80000
F80000
F80000
F80000
F80000
F80000
F80000
F80000
F80000
F80000
F80000
FFFE00
FFFF80
FFFFC0
FFFFC0
FFFFE0
F80FE0
F807E0
F803E0
F803E0
F803E0
F803E0
F803E0
F803E0
F803E0
F803E0
F803E0
F803E0
F803E0
ENDCHAR
STARTCHAR uni04BB
ENCODING 1211
SWIDTH 585 0
DWIDTH 25 0
BBX 19 31 3 0
BITMAP
FC0000
FC0000
FC0000
FC0000
FC0000
FC0000
FC0000
FC0000
FC0000
FC7C00
FDFF00
FDFF80
FFFFC0
FFFFC0
FF1FC0
FE0FC0
FC07E0
FC07E0
FC07E0
FC07E0
FC07E0
FC07E0
FC07E0
FC07E0
FC07E0
FC07E0
FC07E0
FC07E0
FC07E0
FC07E0
FC07E0
ENDCHAR
STARTCHAR uni04C0
ENCODING 1216
SWIDTH 585 0
DWIDTH 25 0
BBX 19 29 3 0
BITMAP
FFFFE0
FFFFE0
FFFFE0
FFFFE0
FFFFE0
01F000
01F000
01F000
01F000
01F000
01F000
01F000
01F000
01F000
01F000
01F000
01F000
01F000
01F000
01F000
01F000
01F000
01F000
01F000
FFFFE0
FFFFE0
FFFFE0
FFFFE0
FFFFE0
ENDCHAR
STARTCHAR uni04CF
ENCODING 1231
SWIDTH 585 0
DWIDTH 25 0
BBX 20 22 3 0
BITMAP
7FFC00
7FFC00
7FFC00
7FFC00
7FFC00
00FC00
00FC00
00FC00
00FC00
00FC00
00FC00
00FC00
00FC00
00FC00
00FC00
00FC00
00FC00
FFFFF0
FFFFF0
FFFFF0
FFFFF0
FFFFF0
ENDCHAR
STARTCHAR uni04D8
ENCODING 1240
SWIDTH 585 0
DWIDTH 25 0
BBX 22 29 1 0
BITMAP
0FFC00
3FFF00
3FFFC0
3FFFE0
1FFFF0
180FF0
0003F8
0001F8
0000FC
0000FC
0000FC
0000FC
FFFFFC
FFFFFC
FFFFFC
FFFFFC
FFFFFC
FC007C
FC00FC
7C00FC
7E00FC
7E01FC
7F01F8
3F87F8
3FFFF0
1FFFF0
0FFFE0
07FF80
01FE00
ENDCHAR
STARTCHAR uni04D9
ENCODING 1241
SWIDTH 585 0
DWIDTH 25 0
BBX 20 22 2 0
BITMAP
7FF800
3FFE00
3FFF80
3FFFC0
3FFFC0
301FE0
0007E0
0003F0
0003F0
FFFFF0
FFFFF0
FFFFF0
FFFFF0
7C03F0
7C03F0
7E03F0
7F0FE0
3FFFE0
3FFFC0
1FFF80
0FFF00
03FC00
ENDCHAR
STARTCHAR uni04E2
ENCODING 1250
SWIDTH 585 0
DWIDTH 25 0
BBX 19 37 3 0
BITMAP
7FFF80
7FFF80
7FFF80
7FFF80
7FFF80
000000
000000
000000
F807E0
F807E0
F80FE0
F80FE0
F81FE0
F81FE0
F81FE0
F83FE0
F83FE0
F83BE0
F87BE0
F873E0
F8F3E0
F8E3E0
F8E3E0
F9E3E0
F9C3E0
FBC3E0
FB83E0
FB83E0
FF83E0
FF03E0
FF03E0
FF03E0
FE03E0
FE03E0
FC03E0
FC03E0
FC03E0
ENDCHAR
STARTCHAR uni04E3
ENCODING 1251
SWIDTH 585 0
DWIDTH 25 0
BBX 19 30 3 0
BITMAP
FFFFC0
FFFFC0
FFFFC0
FFFFC0
FFFFC0
000000
000000
000000
FC07E0
FC0FE0
FC0FE0
FC1FE0
FC1FE0
FC3FE0
FC7FE0
FC7FE0
FCFFE0
FCF7E0
FDF7E0
FDE7E0
FFE7E0
FFC7E0
FFC7E0
FF87E0
FF87E0
FF07E0
FF07E0
FE07E0
FE07E0
FC07E0
ENDCHAR
STARTCHAR uni04E8
ENCODING 1256
SWIDTH 585 0
DWIDTH 25 0
BBX 22 29 1 0
BITMAP
00FE00
07FF80
0FFFE0
1FFFE0
3FFFF0
3F87F8
7F01F8
7E01F8
7E00FC
7C00FC
FC00FC
FC007C
FFFFFC
FFFFFC
FFFFFC
FFFFFC
FC007C
FC00FC
FC00FC
7C00FC
7E00FC
7E01FC
7F01F8
3F87F8
3FFFF0
1FFFF0
0FFFE0
07FF80
01FE00
ENDCHAR
STARTCHAR uni04E9
ENCODING 1257
SWIDTH 585 0
DWIDTH 25 0
BBX 20 22 2 0
BITMAP
01FC00
07FF00
1FFF80
3FFFC0
3FFFE0
7F8FE0
7E07F0
7E03F0
7E03F0
FFFFF0
FFFFF0
FFFFF0
FC03F0
7E03F0
7E03F0
7F07F0
7F8FE0
3FFFE0
3FFFC0
1FFF80
07FF00
01FC00
ENDCHAR
STARTCHAR uni04EE
ENCODING 1262
SWIDTH 585 0
DWIDTH 25 0
BBX 23 37 1 0
BITMAP
0FFFF0
0FFFF0
0FFFF0
0FFFF0
0FFFF0
000000
000000
000000
FC007E
7E007E
7E007E
3F00FC
3F00FC
3F00FC
1F80F8
1F81F8
0F81F8
0FC1F0
0FC1F0
07C3F0
07E3E0
07E3E0
03E3E0
03F7E0
01F7C0
01F7C0
01FFC0
00FF80
00FF80
00FF80
007F00
007F00
1FFE00
1FFE00
1FFC00
1FF000
1F8000
ENDCHAR
STARTCHAR uni04EF
ENCODING 1263
SWIDTH 585 0
DWIDTH 25 0
BBX 22 40 1 -10
BITMAP
1FFFF0
1FFFF0
1FFFF0
1FFFF0
1FFFF0
000000
000000
000000
FC00FC
FC00FC
7C00F8
7E01F8
7E01F8
3E01F8
3F01F0
3F03F0
1F03F0
1F83E0
1F87E0
0F87E0
0FC7C0
0FC7C0
07CFC0
07EF80
07EF80
03FF80
03FF80
03FF00
01FF00
01FF00
003E00
007E00
00FC00
01FC00
0FF800
FFF000
FFE000
FFC000
FF0000
E00000
ENDCHAR
STARTCHAR uni0E3F
ENCODING 3647
SWIDTH 585 0
DWIDTH 25 0
BBX 21 42 3 -6
BITMAP
03F000
03F000
03F000
03F000
03F000
03F000
03F000
FFF800
FFFE00
FFFF80
FFFFC0
FFFFC0
F81FC0
F807E0
F807E0
F807C0
F80FC0
F81FC0
FFFF80
FFFE00
FFF000
FFFF00
FFFFC0
F80FE0
F803F0
F801F0
F801F0
F801F8
F801F8
F803F8
F807F0
FFFFF0
FFFFE0
FFFFE0
FFFF80
FFFE00
03F000
03F000
03F000
03F000
03F000
03F000
ENDCHAR
STARTCHAR uni1D00
ENCODING 7424
SWIDTH 585 0
DWIDTH 25 0
BBX 23 22 1 0
BITMAP
00FE00
00FE00
01FE00
01FF00
03FF00
03EF80
03EF80
07CF80
07C7C0
0FC7C0
0F87E0
0F83E0
1F03E0
1F01F0
1FFFF0
3FFFF0
3FFFF8
7FFFF8
7C00FC
7C007C
FC007C
F8007E
ENDCHAR
STARTCHAR uni1DBB
ENCODING 7611
SWIDTH 585 0
DWIDTH 25 0
BBX 12 13 6 16
BITMAP
FFF0
FFF0
FFF0
FFF0
03F0
07C0
1F80
3F00
7C00
FFF0
FFF0
FFF0
FFF0
ENDCHAR
STARTCHAR uni1DBF
ENCODING 7615
SWIDTH 585 0
DWIDTH 25 0
BBX 15 16 5 16
BITMAP
0FE0
3FF0
7FF8
7FFC
FC7C
F87C
F87E
FFFE
FFFE
F87E
F87C
FCFC
7FFC
3FF8
3FF0
0FC0
ENDCHAR
STARTCHAR uni1E24
ENCODING 7716
SWIDTH 585 0
DWIDTH 25 0
BBX 19 38 3 -9
BITMAP
F803E0
F803E0
F803E0
F803E0
F803E0
F803E0
F803E0
F803E0
F803E0
F803E0
F803E0
F803E0
FFFFE0
FFFFE0
FFFFE0
FFFFE0
FFFFE0
F803E0
F803E0
F803E0
F803E0
F803E0
F803E0
F803E0
F803E0
F803E0
F803E0
F803E0
F803E0
000000
000000
00E000
03F000
03F800
03F800
03F800
03F000
01E000
ENDCHAR
STARTCHAR uni1E25
ENCODING 7717
SWIDTH 585 0
DWIDTH 25 0
BBX 19 40 3 -9
BITMAP
FC0000
FC0000
FC0000
FC0000
FC0000
FC0000
FC0000
FC0000
FC0000
FC7C00
FDFF00
FDFF80
FFFFC0
FFFFC0
FF1FC0
FE0FC0
FC07E0
FC07E0
FC07E0
FC07E0
FC07E0
FC07E0
FC07E0
FC07E0
FC07E0
FC07E0
FC07E0
FC07E0
FC07E0
FC07E0
FC07E0
000000
000000
00E000
03F000
03F800
03F800
03F800
03F000
01E000
ENDCHAR
STARTCHAR uni1E30
ENCODING 7728
SWIDTH 585 0
DWIDTH 25 0
BBX 21 38 3 0
BITMAP
003FC0
003F80
007F00
00FE00
01FC00
03F800
000000
000000
000000
F803F0
F803F0
F803F0
F803F0
F803E0
F803E0
F807E0
F807E0
F80FC0
F80FC0
F81F80
F83F80
F87F00
F9FF00
FFFE00
FFFC00
FFFE00
FFFE00
FFBF00
FC3F00
F81F80
F81F80
F80FC0
F80FC0
F80FE0
F807E0
F807F0
F803F0
F803F8
ENDCHAR
STARTCHAR uni1E32
ENCODING 7730
SWIDTH 585 0
DWIDTH 25 0
BBX 21 38 3 -9
BITMAP
F803F0
F803F0
F803F0
F803F0
F803E0
F803E0
F807E0
F807E0
F80FC0
F80FC0
F81F80
F83F80
F87F00
F9FF00
FFFE00
FFFC00
FFFE00
FFFE00
FFBF00
FC3F00
F81F80
F81F80
F80FC0
F80FC0
F80FE0
F807E0
F807F0
F803F0
F803F8
000000
000000
00E000
01F000
03F800
03F800
03F800
01F000
00E000
ENDCHAR
STARTCHAR uni1E33
ENCODING 7731
SWIDTH 585 0
DWIDTH 25 0
BBX 21 40 3 -9
BITMAP
F80000
F80000
F80000
F80000
F80000
F80000
F80000
F80000
F80000
F803E0
F807E0
F807E0
F807E0
F807C0
F80FC0
F80FC0
F81F80
F87F80
FFFF00
FFFF00
FFFE00
FFFE00
FFFF00
F83F00
F81F80
F81FC0
F80FC0
F80FE0
F807E0
F807F0
F803F8
000000
000000
00E000
01F800
03F800
03F800
03F800
01F800
00F000
ENDCHAR
STARTCHAR uni1E34
ENCODING 7732
SWIDTH 585 0
DWIDTH 25 0
BBX 25 38 0 -9
BITMAP
1F007E00
1F007E00
1F007E00
1F007E00
1F007C00
1F007C00
1F00FC00
1F00FC00
1F01F800
1F01F800
1F03F000
1F07F000
1F0FE000
1F3FE000
1FFFC000
1FFF8000
1FFFC000
1FFFC000
1FF7E000
1F87E000
1F03F000
1F03F000
1F01F800
1F01F800
1F01FC00
1F00FC00
1F00FE00
1F007E00
1F007F00
00000000
00000000
00000000
00000000
FFFFFF80
FFFFFF80
FFFFFF80
FFFFFF80
FFFFFF80
ENDCHAR
STARTCHAR uni1E35
ENCODING 7733
SWIDTH 585 0
DWIDTH 25 0
BBX 25 40 0 -9
BITMAP
1F000000
1F000000
1F000000
1F000000
1F000000
1F000000
1F000000
1F000000
1F000000
1F007C00
1F00FC00
1F00FC00
1F00FC00
1F00F800
1F01F800
1F01F800
1F03F000
1F0FF000
1FFFE000
1FFFE000
1FFFC000
1FFFC000
1FFFE000
1F07E000
1F03F000
1F03F800
1F01F800
1F01FC00
1F00FC00
1F00FE00
1F007F00
00000000
00000000
00000000
00000000
FFFFFF80
FFFFFF80
FFFFFF80
FFFFFF80
FFFFFF80
ENDCHAR
STARTCHAR uni1E36
ENCODING 7734
SWIDTH 585 0
DWIDTH 25 0
BBX 20 38 3 -9
BITMAP
F80000
F80000
F80000
F80000
F80000
F80000
F80000
F80000
F80000
F80000
F80000
F80000
F80000
F80000
F80000
F80000
F80000
F80000
F80000
F80000
F80000
F80000
F80000
F80000
FFFFF0
FFFFF0
FFFFF0
FFFFF0
FFFFF0
000000
000000
00E000
01F800
03F800
03F800
03F800
01F800
00F000
ENDCHAR
STARTCHAR uni1E37
ENCODING 7735
SWIDTH 585 0
DWIDTH 25 0
BBX 20 40 2 -9
BITMAP
FFE000
FFE000
FFE000
FFE000
FFE000
03E000
03E000
03E000
03E000
03E000
03E000
03E000
03E000
03E000
03E000
03E000
03E000
03E000
03E000
03E000
03E000
03E000
03E000
03F000
03F010
03FFF0
03FFF0
01FFF0
01FFF0
00FFF0
003FE0
000000
000000
003C00
007E00
007E00
00FE00
007E00
007E00
003C00
ENDCHAR
STARTCHAR uni1E3A
ENCODING 7738
SWIDTH 585 0
DWIDTH 25 0
BBX 25 38 0 -9
BITMAP
1F000000
1F000000
1F000000
1F000000
1F000000
1F000000
1F000000
1F000000
1F000000
1F000000
1F000000
1F000000
1F000000
1F000000
1F000000
1F000000
1F000000
1F000000
1F000000
1F000000
1F000000
1F000000
1F000000
1F000000
1FFFFE00
1FFFFE00
1FFFFE00
1FFFFE00
1FFFFE00
00000000
00000000
00000000
00000000
FFFFFF80
FFFFFF80
FFFFFF80
FFFFFF80
FFFFFF80
ENDCHAR
STARTCHAR uni1E3B
ENCODING 7739
SWIDTH 585 0
DWIDTH 25 0
BBX 24 40 2 -9
BITMAP
FFE000
FFE000
FFE000
FFE000
FFE000
03E000
03E000
03E000
03E000
03E000
03E000
03E000
03E000
03E000
03E000
03E000
03E000
03E000
03E000
03E000
03E000
03E000
03E000
03F000
03F010
03FFF0
03FFF0
01FFF0
01FFF0
00FFF0
003FE0
000000
000000
000000
000000
FFFFFF
FFFFFF
FFFFFF
FFFFFF
FFFFFF
ENDCHAR
STARTCHAR uni1E48
ENCODING 7752
SWIDTH 585 0
DWIDTH 25 0
BBX 25 38 0 -9
BITMAP
1FE07C00
1FE07C00
1FE07C00
1FF07C00
1FF07C00
1FF07C00
1F707C00
1F787C00
1F787C00
1F787C00
1F387C00
1F387C00
1F3C7C00
1F3C7C00
1F1C7C00
1F1C7C00
1F1E7C00
1F1E7C00
1F1E7C00
1F0E7C00
1F0E7C00
1F0F7C00
1F0F7C00
1F07FC00
1F07FC00
1F07FC00
1F07FC00
1F07FC00
1F03FC00
00000000
00000000
00000000
00000000
FFFFFF80
FFFFFF80
FFFFFF80
FFFFFF80
FFFFFF80
ENDCHAR
STARTCHAR uni1E49
ENCODING 7753
SWIDTH 585 0
DWIDTH 25 0
BBX 25 31 0 -9
BITMAP
1F0F8000
1F3FE000
1F3FF000
1F7FF800
1FFFF800
1FF3F800
1FC1F800
1F80FC00
1F80FC00
1F80FC00
1F80FC00
1F80FC00
1F80FC00
1F80FC00
1F80FC00
1F80FC00
1F80FC00
1F80FC00
1F80FC00
1F80FC00
1F80FC00
1F80FC00
00000000
00000000
00000000
00000000
FFFFFF80
FFFFFF80
FFFFFF80
FFFFFF80
FFFFFF80
ENDCHAR
STARTCHAR uni1E50
ENCODING 7760
SWIDTH 585 0
DWIDTH 25 0
BBX 22 44 1 0
BITMAP
1FC000
0FE000
07F000
03F800
01FC00
00FE00
000000
1FFFE0
1FFFE0
1FFFE0
1FFFE0
1FFFE0
000000
000000
000000
00FE00
07FF80
0FFFE0
1FFFE0
3FFFF0
3F87F8
7F01F8
7E01F8
7E00FC
7E00FC
FC00FC
FC007C
FC007C
FC007C
FC007C
FC007C
FC007C
FC007C
FC00FC
7C00FC
7E00FC
7E01FC
7F01F8
3F87F8
3FFFF0
1FFFF0
0FFFE0
07FF80
01FE00
ENDCHAR
STARTCHAR uni1E51
ENCODING 7761
SWIDTH 585 0
DWIDTH 25 0
BBX 20 40 2 0
BITMAP
0FC000
0FC000
07E000
03E000
03F000
01F000
01F800
00F800
000000
000000
7FFFE0
7FFFE0
7FFFE0
7FFFE0
7FFFE0
000000
000000
000000
01FC00
07FF00
1FFF80
3FFFC0
3FFFE0
7F9FE0
7F07F0
7E03F0
7E03F0
FC03F0
FC03F0
FC03F0
FC03F0
7E03F0
7E03F0
7F07F0
7F8FE0
3FFFE0
3FFFC0
1FFF80
07FF00
01FC00
ENDCHAR
STARTCHAR uni1E52
ENCODING 7762
SWIDTH 585 0
DWIDTH 25 0
BBX 22 44 1 0
BITMAP
0007F0
000FE0
001FC0
003F80
007F00
00FE00
000000
1FFFE0
1FFFE0
1FFFE0
1FFFE0
1FFFE0
000000
000000
000000
00FE00
07FF80
0FFFE0
1FFFE0
3FFFF0
3F87F8
7F01F8
7E01F8
7E00FC
7E00FC
FC00FC
FC007C
FC007C
FC007C
FC007C
FC007C
FC007C
FC007C
FC00FC
7C00FC
7E00FC
7E01FC
7F01F8
3F87F8
3FFFF0
1FFFF0
0FFFE0
07FF80
01FE00
ENDCHAR
STARTCHAR uni1E53
ENCODING 7763
SWIDTH 585 0
DWIDTH 25 0
BBX 20 40 2 0
BITMAP
001F80
001F80
003F00
003E00
007E00
007C00
00FC00
01F800
000000
000000
7FFFE0
7FFFE0
7FFFE0
7FFFE0
7FFFE0
000000
000000
000000
01FC00
07FF00
1FFF80
3FFFC0
3FFFE0
7F9FE0
7F07F0
7E03F0
7E03F0
FC03F0
FC03F0
FC03F0
FC03F0
7E03F0
7E03F0
7F07F0
7F8FE0
3FFFE0
3FFFC0
1FFF80
07FF00
01FC00
ENDCHAR
STARTCHAR uni1E5A
ENCODING 7770
SWIDTH 585 0
DWIDTH 25 0
BBX 21 38 3 -9
BITMAP
FFFC00
FFFF00
FFFF80
FFFFC0
FFFFE0
F80FE0
F807F0
F803F0
F803F0
F803F0
F803F0
F807E0
F80FE0
FFFFE0
FFFFC0
FFFF80
FFFF00
FFFF00
F83F00
F81F80
F81F80
F81F80
F80FC0
F80FC0
F807E0
F807E0
F807F0
F803F0
F803F8
000000
000000
00E000
01F000
03F800
03F800
03F800
01F000
00E000
ENDCHAR
STARTCHAR uni1E5B
ENCODING 7771
SWIDTH 585 0
DWIDTH 25 0
BBX 23 31 1 -9
BITMAP
7FC3E0
7FCFF8
7FCFF8
7FDFFC
7FDFFC
07F8FE
07F07E
07E07E
07E07E
07E000
07E000
07C000
07C000
07C000
07C000
07C000
07C000
FFFF00
FFFF00
FFFF00
FFFF00
FFFF00
000000
000000
03C000
07E000
0FE000
0FE000
0FE000
07E000
03C000
ENDCHAR
STARTCHAR uni1E62
ENCODING 7778
SWIDTH 585 0
DWIDTH 25 0
BBX 20 38 2 -9
BITMAP
01FE00
0FFF80
1FFFE0
3FFFF0
3FFFE0
7F87E0
7E01C0
7E0080
7E0000
7E0000
3F0000
3FC000
1FF000
0FFC00
07FF00
03FF80
00FFC0
001FE0
0007E0
0003F0
0003F0
0003F0
4003F0
7C0FF0
7FFFE0
7FFFE0
FFFFC0
7FFF00
0FFC00
000000
000000
007000
00F800
01FC00
01FC00
01FC00
00F800
007000
ENDCHAR
STARTCHAR uni1E63
ENCODING 7779
SWIDTH 585 0
DWIDTH 25 0
BBX 19 31 3 -9
BITMAP
01FFC0
0FFFC0
3FFFC0
7FFFC0
7FFFC0
FF0000
FC0000
FC0000
FF8000
7FF800
3FFF00
1FFF80
03FFC0
003FC0
000FE0
0007E0
F01FE0
FFFFC0
FFFFC0
FFFF80
FFFF00
7FF800
000000
000000
01E000
03F000
03F000
03F800
03F000
03F000
01E000
ENDCHAR
STARTCHAR uni1E6E
ENCODING 7790
SWIDTH 585 0
DWIDTH 25 0
BBX 25 38 0 -9
BITMAP
7FFFFE00
7FFFFE00
7FFFFE00
7FFFFE00
7FFFFE00
003E0000
003E0000
003E0000
003E0000
003E0000
003E0000
003E0000
003E0000
003E0000
003E0000
003E0000
003E0000
003E0000
003E0000
003E0000
003E0000
003E0000
003E0000
003E0000
003E0000
003E0000
003E0000
003E0000
003E0000
00000000
00000000
00000000
00000000
FFFFFF80
FFFFFF80
FFFFFF80
FFFFFF80
FFFFFF80
ENDCHAR
STARTCHAR Wgrave
ENCODING 7808
SWIDTH 585 0
DWIDTH 25 0
BBX 25 38 0 0
BITMAP
0FE00000
07F00000
03F80000
01FC0000
00FE0000
007F0000
00000000
00000000
00000000
F8001F80
F8001F00
FC001F00
FC001F00
7C001F00
7C001F00
7C001F00
7C3E1F00
7C3E1F00
7C3E3F00
7C7E3E00
7C7E3E00
7C7E3E00
3C7F3E00
3C773E00
3E773E00
3E773E00
3E773E00
3EF73E00
3EF73C00
3EE73C00
3EE7BC00
3EE7BC00
1EE3FC00
1FE3FC00
1FE3FC00
1FE3FC00
1FE3FC00
1FE3FC00
ENDCHAR
STARTCHAR wgrave
ENCODING 7809
SWIDTH 585 0
DWIDTH 25 0
BBX 23 33 1 0
BITMAP
07E000
07E000
03F000
03F000
01F800
01F800
00FC00
00FC00
000000
000000
000000
FC787E
FC787C
FC787C
FC7C7C
FCFC7C
FCFC7C
7CFC7C
7CFC7C
7CEC7C
7CCEFC
7CCEFC
7DCEF8
7DCEF8
7DCEF8
7DCEF8
7DC6F8
7DC7F8
7F87F8
7F87F8
7F87F8
7F87F8
7F87F8
ENDCHAR
STARTCHAR Wacute
ENCODING 7810
SWIDTH 585 0
DWIDTH 25 0
BBX 25 38 0 0
BITMAP
0003F800
0007F000
000FE000
001FC000
003F8000
007F0000
00000000
00000000
00000000
F8001F80
F8001F00
FC001F00
FC001F00
7C001F00
7C001F00
7C001F00
7C3E1F00
7C3E1F00
7C3E3F00
7C7E3E00
7C7E3E00
7C7E3E00
3C7F3E00
3C773E00
3E773E00
3E773E00
3E773E00
3EF73E00
3EF73C00
3EE73C00
3EE7BC00
3EE7BC00
1EE3FC00
1FE3FC00
1FE3FC00
1FE3FC00
1FE3FC00
1FE3FC00
ENDCHAR
STARTCHAR wacute
ENCODING 7811
SWIDTH 585 0
DWIDTH 25 0
BBX 23 33 1 0
BITMAP
000FC0
001F80
001F80
003F00
003F00
007E00
007E00
00FC00
000000
000000
000000
FC787E
FC787C
FC787C
FC7C7C
FCFC7C
FCFC7C
7CFC7C
7CFC7C
7CEC7C
7CCEFC
7CCEFC
7DCEF8
7DCEF8
7DCEF8
7DCEF8
7DC6F8
7DC7F8
7F87F8
7F87F8
7F87F8
7F87F8
7F87F8
ENDCHAR
STARTCHAR Wdieresis
ENCODING 7812
SWIDTH 585 0
DWIDTH 25 0
BBX 25 39 0 0
BITMAP
0380E000
0FC3F000
0FE3F800
0FE3F800
0FE3F800
0FC3F000
0381E000
00000000
00000000
00000000
F8001F80
F8001F00
FC001F00
FC001F00
7C001F00
7C001F00
7C001F00
7C3E1F00
7C3E1F00
7C3E3F00
7C7E3E00
7C7E3E00
7C7E3E00
3C7F3E00
3C773E00
3E773E00
3E773E00
3E773E00
3EF73E00
3EF73C00
3EE73C00
3EE7BC00
3EE7BC00
1EE3FC00
1FE3FC00
1FE3FC00
1FE3FC00
1FE3FC00
1FE3FC00
ENDCHAR
STARTCHAR wdieresis
ENCODING 7813
SWIDTH 585 0
DWIDTH 25 0
BBX 23 31 1 0
BITMAP
0F87C0
0FC7E0
1FCFE0
1FC7E0
0F87C0
0703C0
000000
000000
000000
FC787E
FC787C
FC787C
FC7C7C
FCFC7C
FCFC7C
7CFC7C
7CFC7C
7CEC7C
7CCEFC
7CCEFC
7DCEF8
7DCEF8
7DCEF8
7DCEF8
7DC6F8
7DC7F8
7F87F8
7F87F8
7F87F8
7F87F8
7F87F8
ENDCHAR
STARTCHAR uni1E9E
ENCODING 7838
SWIDTH 585 0
DWIDTH 25 0
BBX 21 29 3 0
BITMAP
03FC00
1FFF80
3FFFE0
7FFFF0
7FFFE0
FF0FE0
FC07C0
F80FC0
F80F80
F81F80
F81F00
F83F00
F83F80
F87FC0
F8FFE0
F83FF0
F807F0
F803F8
F801F8
F801F8
F801F8
F801F8
F801F8
F807F0
F9FFF0
F9FFE0
F9FFC0
F9FF80
FBFE00
ENDCHAR
STARTCHAR uni1EA0
ENCODING 7840
SWIDTH 585 0
DWIDTH 25 0
BBX 23 38 1 -9
BITMAP
00FE00
00FE00
01FE00
01FF00
01FF00
03FF00
03FF80
03EF80
03EF80
07EF80
07CFC0
07C7C0
0FC7C0
0FC7E0
0F87E0
1F83E0
1F83E0
1F83F0
1F03F0
3FFFF0
3FFFF8
3FFFF8
7FFFF8
7FFFF8
7E00FC
7C00FC
FC00FC
FC007E
FC007E
000000
000000
003800
00FC00
00FE00
00FE00
00FE00
00FC00
007800
ENDCHAR
STARTCHAR uni1EA1
ENCODING 7841
SWIDTH 585 0
DWIDTH 25 0
BBX 22 31 2 -9
BITMAP
1FF000
1FFE00
3FFF80
3FFF80
3FFFC0
001FE0
0007E0
0003E0
07FFE0
1FFFE0
7FFFE0
7FFFE0
FFFFE0
FC03E0
F807E0
F807E0
FC0FE0
FFFBFC
FFFBFC
7FFBFC
3FF3FC
0FC3FC
000000
000000
007000
01F800
01FC00
01FC00
01FC00
01F800
00F000
ENDCHAR
STARTCHAR uni1EA2
ENCODING 7842
SWIDTH 585 0
DWIDTH 25 0
BBX 23 39 1 0
BITMAP
007C00
03FF00
03FF00
01FF80
010F80
001F00
003E00
007C00
000000
000000
00FE00
00FE00
01FE00
01FF00
01FF00
03FF00
03FF80
03EF80
03EF80
07EF80
07CFC0
07C7C0
0FC7C0
0FC7E0
0F87E0
1F83E0
1F83E0
1F83F0
1F03F0
3FFFF0
3FFFF8
3FFFF8
7FFFF8
7FFFF8
7E00FC
7C00FC
FC00FC
FC007E
FC007E
ENDCHAR
STARTCHAR uni1EA3
ENCODING 7843
SWIDTH 585 0
DWIDTH 25 0
BBX 22 35 2 0
BITMAP
00F000
07FC00
07FE00
03FE00
023E00
007C00
00FC00
00F800
00F000
000000
000000
000000
000000
1FF000
1FFE00
3FFF80
3FFF80
3FFFC0
001FE0
0007E0
0003E0
07FFE0
1FFFE0
7FFFE0
7FFFE0
FFFFE0
FC03E0
F807E0
F807E0
FC0FE0
FFFBFC
FFFBFC
7FFBFC
3FF3FC
0FC3FC
ENDCHAR
STARTCHAR uni1EA4
ENCODING 7844
SWIDTH 585 0
DWIDTH 25 0
BBX 28 43 1 0
BITMAP
00000FF0
00000FE0
00001FC0
00003F80
00007F00
0000FE00
00FE0000
01FF0000
03FF8000
07EFC000
0FC7E000
00000000
00000000
00000000
00FE0000
00FE0000
01FE0000
01FF0000
01FF0000
03FF0000
03FF8000
03EF8000
03EF8000
07EF8000
07CFC000
07C7C000
0FC7C000
0FC7E000
0F87E000
1F83E000
1F83E000
1F83F000
1F03F000
3FFFF000
3FFFF800
3FFFF800
7FFFF800
7FFFF800
7E00FC00
7C00FC00
FC00FC00
FC007E00
FC007E00
ENDCHAR
STARTCHAR uni1EA5
ENCODING 7845
SWIDTH 585 0
DWIDTH 25 0
BBX 24 40 2 0
BITMAP
00003F
00003E
00007E
00007C
0000FC
0000F8
0001F8
01FBF0
03FC00
03FC00
07FE00
0FFF00
0F9F00
1F9F80
3F0FC0
000000
000000
000000
1FF000
1FFE00
3FFF80
3FFF80
3FFFC0
001FE0
0007E0
0003E0
07FFE0
1FFFE0
7FFFE0
7FFFE0
FFFFE0
FC03E0
F807E0
F807E0
FC0FE0
FFFBFC
FFFBFC
7FFBFC
3FF3FC
0FC3FC
ENDCHAR
STARTCHAR uni1EA6
ENCODING 7846
SWIDTH 585 0
DWIDTH 25 0
BBX 23 43 1 0
BITMAP
001FC0
000FE0
0007F0
0003F8
0001F8
0000FE
00FE00
01FF00
03FF80
07EFC0
0FC7E0
000000
000000
000000
00FE00
00FE00
01FE00
01FF00
01FF00
03FF00
03FF80
03EF80
03EF80
07EF80
07CFC0
07C7C0
0FC7C0
0FC7E0
0F87E0
1F83E0
1F83E0
1F83F0
1F03F0
3FFFF0
3FFFF8
3FFFF8
7FFFF8
7FFFF8
7E00FC
7C00FC
FC00FC
FC007E
FC007E
ENDCHAR
STARTCHAR uni1EA7
ENCODING 7847
SWIDTH 585 0
DWIDTH 25 0
BBX 22 40 2 0
BITMAP
001F80
001F80
000FC0
000FC0
0007E0
0003E0
0003F0
01F9F0
03FC00
03FC00
07FE00
0FFF00
0F9F00
1F9F80
3F0FC0
000000
000000
000000
1FF000
1FFE00
3FFF80
3FFF80
3FFFC0
001FE0
0007E0
0003E0
07FFE0
1FFFE0
7FFFE0
7FFFE0
FFFFE0
FC03E0
F807E0
F807E0
FC0FE0
FFFBFC
FFFBFC
7FFBFC
3FF3FC
0FC3FC
ENDCHAR
STARTCHAR uni1EA8
ENCODING 7848
SWIDTH 585 0
DWIDTH 25 0
BBX 25 44 1 0
BITMAP
00007C00
0003FF00
0003FF00
0003FF80
00011F00
00001F00
00003E00
00FE7C00
01FF0000
03FF8000
07EFC000
0FC7E000
00000000
00000000
00000000
00FE0000
00FE0000
01FE0000
01FF0000
01FF0000
03FF0000
03FF8000
03EF8000
03EF8000
07EF8000
07CFC000
07C7C000
0FC7C000
0FC7E000
0F87E000
1F83E000
1F83E000
1F83F000
1F03F000
3FFFF000
3FFFF800
3FFFF800
7FFFF800
7FFFF800
7E00FC00
7C00FC00
FC00FC00
FC007E00
FC007E00
ENDCHAR
STARTCHAR uni1EA9
ENCODING 7849
SWIDTH 585 0
DWIDTH 25 0
BBX 22 42 2 0
BITMAP
0000E0
000FF8
0007FC
0007FC
00047C
00007C
0000F8
0001F0
0001E0
01F800
03FC00
03FC00
07FE00
0FFF00
0F9F00
1F9F80
3F0FC0
000000
000000
000000
1FF000
1FFE00
3FFF80
3FFF80
3FFFC0
001FE0
0007E0
0003E0
07FFE0
1FFFE0
7FFFE0
7FFFE0
FFFFE0
FC03E0
F807E0
F807E0
FC0FE0
FFFBFC
FFFBFC
7FFBFC
3FF3FC
0FC3FC
ENDCHAR
STARTCHAR uni1EAA
ENCODING 7850
SWIDTH 585 0
DWIDTH 25 0
BBX 23 47 1 0
BITMAP
0183F0
07F3F0
0FFFF0
0FFFE0
1FFFE0
1F8FC0
1F8000
000000
000000
000000
00FE00
01FF00
03FF80
07EFC0
0FC7E0
000000
000000
000000
00FE00
00FE00
01FE00
01FF00
01FF00
03FF00
03FF80
03EF80
03EF80
07EF80
07CFC0
07C7C0
0FC7C0
0FC7E0
0F87E0
1F83E0
1F83E0
1F83F0
1F03F0
3FFFF0
3FFFF8
3FFFF8
7FFFF8
7FFFF8
7E00FC
7C00FC
FC00FC
FC007E
FC007E
ENDCHAR
STARTCHAR uni1EAB
ENCODING 7851
SWIDTH 585 0
DWIDTH 25 0
BBX 22 44 2 0
BITMAP
0707C0
1FC7C0
1FFFC0
3FFFC0
3FFFC0
3E3F80
3E0F00
000000
000000
000000
000000
01F800
03FC00
03FC00
07FE00
0FFF00
0F9F00
1F9F80
3F0FC0
000000
000000
000000
1FF000
1FFE00
3FFF80
3FFF80
3FFFC0
001FE0
0007E0
0003E0
07FFE0
1FFFE0
7FFFE0
7FFFE0
FFFFE0
FC03E0
F807E0
F807E0
FC0FE0
FFFBFC
FFFBFC
7FFBFC
3FF3FC
0FC3FC
ENDCHAR
STARTCHAR uni1EAC
ENCODING 7852
SWIDTH 585 0
DWIDTH 25 0
BBX 23 46 1 -9
BITMAP
00FE00
01FF00
03FF80
07EFC0
0FC7E0
000000
000000
000000
00FE00
00FE00
01FE00
01FF00
01FF00
03FF00
03FF80
03EF80
03EF80
07EF80
07CFC0
07C7C0
0FC7C0
0FC7E0
0F87E0
1F83E0
1F83E0
1F83F0
1F03F0
3FFFF0
3FFFF8
3FFFF8
7FFFF8
7FFFF8
7E00FC
7C00FC
FC00FC
FC007E
FC007E
000000
000000
003800
00FC00
00FE00
00FE00
00FE00
00FC00
007800
ENDCHAR
STARTCHAR uni1EAD
ENCODING 7853
SWIDTH 585 0
DWIDTH 25 0
BBX 22 42 2 -9
BITMAP
01F800
03FC00
03FC00
07FE00
0FFF00
0F9F00
1F9F80
3F0FC0
000000
000000
000000
1FF000
1FFE00
3FFF80
3FFF80
3FFFC0
001FE0
0007E0
0003E0
07FFE0
1FFFE0
7FFFE0
7FFFE0
FFFFE0
FC03E0
F807E0
F807E0
FC0FE0
FFFBFC
FFFBFC
7FFBFC
3FF3FC
0FC3FC
000000
000000
007000
01F800
01FC00
01FC00
01FC00
01F800
00F000
ENDCHAR
STARTCHAR uni1EAE
ENCODING 7854
SWIDTH 585 0
DWIDTH 25 0
BBX 23 46 1 0
BITMAP
0007F0
000FE0
001FC0
003F80
007F00
00FE00
000000
1F83E0
1F83E0
0F87E0
0FFFE0
07FFC0
03FF80
00FE00
000000
000000
000000
00FE00
00FE00
01FE00
01FF00
01FF00
03FF00
03FF80
03EF80
03EF80
07EF80
07CFC0
07C7C0
0FC7C0
0FC7E0
0F87E0
1F83E0
1F83E0
1F83F0
1F03F0
3FFFF0
3FFFF8
3FFFF8
7FFFF8
7FFFF8
7E00FC
7C00FC
FC00FC
FC007E
FC007E
ENDCHAR
STARTCHAR uni1EAF
ENCODING 7855
SWIDTH 585 0
DWIDTH 25 0
BBX 22 43 2 0
BITMAP
001F80
003F00
003F00
007E00
007C00
00FC00
00F800
01F800
000000
000000
3E07C0
3E07C0
3E0FC0
3F0FC0
1FFF80
1FFF80
0FFF00
03F800
000000
000000
000000
1FF000
1FFE00
3FFF80
3FFF80
3FFFC0
001FE0
0007E0
0003E0
07FFE0
1FFFE0
7FFFE0
7FFFE0
FFFFE0
FC03E0
F807E0
F807E0
FC0FE0
FFFBFC
FFFBFC
7FFBFC
3FF3FC
0FC3FC
ENDCHAR
STARTCHAR uni1EB0
ENCODING 7856
SWIDTH 585 0
DWIDTH 25 0
BBX 23 46 1 0
BITMAP
1FC000
0FE000
07F000
03F800
01FC00
00FE00
000000
1F83E0
1F83E0
0F87E0
0FFFE0
07FFC0
03FF80
00FE00
000000
000000
000000
00FE00
00FE00
01FE00
01FF00
01FF00
03FF00
03FF80
03EF80
03EF80
07EF80
07CFC0
07C7C0
0FC7C0
0FC7E0
0F87E0
1F83E0
1F83E0
1F83F0
1F03F0
3FFFF0
3FFFF8
3FFFF8
7FFFF8
7FFFF8
7E00FC
7C00FC
FC00FC
FC007E
FC007E
ENDCHAR
STARTCHAR uni1EB1
ENCODING 7857
SWIDTH 585 0
DWIDTH 25 0
BBX 22 43 2 0
BITMAP
1F8000
0FC000
07C000
07E000
03E000
03F000
01F000
01F800
000000
000000
3E07C0
3E07C0
3E0FC0
3F0FC0
1FFF80
1FFF80
0FFF00
03F800
000000
000000
000000
1FF000
1FFE00
3FFF80
3FFF80
3FFFC0
001FE0
0007E0
0003E0
07FFE0
1FFFE0
7FFFE0
7FFFE0
FFFFE0
FC03E0
F807E0
F807E0
FC0FE0
FFFBFC
FFFBFC
7FFBFC
3FF3FC
0FC3FC
ENDCHAR
STARTCHAR uni1EB2
ENCODING 7858
SWIDTH 585 0
DWIDTH 25 0
BBX 23 47 1 0
BITMAP
007C00
03FF00
03FF00
01FF80
010F80
001F00
003E00
007C00
1F83E0
1F83E0
0F87E0
0FFFE0
07FFC0
03FF80
00FE00
000000
000000
000000
00FE00
00FE00
01FE00
01FF00
01FF00
03FF00
03FF80
03EF80
03EF80
07EF80
07CFC0
07C7C0
0FC7C0
0FC7E0
0F87E0
1F83E0
1F83E0
1F83F0
1F03F0
3FFFF0
3FFFF8
3FFFF8
7FFFF8
7FFFF8
7E00FC
7C00FC
FC00FC
FC007E
FC007E
ENDCHAR
ENDFONT
